<?xml version="1.0" encoding="UTF-8" standalone="no"?>
<!DOCTYPE svg PUBLIC "-//W3C//DTD SVG 1.1//EN" "http://www.w3.org/Graphics/SVG/1.1/DTD/svg11.dtd">
<!-- Created with Vectornator (http://vectornator.io/) -->
<svg height="100%" stroke-miterlimit="10" style="fill-rule:nonzero;clip-rule:evenodd;stroke-linecap:round;stroke-linejoin:round;" version="1.1" viewBox="0 0 6 3" width="100%" xml:space="preserve" xmlns="http://www.w3.org/2000/svg" xmlns:vectornator="http://vectornator.io" xmlns:xlink="http://www.w3.org/1999/xlink">
<defs/>
<g id="Untitled" vectornator:layerName="Untitled">
<path d="M0 0L6 0L6 3L0 3L0 0Z" fill="#002c38" fill-rule="nonzero" opacity="1" stroke="none" vectornator:layerName="Rectangle 1"/>
<path d="M3.2334 1.78772C3.22168 1.82483 3.21533 1.88245 3.21435 1.96058L2.81885 1.96058C2.82471 1.79554 2.84033 1.68152 2.86572 1.61853C2.89111 1.55555 2.95654 1.48304 3.06201 1.40101L3.16894 1.31751C3.2041 1.29114 3.23242 1.26233 3.2539 1.23108C3.29297 1.17737 3.3125 1.11829 3.3125 1.05384C3.3125 0.979618 3.29077 0.911991 3.24731 0.850956C3.20386 0.789921 3.12451 0.759404 3.00928 0.759404C2.89599 0.759404 2.81567 0.797001 2.76831 0.872197C2.72095 0.947392 2.69726 1.02552 2.69726 1.10657L2.27392 1.10657C2.28564 0.828251 2.38281 0.630986 2.56543 0.514775C2.68066 0.440556 2.82226 0.403447 2.99023 0.403447C3.21094 0.403447 3.39429 0.456181 3.54028 0.56165C3.68628 0.667118 3.75928 0.823368 3.75928 1.0304C3.75928 1.15735 3.72754 1.26429 3.66406 1.3512C3.62695 1.40393 3.55566 1.47132 3.45019 1.55335L3.34619 1.63392C3.28955 1.67786 3.25195 1.72913 3.2334 1.78772ZM3.24512 2.5846L2.80859 2.5846L2.80859 2.16126L3.24512 2.16126L3.24512 2.5846Z" fill="#ffffff" opacity="1" stroke="none" vectornator:layerName="Text 4"/>
</g>
</svg>
