<svg xmlns="http://www.w3.org/2000/svg" xmlns:xlink="http://www.w3.org/1999/xlink" width="50" zoomAndPan="magnify" viewBox="0 0 37.5 37.499999" height="50" preserveAspectRatio="xMidYMid meet" version="1.0"><defs><clipPath id="ee255f0489"><path d="M 10 34 L 13 34 L 13 36.007812 L 10 36.007812 Z M 10 34 " clip-rule="nonzero"/></clipPath><clipPath id="42ae4c993a"><path d="M 1.222656 15 L 36.007812 15 L 36.007812 36.007812 L 1.222656 36.007812 Z M 1.222656 15 " clip-rule="nonzero"/></clipPath><clipPath id="c01025c3cb"><path d="M 5 1.222656 L 32 1.222656 L 32 23 L 5 23 Z M 5 1.222656 " clip-rule="nonzero"/></clipPath></defs><path fill="#000000" d="M 14.6875 4.027344 C 14.6875 4.363281 14.910156 4.585938 15.246094 4.585938 L 28.714844 4.585938 C 29.050781 4.585938 29.273438 4.363281 29.273438 4.027344 C 29.273438 3.691406 29.050781 3.464844 28.714844 3.464844 L 15.246094 3.464844 C 14.910156 3.464844 14.6875 3.691406 14.6875 4.027344 Z M 14.6875 4.027344 " fill-opacity="1" fill-rule="nonzero"/><path fill="#000000" d="M 12.441406 19.738281 C 12.441406 20.074219 12.667969 20.296875 13.003906 20.296875 C 13.339844 20.296875 13.566406 20.074219 13.566406 19.738281 C 13.566406 18.78125 14.292969 18.054688 15.246094 18.054688 L 16.371094 18.054688 C 16.425781 18.164062 16.539062 18.277344 16.59375 18.332031 C 16.820312 18.558594 17.15625 18.558594 17.378906 18.332031 C 17.605469 18.109375 17.605469 17.773438 17.378906 17.546875 C 17.097656 17.210938 16.929688 16.820312 16.929688 16.371094 L 16.929688 14.125 C 16.929688 13.171875 17.660156 12.441406 18.613281 12.441406 C 19.566406 12.441406 20.296875 13.171875 20.296875 14.125 L 20.296875 16.371094 C 20.296875 17.324219 19.566406 18.054688 18.613281 18.054688 C 18.277344 18.054688 18.054688 18.277344 18.054688 18.613281 C 18.054688 18.949219 18.277344 19.175781 18.613281 19.175781 C 19.511719 19.175781 20.355469 18.726562 20.859375 18.054688 L 21.980469 18.054688 C 22.933594 18.054688 23.664062 18.78125 23.664062 19.738281 C 23.664062 20.074219 23.886719 20.296875 24.226562 20.296875 C 24.5625 20.296875 24.785156 20.074219 24.785156 19.738281 C 24.785156 18.164062 23.550781 16.929688 21.980469 16.929688 L 21.363281 16.929688 C 21.417969 16.761719 21.417969 16.539062 21.417969 16.371094 L 21.417969 15.808594 L 24.226562 15.808594 C 24.5625 15.808594 24.785156 15.585938 24.785156 15.246094 C 24.785156 14.910156 24.5625 14.6875 24.226562 14.6875 L 21.417969 14.6875 C 21.417969 14.6875 21.417969 13.734375 21.363281 13.566406 C 21.363281 13.566406 24.617188 13.957031 24.785156 10.757812 C 24.785156 10.421875 24.5625 10.199219 24.226562 10.199219 C 23.886719 10.199219 23.664062 10.421875 23.664062 10.757812 C 23.664062 11.714844 22.933594 12.441406 21.980469 12.441406 L 20.859375 12.441406 C 20.355469 11.769531 19.566406 11.320312 18.613281 11.320312 C 17.660156 11.320312 16.875 11.769531 16.371094 12.441406 L 15.246094 12.441406 C 14.292969 12.441406 13.566406 11.714844 13.566406 10.757812 C 13.566406 10.421875 13.339844 10.199219 13.003906 10.199219 C 12.667969 10.199219 12.441406 10.421875 12.441406 10.757812 C 12.441406 12.332031 13.675781 13.566406 15.246094 13.566406 L 15.863281 13.566406 C 15.808594 13.734375 15.808594 14.6875 15.808594 14.6875 L 13.003906 14.6875 C 12.667969 14.6875 12.441406 14.910156 12.441406 15.246094 C 12.441406 15.585938 12.667969 15.808594 13.003906 15.808594 L 15.808594 15.808594 L 15.808594 16.371094 C 15.808594 16.539062 15.808594 16.761719 15.863281 16.929688 L 15.246094 16.929688 C 13.675781 16.929688 12.441406 18.164062 12.441406 19.738281 Z M 12.441406 19.738281 " fill-opacity="1" fill-rule="nonzero"/><path fill="#000000" d="M 19.960938 8.011719 C 19.679688 7.898438 19.34375 8.011719 19.230469 8.289062 L 18.894531 9.132812 C 18.78125 9.078125 18.503906 9.078125 18.390625 9.132812 L 18.054688 8.289062 C 17.941406 8.011719 17.605469 7.898438 17.324219 8.011719 C 17.042969 8.121094 16.929688 8.460938 17.042969 8.738281 L 17.4375 9.636719 C 17.378906 9.75 17.269531 9.804688 17.210938 9.917969 C 17.042969 10.199219 17.15625 10.535156 17.4375 10.703125 C 17.714844 10.871094 18.054688 10.757812 18.222656 10.480469 C 18.445312 10.140625 19.007812 10.140625 19.175781 10.480469 C 19.457031 11.039062 20.464844 10.421875 20.183594 9.917969 C 20.128906 9.804688 20.074219 9.75 19.960938 9.636719 L 20.355469 8.738281 C 20.355469 8.460938 20.355469 8.179688 19.960938 8.011719 Z M 19.960938 8.011719 " fill-opacity="1" fill-rule="nonzero"/><g clip-path="url(#ee255f0489)"><path fill="#000000" d="M 11.9375 34.886719 L 11.152344 34.886719 C 10.816406 34.886719 10.589844 35.109375 10.589844 35.445312 C 10.589844 35.78125 10.816406 36.007812 11.152344 36.007812 L 11.9375 36.007812 C 12.273438 36.007812 12.5 35.78125 12.5 35.445312 C 12.5 35.109375 12.273438 34.886719 11.9375 34.886719 Z M 11.9375 34.886719 " fill-opacity="1" fill-rule="nonzero"/></g><g clip-path="url(#42ae4c993a)"><path fill="#000000" d="M 35.445312 31.519531 L 33.761719 31.519531 L 33.761719 16.425781 C 33.761719 15.976562 33.59375 15.527344 33.257812 15.191406 C 33.035156 14.96875 32.695312 14.96875 32.472656 15.191406 C 32.25 15.417969 32.25 15.753906 32.472656 15.976562 C 32.585938 16.089844 32.640625 16.257812 32.640625 16.425781 L 32.640625 31.519531 L 21.417969 31.519531 C 20.746094 31.519531 20.296875 31.96875 20.296875 32.640625 L 16.929688 32.640625 C 16.929688 31.96875 16.480469 31.519531 15.808594 31.519531 L 4.585938 31.519531 L 4.585938 26.414062 C 4.585938 26.078125 4.363281 25.851562 4.027344 25.851562 C 3.691406 25.851562 3.464844 26.078125 3.464844 26.414062 L 3.464844 31.519531 L 1.78125 31.519531 C 1.445312 31.519531 1.222656 31.742188 1.222656 32.078125 C 1.222656 34.269531 2.960938 36.007812 5.148438 36.007812 L 8.796875 36.007812 C 9.132812 36.007812 9.355469 35.78125 9.355469 35.445312 C 9.355469 35.109375 9.132812 34.886719 8.796875 34.886719 L 5.148438 34.886719 C 3.800781 34.886719 2.679688 33.929688 2.398438 32.640625 L 15.808594 32.640625 C 15.808594 33.3125 16.257812 33.761719 16.929688 33.761719 L 20.296875 33.761719 C 20.972656 33.761719 21.417969 33.3125 21.417969 32.640625 L 34.828125 32.640625 C 34.546875 33.929688 33.425781 34.886719 32.078125 34.886719 L 14.238281 34.886719 C 13.902344 34.886719 13.675781 35.109375 13.675781 35.445312 C 13.675781 35.78125 13.902344 36.007812 14.238281 36.007812 L 32.078125 36.007812 C 34.269531 36.007812 36.007812 34.269531 36.007812 32.078125 C 36.007812 31.742188 35.78125 31.519531 35.445312 31.519531 Z M 35.445312 31.519531 " fill-opacity="1" fill-rule="nonzero"/></g><path fill="#000000" d="M 4.027344 24.785156 C 4.363281 24.785156 4.585938 24.5625 4.585938 24.226562 L 4.585938 16.425781 C 4.585938 16.3125 4.585938 16.203125 4.644531 16.089844 C 4.8125 15.808594 4.699219 15.472656 4.417969 15.304688 C 4.140625 15.136719 3.800781 15.246094 3.632812 15.527344 C 3.523438 15.808594 3.464844 16.089844 3.464844 16.425781 L 3.464844 24.226562 C 3.464844 24.5625 3.691406 24.785156 4.027344 24.785156 Z M 4.027344 24.785156 " fill-opacity="1" fill-rule="nonzero"/><g clip-path="url(#c01025c3cb)"><path fill="#000000" d="M 7.449219 22.542969 L 8.964844 22.542969 C 9.300781 22.542969 9.523438 22.316406 9.523438 21.980469 C 9.523438 21.644531 9.300781 21.417969 8.964844 21.417969 L 7.449219 21.417969 C 7.113281 21.417969 6.832031 21.140625 6.832031 20.800781 L 6.832031 6.832031 L 30.398438 6.832031 L 30.398438 20.800781 C 30.398438 21.140625 30.117188 21.417969 29.78125 21.417969 L 12.609375 21.417969 C 12.273438 21.417969 12.050781 21.644531 12.050781 21.980469 C 12.050781 22.316406 12.273438 22.542969 12.609375 22.542969 L 29.78125 22.542969 C 30.734375 22.542969 31.519531 21.757812 31.519531 20.800781 L 31.519531 2.960938 C 31.519531 2.007812 30.734375 1.222656 29.78125 1.222656 L 25.402344 1.222656 C 25.066406 1.222656 24.84375 1.445312 24.84375 1.78125 C 24.84375 2.117188 25.066406 2.34375 25.402344 2.34375 L 29.78125 2.34375 C 30.117188 2.34375 30.398438 2.625 30.398438 2.960938 L 30.398438 5.710938 L 6.832031 5.710938 L 6.832031 2.960938 C 6.832031 2.625 7.113281 2.34375 7.449219 2.34375 L 23.160156 2.34375 C 23.496094 2.34375 23.71875 2.117188 23.71875 1.78125 C 23.71875 1.445312 23.496094 1.222656 23.160156 1.222656 L 7.449219 1.222656 C 6.496094 1.222656 5.710938 2.007812 5.710938 2.960938 L 5.710938 20.800781 C 5.710938 21.757812 6.496094 22.542969 7.449219 22.542969 Z M 7.449219 22.542969 " fill-opacity="1" fill-rule="nonzero"/></g><path fill="#000000" d="M 18.613281 16.929688 C 18.949219 16.929688 19.175781 16.707031 19.175781 16.371094 L 19.175781 14.125 C 19.175781 13.789062 18.949219 13.566406 18.613281 13.566406 C 18.277344 13.566406 18.054688 13.789062 18.054688 14.125 L 18.054688 16.371094 C 18.054688 16.707031 18.277344 16.929688 18.613281 16.929688 Z M 18.613281 16.929688 " fill-opacity="1" fill-rule="nonzero"/><path fill="#000000" d="M 9.582031 7.953125 C 8.683594 7.953125 7.953125 8.683594 7.953125 9.582031 L 7.953125 11.882812 C 7.953125 12.21875 8.179688 12.441406 8.515625 12.441406 C 8.851562 12.441406 9.078125 12.21875 9.078125 11.882812 L 9.078125 9.582031 C 9.078125 9.246094 9.355469 9.078125 9.582031 9.078125 L 10.757812 9.078125 C 11.097656 9.078125 11.320312 8.851562 11.320312 8.515625 C 11.320312 8.179688 11.097656 7.953125 10.757812 7.953125 Z M 9.582031 7.953125 " fill-opacity="1" fill-rule="nonzero"/><path fill="#000000" d="M 31.519531 24.226562 C 31.519531 23.886719 31.292969 23.664062 30.957031 23.664062 C 30.621094 23.664062 30.398438 23.886719 30.398438 24.226562 L 30.398438 25.347656 C 30.398438 25.683594 30.621094 25.910156 30.957031 25.910156 C 31.292969 25.910156 31.519531 25.683594 31.519531 25.347656 Z M 31.519531 24.226562 " fill-opacity="1" fill-rule="nonzero"/><path fill="#000000" d="M 30.957031 27.03125 C 30.621094 27.03125 30.398438 27.253906 30.398438 27.589844 L 30.398438 28.882812 C 30.398438 29.164062 30.171875 29.273438 30.003906 29.273438 L 28.714844 29.273438 C 28.375 29.273438 28.152344 29.5 28.152344 29.835938 C 28.152344 30.171875 28.375 30.398438 28.714844 30.398438 L 30.003906 30.398438 C 30.84375 30.398438 31.519531 29.722656 31.519531 28.882812 L 31.519531 27.589844 C 31.519531 27.253906 31.292969 27.03125 30.957031 27.03125 Z M 30.957031 27.03125 " fill-opacity="1" fill-rule="nonzero"/><path fill="#000000" d="M 19.175781 27.589844 C 19.175781 27.746094 19.121094 27.878906 19.011719 27.988281 C 18.902344 28.097656 18.769531 28.152344 18.613281 28.152344 C 18.460938 28.152344 18.328125 28.097656 18.21875 27.988281 C 18.109375 27.878906 18.054688 27.746094 18.054688 27.589844 C 18.054688 27.4375 18.109375 27.304688 18.21875 27.195312 C 18.328125 27.085938 18.460938 27.03125 18.613281 27.03125 C 18.769531 27.03125 18.902344 27.085938 19.011719 27.195312 C 19.121094 27.304688 19.175781 27.4375 19.175781 27.589844 Z M 19.175781 27.589844 " fill-opacity="1" fill-rule="nonzero"/><path fill="#000000" d="M 15.753906 27.589844 C 15.753906 27.746094 15.699219 27.878906 15.589844 27.988281 C 15.480469 28.097656 15.347656 28.152344 15.191406 28.152344 C 15.035156 28.152344 14.90625 28.097656 14.796875 27.988281 C 14.6875 27.878906 14.628906 27.746094 14.628906 27.589844 C 14.628906 27.4375 14.6875 27.304688 14.796875 27.195312 C 14.90625 27.085938 15.035156 27.03125 15.191406 27.03125 C 15.347656 27.03125 15.480469 27.085938 15.589844 27.195312 C 15.699219 27.304688 15.753906 27.4375 15.753906 27.589844 Z M 15.753906 27.589844 " fill-opacity="1" fill-rule="nonzero"/><path fill="#000000" d="M 11.320312 4.027344 C 11.320312 4.179688 11.265625 4.3125 11.15625 4.421875 C 11.046875 4.53125 10.914062 4.585938 10.757812 4.585938 C 10.605469 4.585938 10.472656 4.53125 10.363281 4.421875 C 10.253906 4.3125 10.199219 4.179688 10.199219 4.027344 C 10.199219 3.871094 10.253906 3.738281 10.363281 3.628906 C 10.472656 3.519531 10.605469 3.464844 10.757812 3.464844 C 10.914062 3.464844 11.046875 3.519531 11.15625 3.628906 C 11.265625 3.738281 11.320312 3.871094 11.320312 4.027344 Z M 11.320312 4.027344 " fill-opacity="1" fill-rule="nonzero"/><path fill="#000000" d="M 9.078125 4.027344 C 9.078125 4.179688 9.019531 4.3125 8.910156 4.421875 C 8.800781 4.53125 8.671875 4.585938 8.515625 4.585938 C 8.359375 4.585938 8.226562 4.53125 8.117188 4.421875 C 8.007812 4.3125 7.953125 4.179688 7.953125 4.027344 C 7.953125 3.871094 8.007812 3.738281 8.117188 3.628906 C 8.226562 3.519531 8.359375 3.464844 8.515625 3.464844 C 8.671875 3.464844 8.800781 3.519531 8.910156 3.628906 C 9.019531 3.738281 9.078125 3.871094 9.078125 4.027344 Z M 9.078125 4.027344 " fill-opacity="1" fill-rule="nonzero"/><path fill="#000000" d="M 13.566406 4.027344 C 13.566406 4.179688 13.511719 4.3125 13.402344 4.421875 C 13.289062 4.53125 13.160156 4.585938 13.003906 4.585938 C 12.847656 4.585938 12.714844 4.53125 12.605469 4.421875 C 12.496094 4.3125 12.441406 4.179688 12.441406 4.027344 C 12.441406 3.871094 12.496094 3.738281 12.605469 3.628906 C 12.714844 3.519531 12.847656 3.464844 13.003906 3.464844 C 13.160156 3.464844 13.289062 3.519531 13.402344 3.628906 C 13.511719 3.738281 13.566406 3.871094 13.566406 4.027344 Z M 13.566406 4.027344 " fill-opacity="1" fill-rule="nonzero"/><path fill="#000000" d="M 22.542969 27.589844 C 22.542969 27.746094 22.488281 27.878906 22.378906 27.988281 C 22.269531 28.097656 22.136719 28.152344 21.980469 28.152344 C 21.824219 28.152344 21.695312 28.097656 21.585938 27.988281 C 21.472656 27.878906 21.417969 27.746094 21.417969 27.589844 C 21.417969 27.4375 21.472656 27.304688 21.585938 27.195312 C 21.695312 27.085938 21.824219 27.03125 21.980469 27.03125 C 22.136719 27.03125 22.269531 27.085938 22.378906 27.195312 C 22.488281 27.304688 22.542969 27.4375 22.542969 27.589844 Z M 22.542969 27.589844 " fill-opacity="1" fill-rule="nonzero"/></svg>