<svg xmlns="http://www.w3.org/2000/svg" xmlns:xlink="http://www.w3.org/1999/xlink" width="50" zoomAndPan="magnify" viewBox="0 0 37.5 37.499999" height="50" preserveAspectRatio="xMidYMid meet" version="1.0"><defs><clipPath id="f3ff13197e"><path d="M 1.007812 2.101562 L 35.976562 2.101562 L 35.976562 34.90625 L 1.007812 34.90625 Z M 1.007812 2.101562 " clip-rule="nonzero"/></clipPath><clipPath id="3dc58be412"><path d="M 15.585938 5.746094 L 32.332031 5.746094 L 32.332031 13.71875 L 15.585938 13.71875 Z M 15.585938 5.746094 " clip-rule="nonzero"/></clipPath></defs><path fill="#000000" d="M 33.789062 20.324219 C 33.386719 20.324219 33.0625 20.652344 33.0625 21.054688 C 33.0625 21.457031 33.386719 21.78125 33.789062 21.78125 C 34.191406 21.78125 34.519531 21.457031 34.519531 21.054688 C 34.519531 20.652344 34.191406 20.324219 33.789062 20.324219 Z M 33.789062 20.324219 " fill-opacity="1" fill-rule="nonzero"/><path fill="#000000" d="M 33.789062 23.242188 C 33.386719 23.242188 33.0625 23.566406 33.0625 23.96875 C 33.0625 24.371094 33.386719 24.699219 33.789062 24.699219 C 34.191406 24.699219 34.519531 24.371094 34.519531 23.96875 C 34.519531 23.566406 34.191406 23.242188 33.789062 23.242188 Z M 33.789062 23.242188 " fill-opacity="1" fill-rule="nonzero"/><path fill="#000000" d="M 33.789062 26.15625 C 33.386719 26.15625 33.0625 26.484375 33.0625 26.886719 C 33.0625 27.289062 33.386719 27.617188 33.789062 27.617188 C 34.191406 27.617188 34.519531 27.289062 34.519531 26.886719 C 34.519531 26.484375 34.191406 26.15625 33.789062 26.15625 Z M 33.789062 26.15625 " fill-opacity="1" fill-rule="nonzero"/><path fill="#000000" d="M 33.789062 29.070312 C 33.386719 29.070312 33.0625 29.398438 33.0625 29.800781 C 33.0625 30.203125 33.386719 30.53125 33.789062 30.53125 C 34.191406 30.53125 34.519531 30.203125 34.519531 29.800781 C 34.519531 29.398438 34.191406 29.070312 33.789062 29.070312 Z M 33.789062 29.070312 " fill-opacity="1" fill-rule="nonzero"/><path fill="#000000" d="M 33.789062 31.988281 C 33.386719 31.988281 33.0625 32.316406 33.0625 32.71875 C 33.0625 33.121094 33.386719 33.445312 33.789062 33.445312 C 34.191406 33.445312 34.519531 33.121094 34.519531 32.71875 C 34.519531 32.316406 34.191406 31.988281 33.789062 31.988281 Z M 33.789062 31.988281 " fill-opacity="1" fill-rule="nonzero"/><path fill="#000000" d="M 30.875 31.988281 C 30.472656 31.988281 30.148438 32.316406 30.148438 32.71875 C 30.148438 33.121094 30.472656 33.445312 30.875 33.445312 C 31.277344 33.445312 31.605469 33.121094 31.605469 32.71875 C 31.605469 32.316406 31.277344 31.988281 30.875 31.988281 Z M 30.875 31.988281 " fill-opacity="1" fill-rule="nonzero"/><path fill="#000000" d="M 27.960938 31.988281 C 27.558594 31.988281 27.234375 32.316406 27.234375 32.71875 C 27.234375 33.121094 27.558594 33.445312 27.960938 33.445312 C 28.363281 33.445312 28.691406 33.121094 28.691406 32.71875 C 28.691406 32.316406 28.363281 31.988281 27.960938 31.988281 Z M 27.960938 31.988281 " fill-opacity="1" fill-rule="nonzero"/><path fill="#000000" d="M 25.046875 31.988281 C 24.644531 31.988281 24.320312 32.316406 24.320312 32.71875 C 24.320312 33.121094 24.644531 33.445312 25.046875 33.445312 C 25.449219 33.445312 25.777344 33.121094 25.777344 32.71875 C 25.777344 32.316406 25.449219 31.988281 25.046875 31.988281 Z M 25.046875 31.988281 " fill-opacity="1" fill-rule="nonzero"/><path fill="#000000" d="M 22.132812 31.988281 C 21.730469 31.988281 21.40625 32.316406 21.40625 32.71875 C 21.40625 33.121094 21.730469 33.445312 22.132812 33.445312 C 22.535156 33.445312 22.863281 33.121094 22.863281 32.71875 C 22.863281 32.316406 22.535156 31.988281 22.132812 31.988281 Z M 22.132812 31.988281 " fill-opacity="1" fill-rule="nonzero"/><path fill="#000000" d="M 19.21875 31.988281 C 18.816406 31.988281 18.492188 32.316406 18.492188 32.71875 C 18.492188 33.121094 18.816406 33.445312 19.21875 33.445312 C 19.621094 33.445312 19.949219 33.121094 19.949219 32.71875 C 19.949219 32.316406 19.621094 31.988281 19.21875 31.988281 Z M 19.21875 31.988281 " fill-opacity="1" fill-rule="nonzero"/><g clip-path="url(#f3ff13197e)"><path fill="#000000" d="M 34.519531 2.101562 L 14.121094 2.101562 C 13.316406 2.101562 12.664062 2.753906 12.664062 3.5625 L 12.664062 14.496094 L 2.464844 14.496094 C 1.660156 14.496094 1.007812 15.148438 1.007812 15.953125 L 1.007812 29.800781 C 1.007812 30.605469 1.660156 31.257812 2.464844 31.257812 L 9.332031 31.257812 L 8.707031 33.445312 L 8.292969 33.445312 C 7.890625 33.445312 7.566406 33.773438 7.566406 34.175781 C 7.566406 34.578125 7.890625 34.902344 8.292969 34.902344 L 17.035156 34.902344 C 17.4375 34.902344 17.761719 34.578125 17.761719 34.175781 C 17.761719 33.773438 17.4375 33.445312 17.035156 33.445312 L 16.617188 33.445312 L 15.992188 31.257812 L 22.863281 31.257812 C 23.667969 31.257812 24.320312 30.605469 24.320312 29.800781 L 24.320312 22.511719 L 28.691406 22.511719 C 29.09375 22.511719 29.417969 22.1875 29.417969 21.78125 C 29.417969 21.382812 29.09375 21.054688 28.691406 21.054688 L 28.273438 21.054688 L 27.648438 18.867188 L 34.519531 18.867188 C 35.320312 18.867188 35.976562 18.214844 35.976562 17.410156 L 35.976562 3.5625 C 35.976562 2.753906 35.320312 2.101562 34.519531 2.101562 Z M 10.222656 33.445312 L 10.84375 31.265625 L 14.480469 31.261719 L 15.105469 33.445312 Z M 34.519531 3.5625 L 34.519531 14.496094 L 14.121094 14.496094 L 14.121094 3.5625 Z M 13.753906 15.953125 L 22.863281 15.953125 L 22.863281 26.886719 L 2.464844 26.886719 L 2.464844 15.953125 Z M 12.664062 29.800781 L 2.464844 29.800781 L 2.464844 28.34375 L 22.863281 28.34375 L 22.863281 29.800781 Z M 24.320312 21.054688 L 24.320312 18.871094 L 26.136719 18.871094 L 26.757812 21.054688 Z M 24.320312 17.410156 L 24.320312 15.953125 L 34.519531 15.953125 L 34.519531 17.410156 Z M 24.320312 17.410156 " fill-opacity="1" fill-rule="nonzero"/></g><path fill="#000000" d="M 13.390625 29.070312 C 13.390625 28.671875 13.066406 28.34375 12.664062 28.34375 C 12.261719 28.34375 11.933594 28.671875 11.933594 29.070312 C 11.933594 29.476562 12.261719 29.800781 12.664062 29.800781 C 13.066406 29.800781 13.390625 29.476562 13.390625 29.070312 Z M 13.390625 29.070312 " fill-opacity="1" fill-rule="nonzero"/><g clip-path="url(#3dc58be412)"><path fill="#000000" d="M 19.035156 8.476562 C 19.382812 8.476562 19.734375 8.5625 20.097656 8.699219 C 20.402344 8.816406 21.007812 9.152344 21.890625 9.738281 C 21.902344 9.746094 21.910156 9.757812 21.917969 9.769531 C 21.917969 9.773438 21.917969 9.773438 21.921875 9.773438 C 22.078125 9.878906 22.199219 10.007812 22.265625 10.136719 C 22.363281 10.328125 22.34375 10.535156 22.121094 10.648438 C 22.042969 10.691406 21.933594 10.707031 21.816406 10.722656 L 21.808594 10.722656 L 20.882812 10.761719 L 20.878906 10.761719 C 20.257812 10.859375 19.910156 10.910156 19.847656 10.910156 C 19.847656 10.910156 19.847656 10.910156 19.84375 10.914062 C 19.839844 10.914062 19.839844 10.910156 19.835938 10.910156 L 19.832031 10.910156 C 19.71875 10.925781 19.609375 10.929688 19.503906 10.929688 C 18.964844 10.929688 18.503906 10.757812 18.171875 10.367188 C 17.855469 10.003906 17.773438 9.574219 17.886719 9.15625 C 17.992188 8.773438 18.308594 8.550781 18.777344 8.492188 C 18.863281 8.480469 18.949219 8.476562 19.035156 8.476562 Z M 28.359375 11.042969 Z M 28.359375 11.042969 L 28.359375 11.046875 Z M 28.449219 8.828125 C 28.523438 8.828125 28.59375 8.828125 28.664062 8.835938 C 29.109375 8.875 29.464844 9.023438 29.664062 9.328125 C 29.875 9.660156 29.832031 10.039062 29.628906 10.429688 C 29.417969 10.847656 29.035156 11.046875 28.496094 11.046875 C 28.453125 11.046875 28.40625 11.046875 28.359375 11.042969 L 28.363281 11.046875 L 28.359375 11.046875 L 28.359375 11.050781 L 28.359375 11.046875 L 28.359375 11.050781 L 28.359375 11.042969 L 28.355469 11.042969 C 28.351562 11.042969 28.351562 11.042969 28.351562 11.042969 C 28.347656 11.042969 28.347656 11.042969 28.34375 11.042969 C 28.339844 11.042969 28.339844 11.042969 28.339844 11.042969 C 28.339844 11.042969 28.335938 11.042969 28.335938 11.042969 C 28.335938 11.042969 28.332031 11.042969 28.332031 11.042969 C 28.332031 11.042969 28.332031 11.042969 28.328125 11.042969 C 28.261719 11.039062 28.1875 11.035156 28.117188 11.019531 C 27.636719 10.933594 27.324219 10.882812 27.167969 10.867188 C 27.054688 10.855469 26.703125 10.828125 26.105469 10.792969 C 25.996094 10.789062 25.902344 10.769531 25.828125 10.75 C 25.554688 10.679688 25.460938 10.476562 25.519531 10.253906 C 25.53125 10.199219 25.554688 10.148438 25.582031 10.09375 C 25.585938 10.085938 25.59375 10.078125 25.597656 10.074219 C 25.601562 10.074219 25.601562 10.070312 25.601562 10.070312 C 25.605469 10.058594 25.609375 10.050781 25.617188 10.042969 C 25.859375 9.765625 26.320312 9.449219 27.011719 9.15625 C 27.550781 8.925781 28.035156 8.828125 28.449219 8.828125 Z M 17.488281 5.761719 C 16.753906 5.761719 16.285156 5.960938 16.078125 6.335938 C 15.589844 7.210938 15.605469 8.554688 16.199219 10.324219 C 16.898438 12.417969 17.761719 13.410156 18.65625 13.542969 C 18.960938 13.589844 19.246094 13.617188 19.511719 13.617188 C 19.878906 13.617188 20.214844 13.5625 20.519531 13.433594 C 20.527344 13.429688 20.535156 13.429688 20.546875 13.429688 C 20.773438 13.425781 21.535156 12.898438 22.9375 11.871094 C 23.207031 11.675781 23.503906 11.613281 23.757812 11.597656 C 23.777344 11.597656 23.800781 11.597656 23.820312 11.597656 C 24.070312 11.597656 24.320312 11.675781 24.574219 11.808594 L 24.582031 11.816406 L 26.363281 13.160156 C 26.746094 13.410156 27.113281 13.558594 27.457031 13.636719 C 27.65625 13.679688 27.851562 13.703125 28.046875 13.703125 C 28.710938 13.703125 29.351562 13.4375 29.953125 12.863281 C 30.996094 11.863281 31.699219 10.601562 32.035156 9.117188 C 32.335938 7.808594 32.109375 6.785156 31.382812 6.132812 C 31.160156 5.933594 30.839844 5.839844 30.429688 5.839844 C 30.09375 5.839844 29.695312 5.902344 29.246094 6.03125 C 28.988281 6.101562 28.707031 6.203125 28.421875 6.359375 C 27.246094 7.007812 26.429688 7.453125 25.953125 7.671875 C 25.335938 7.949219 24.757812 8.175781 24.210938 8.339844 C 24.210938 8.339844 24.207031 8.339844 24.207031 8.339844 C 24.203125 8.339844 24.195312 8.34375 24.191406 8.34375 C 24.023438 8.355469 23.851562 8.367188 23.675781 8.367188 C 23.300781 8.367188 22.921875 8.320312 22.582031 8.15625 L 22.574219 8.148438 L 20.089844 6.464844 C 19.59375 6.183594 19.132812 5.984375 18.699219 5.894531 C 18.234375 5.804688 17.832031 5.761719 17.488281 5.761719 Z M 17.488281 5.761719 " fill-opacity="0.996" fill-rule="nonzero"/></g></svg>