<svg xmlns="http://www.w3.org/2000/svg" xmlns:xlink="http://www.w3.org/1999/xlink" width="50" zoomAndPan="magnify" viewBox="0 0 37.5 37.499999" height="50" preserveAspectRatio="xMidYMid meet" version="1.0"><defs><clipPath id="e12b7040c8"><path d="M 0.847656 0.847656 L 36.375 0.847656 L 36.375 36.375 L 0.847656 36.375 Z M 0.847656 0.847656 " clip-rule="nonzero"/></clipPath><clipPath id="398c2b5456"><path d="M 12 14 L 25 14 L 25 24.820312 L 12 24.820312 Z M 12 14 " clip-rule="nonzero"/></clipPath><clipPath id="41a9bf747d"><path d="M 17 12.238281 L 21 12.238281 L 21 16 L 17 16 Z M 17 12.238281 " clip-rule="nonzero"/></clipPath><clipPath id="2d97a71c01"><path d="M 11.511719 19 L 25.574219 19 L 25.574219 24.820312 L 11.511719 24.820312 Z M 11.511719 19 " clip-rule="nonzero"/></clipPath><clipPath id="7b292c90d7"><path d="M 11.511719 12.238281 L 25.574219 12.238281 L 25.574219 24.820312 L 11.511719 24.820312 Z M 11.511719 12.238281 " clip-rule="nonzero"/></clipPath><clipPath id="f5113880ed"><path d="M 11.511719 12.238281 L 12 12.238281 L 12 17 L 11.511719 17 Z M 11.511719 12.238281 " clip-rule="nonzero"/></clipPath></defs><path fill="#000000" d="M 9.121094 28.683594 L 28.039062 28.683594 C 28.207031 28.683594 28.351562 28.621094 28.46875 28.503906 C 28.585938 28.386719 28.644531 28.242188 28.644531 28.078125 L 28.644531 9.183594 C 28.644531 9.015625 28.585938 8.871094 28.46875 8.753906 C 28.351562 8.636719 28.207031 8.578125 28.039062 8.578125 L 9.121094 8.578125 C 8.953125 8.578125 8.8125 8.636719 8.695312 8.753906 C 8.574219 8.871094 8.515625 9.015625 8.515625 9.183594 L 8.515625 28.101562 C 8.523438 28.261719 8.585938 28.402344 8.703125 28.511719 C 8.820312 28.625 8.957031 28.683594 9.121094 28.683594 Z M 9.726562 9.769531 L 27.453125 9.769531 L 27.453125 27.515625 L 9.707031 27.515625 Z M 9.726562 9.769531 " fill-opacity="1" fill-rule="nonzero"/><g clip-path="url(#e12b7040c8)"><path fill="#000000" d="M 35.527344 10.804688 C 35.617188 10.828125 35.710938 10.832031 35.800781 10.8125 C 35.894531 10.796875 35.980469 10.757812 36.054688 10.699219 C 36.128906 10.644531 36.1875 10.574219 36.226562 10.488281 C 36.269531 10.402344 36.292969 10.3125 36.292969 10.21875 C 36.292969 10.125 36.269531 10.035156 36.226562 9.953125 C 36.1875 9.867188 36.128906 9.796875 36.054688 9.738281 C 35.980469 9.683594 35.894531 9.644531 35.800781 9.625 C 35.710938 9.609375 35.617188 9.609375 35.527344 9.636719 L 32.113281 9.636719 L 32.113281 5.695312 C 32.113281 5.527344 32.054688 5.386719 31.9375 5.269531 C 31.816406 5.148438 31.675781 5.089844 31.507812 5.089844 L 27.585938 5.089844 L 27.585938 1.695312 C 27.621094 1.601562 27.628906 1.507812 27.617188 1.410156 C 27.605469 1.3125 27.570312 1.222656 27.511719 1.140625 C 27.457031 1.0625 27.382812 0.996094 27.296875 0.953125 C 27.210938 0.90625 27.117188 0.882812 27.019531 0.882812 C 26.917969 0.882812 26.824219 0.90625 26.738281 0.953125 C 26.652344 0.996094 26.578125 1.0625 26.523438 1.140625 C 26.464844 1.222656 26.429688 1.3125 26.417969 1.410156 C 26.40625 1.507812 26.414062 1.601562 26.449219 1.695312 L 26.449219 5.109375 L 23.421875 5.109375 L 23.421875 1.695312 C 23.421875 1.527344 23.363281 1.386719 23.246094 1.265625 C 23.128906 1.148438 22.984375 1.089844 22.816406 1.089844 C 22.652344 1.089844 22.507812 1.148438 22.390625 1.265625 C 22.269531 1.386719 22.210938 1.527344 22.210938 1.695312 L 22.210938 5.109375 L 19.1875 5.109375 L 19.1875 1.695312 C 19.1875 1.527344 19.128906 1.386719 19.007812 1.265625 C 18.890625 1.148438 18.75 1.089844 18.582031 1.089844 C 18.414062 1.089844 18.269531 1.148438 18.152344 1.265625 C 18.035156 1.386719 17.976562 1.527344 17.976562 1.695312 L 17.976562 5.109375 L 14.949219 5.109375 L 14.949219 1.695312 C 14.972656 1.605469 14.976562 1.511719 14.960938 1.421875 C 14.941406 1.328125 14.902344 1.242188 14.847656 1.167969 C 14.789062 1.09375 14.71875 1.035156 14.632812 0.996094 C 14.550781 0.953125 14.460938 0.929688 14.367188 0.929688 C 14.269531 0.929688 14.183594 0.953125 14.097656 0.996094 C 14.011719 1.035156 13.941406 1.09375 13.886719 1.167969 C 13.828125 1.242188 13.789062 1.328125 13.773438 1.421875 C 13.753906 1.511719 13.757812 1.605469 13.78125 1.695312 L 13.78125 5.109375 L 10.753906 5.109375 L 10.753906 1.695312 C 10.78125 1.605469 10.785156 1.511719 10.765625 1.421875 C 10.746094 1.328125 10.710938 1.242188 10.652344 1.167969 C 10.59375 1.09375 10.523438 1.035156 10.441406 0.996094 C 10.355469 0.953125 10.265625 0.929688 10.171875 0.929688 C 10.078125 0.929688 9.988281 0.953125 9.902344 0.996094 C 9.820312 1.035156 9.746094 1.09375 9.691406 1.167969 C 9.632812 1.242188 9.597656 1.328125 9.578125 1.421875 C 9.558594 1.511719 9.5625 1.605469 9.585938 1.695312 L 9.585938 5.109375 L 5.636719 5.109375 C 5.46875 5.109375 5.324219 5.167969 5.207031 5.285156 C 5.089844 5.40625 5.03125 5.546875 5.03125 5.714844 L 5.03125 9.652344 L 1.636719 9.652344 C 1.542969 9.628906 1.453125 9.625 1.359375 9.644531 C 1.265625 9.664062 1.183594 9.699219 1.109375 9.757812 C 1.035156 9.816406 0.976562 9.886719 0.933594 9.96875 C 0.890625 10.054688 0.871094 10.144531 0.871094 10.238281 C 0.871094 10.332031 0.890625 10.421875 0.933594 10.507812 C 0.976562 10.589844 1.035156 10.660156 1.109375 10.71875 C 1.183594 10.777344 1.265625 10.8125 1.359375 10.832031 C 1.453125 10.851562 1.542969 10.847656 1.636719 10.820312 L 5.046875 10.820312 L 5.046875 13.847656 L 1.636719 13.847656 C 1.542969 13.820312 1.449219 13.816406 1.355469 13.832031 C 1.261719 13.851562 1.179688 13.886719 1.101562 13.945312 C 1.027344 14.003906 0.964844 14.074219 0.925781 14.160156 C 0.882812 14.242188 0.859375 14.332031 0.859375 14.429688 C 0.859375 14.523438 0.882812 14.613281 0.925781 14.699219 C 0.964844 14.785156 1.027344 14.855469 1.101562 14.914062 C 1.179688 14.96875 1.261719 15.007812 1.355469 15.023438 C 1.449219 15.042969 1.542969 15.035156 1.636719 15.011719 L 5.046875 15.011719 L 5.046875 18.035156 L 1.636719 18.035156 C 1.46875 18.035156 1.324219 18.09375 1.207031 18.214844 C 1.089844 18.332031 1.03125 18.472656 1.03125 18.640625 C 1.03125 18.808594 1.089844 18.953125 1.207031 19.070312 C 1.324219 19.1875 1.46875 19.246094 1.636719 19.246094 L 5.046875 19.246094 L 5.046875 22.273438 L 1.636719 22.273438 C 1.542969 22.25 1.453125 22.246094 1.359375 22.261719 C 1.265625 22.28125 1.183594 22.320312 1.109375 22.375 C 1.035156 22.433594 0.976562 22.503906 0.933594 22.589844 C 0.890625 22.671875 0.871094 22.761719 0.871094 22.855469 C 0.871094 22.949219 0.890625 23.039062 0.933594 23.125 C 0.976562 23.210938 1.035156 23.28125 1.109375 23.335938 C 1.183594 23.394531 1.265625 23.433594 1.359375 23.449219 C 1.453125 23.46875 1.542969 23.464844 1.636719 23.441406 L 5.046875 23.441406 L 5.046875 26.46875 L 1.636719 26.46875 C 1.542969 26.441406 1.453125 26.4375 1.359375 26.457031 C 1.265625 26.476562 1.183594 26.511719 1.109375 26.570312 C 1.035156 26.628906 0.976562 26.699219 0.933594 26.78125 C 0.890625 26.867188 0.871094 26.957031 0.871094 27.050781 C 0.871094 27.144531 0.890625 27.234375 0.933594 27.320312 C 0.976562 27.402344 1.035156 27.472656 1.109375 27.53125 C 1.183594 27.589844 1.265625 27.625 1.359375 27.644531 C 1.453125 27.664062 1.542969 27.660156 1.636719 27.636719 L 5.046875 27.636719 L 5.046875 31.574219 C 5.046875 31.742188 5.109375 31.886719 5.226562 32.003906 C 5.34375 32.121094 5.488281 32.179688 5.652344 32.179688 L 9.59375 32.179688 L 9.59375 35.585938 C 9.570312 35.679688 9.566406 35.769531 9.582031 35.863281 C 9.601562 35.957031 9.640625 36.039062 9.695312 36.113281 C 9.753906 36.1875 9.824219 36.246094 9.910156 36.289062 C 9.992188 36.332031 10.082031 36.351562 10.175781 36.351562 C 10.273438 36.351562 10.359375 36.332031 10.445312 36.289062 C 10.53125 36.246094 10.601562 36.1875 10.660156 36.113281 C 10.714844 36.039062 10.753906 35.957031 10.769531 35.863281 C 10.789062 35.769531 10.785156 35.679688 10.761719 35.585938 L 10.761719 32.175781 L 13.789062 32.175781 L 13.789062 35.585938 C 13.761719 35.679688 13.757812 35.773438 13.773438 35.867188 C 13.789062 35.960938 13.828125 36.042969 13.882812 36.121094 C 13.941406 36.195312 14.011719 36.253906 14.097656 36.296875 C 14.183594 36.339844 14.273438 36.363281 14.367188 36.363281 C 14.464844 36.363281 14.554688 36.339844 14.640625 36.296875 C 14.722656 36.253906 14.796875 36.195312 14.851562 36.121094 C 14.910156 36.042969 14.945312 35.960938 14.964844 35.867188 C 14.980469 35.773438 14.976562 35.679688 14.949219 35.585938 L 14.949219 32.175781 L 17.976562 32.175781 L 17.976562 35.585938 C 17.976562 35.753906 18.035156 35.898438 18.152344 36.015625 C 18.269531 36.132812 18.414062 36.191406 18.582031 36.191406 C 18.75 36.191406 18.890625 36.132812 19.007812 36.015625 C 19.128906 35.898438 19.1875 35.753906 19.1875 35.585938 L 19.1875 32.175781 L 22.210938 32.175781 L 22.210938 35.585938 C 22.1875 35.679688 22.183594 35.769531 22.203125 35.863281 C 22.21875 35.957031 22.257812 36.039062 22.316406 36.113281 C 22.371094 36.1875 22.445312 36.246094 22.527344 36.289062 C 22.613281 36.332031 22.703125 36.351562 22.796875 36.351562 C 22.890625 36.351562 22.980469 36.332031 23.066406 36.289062 C 23.148438 36.246094 23.21875 36.1875 23.277344 36.113281 C 23.335938 36.039062 23.371094 35.957031 23.390625 35.863281 C 23.410156 35.769531 23.40625 35.679688 23.378906 35.585938 L 23.378906 32.175781 L 26.40625 32.175781 L 26.40625 35.585938 C 26.382812 35.679688 26.378906 35.769531 26.398438 35.863281 C 26.414062 35.957031 26.453125 36.039062 26.507812 36.113281 C 26.566406 36.1875 26.636719 36.246094 26.722656 36.289062 C 26.808594 36.332031 26.894531 36.351562 26.992188 36.351562 C 27.085938 36.351562 27.175781 36.332031 27.257812 36.289062 C 27.34375 36.246094 27.414062 36.1875 27.472656 36.113281 C 27.527344 36.039062 27.566406 35.957031 27.585938 35.863281 C 27.601562 35.769531 27.597656 35.679688 27.574219 35.585938 L 27.574219 32.175781 L 31.515625 32.175781 C 31.683594 32.175781 31.824219 32.113281 31.941406 31.996094 C 32.0625 31.878906 32.121094 31.734375 32.121094 31.570312 L 32.121094 27.648438 L 35.527344 27.648438 C 35.621094 27.679688 35.714844 27.691406 35.8125 27.679688 C 35.910156 27.664062 36 27.628906 36.082031 27.574219 C 36.160156 27.515625 36.226562 27.445312 36.269531 27.359375 C 36.316406 27.269531 36.339844 27.175781 36.339844 27.078125 C 36.339844 26.980469 36.316406 26.886719 36.269531 26.800781 C 36.226562 26.710938 36.160156 26.640625 36.082031 26.582031 C 36 26.527344 35.910156 26.492188 35.8125 26.476562 C 35.714844 26.464844 35.621094 26.476562 35.527344 26.507812 L 32.113281 26.507812 L 32.113281 23.484375 L 35.527344 23.484375 C 35.695312 23.484375 35.835938 23.425781 35.957031 23.304688 C 36.074219 23.1875 36.132812 23.046875 36.132812 22.878906 C 36.132812 22.710938 36.074219 22.566406 35.957031 22.449219 C 35.835938 22.332031 35.695312 22.273438 35.527344 22.273438 L 32.113281 22.273438 L 32.113281 19.246094 L 35.527344 19.246094 C 35.695312 19.246094 35.835938 19.1875 35.957031 19.070312 C 36.074219 18.953125 36.132812 18.808594 36.132812 18.640625 C 36.132812 18.472656 36.074219 18.332031 35.957031 18.214844 C 35.835938 18.09375 35.695312 18.035156 35.527344 18.035156 L 32.113281 18.035156 L 32.113281 15.011719 L 35.527344 15.011719 C 35.617188 15.035156 35.710938 15.039062 35.800781 15.019531 C 35.894531 15.003906 35.980469 14.964844 36.054688 14.90625 C 36.128906 14.851562 36.1875 14.777344 36.226562 14.695312 C 36.269531 14.609375 36.292969 14.519531 36.292969 14.425781 C 36.292969 14.332031 36.269531 14.242188 36.226562 14.15625 C 36.1875 14.074219 36.128906 14.003906 36.054688 13.945312 C 35.980469 13.886719 35.894531 13.851562 35.800781 13.832031 C 35.710938 13.8125 35.617188 13.816406 35.527344 13.84375 L 32.113281 13.84375 L 32.113281 10.816406 Z M 30.941406 31 L 6.222656 31 L 6.222656 6.28125 L 30.941406 6.28125 Z M 30.941406 31 " fill-opacity="1" fill-rule="nonzero"/></g><g clip-path="url(#398c2b5456)"><path fill="#000000" d="M 12.441406 24.035156 C 12.441406 24.371094 12.664062 24.597656 13 24.597656 C 13.339844 24.597656 13.5625 24.371094 13.5625 24.035156 C 13.5625 23.082031 14.292969 22.351562 15.246094 22.351562 L 16.367188 22.351562 C 16.425781 22.464844 16.535156 22.578125 16.59375 22.632812 C 16.816406 22.855469 17.152344 22.855469 17.378906 22.632812 C 17.601562 22.410156 17.601562 22.070312 17.378906 21.847656 C 17.097656 21.511719 16.929688 21.117188 16.929688 20.667969 L 16.929688 18.425781 C 16.929688 17.472656 17.660156 16.742188 18.613281 16.742188 C 19.566406 16.742188 20.296875 17.472656 20.296875 18.425781 L 20.296875 20.667969 C 20.296875 21.621094 19.566406 22.351562 18.613281 22.351562 C 18.277344 22.351562 18.050781 22.578125 18.050781 22.914062 C 18.050781 23.25 18.277344 23.472656 18.613281 23.472656 C 19.511719 23.472656 20.351562 23.027344 20.855469 22.351562 L 21.980469 22.351562 C 22.933594 22.351562 23.660156 23.082031 23.660156 24.035156 C 23.660156 24.371094 23.886719 24.597656 24.222656 24.597656 C 24.558594 24.597656 24.785156 24.371094 24.785156 24.035156 C 24.785156 22.464844 23.550781 21.230469 21.980469 21.230469 L 21.363281 21.230469 C 21.417969 21.0625 21.417969 20.835938 21.417969 20.667969 L 21.417969 20.109375 L 24.222656 20.109375 C 24.558594 20.109375 24.785156 19.882812 24.785156 19.546875 C 24.785156 19.210938 24.558594 18.984375 24.222656 18.984375 L 21.417969 18.984375 C 21.417969 18.984375 21.417969 18.03125 21.363281 17.863281 C 21.363281 17.863281 24.617188 18.257812 24.785156 15.058594 C 24.785156 14.722656 24.558594 14.496094 24.222656 14.496094 C 23.886719 14.496094 23.660156 14.722656 23.660156 15.058594 C 23.660156 16.011719 22.933594 16.742188 21.980469 16.742188 L 20.855469 16.742188 C 20.351562 16.070312 19.566406 15.621094 18.613281 15.621094 C 17.660156 15.621094 16.875 16.070312 16.367188 16.742188 L 15.246094 16.742188 C 14.292969 16.742188 13.5625 16.011719 13.5625 15.058594 C 13.5625 14.722656 13.339844 14.496094 13 14.496094 C 12.664062 14.496094 12.441406 14.722656 12.441406 15.058594 C 12.441406 16.628906 13.675781 17.863281 15.246094 17.863281 L 15.863281 17.863281 C 15.808594 18.03125 15.808594 18.984375 15.808594 18.984375 L 13 18.984375 C 12.664062 18.984375 12.441406 19.210938 12.441406 19.546875 C 12.441406 19.882812 12.664062 20.109375 13 20.109375 L 15.808594 20.109375 L 15.808594 20.667969 C 15.808594 20.835938 15.808594 21.0625 15.863281 21.230469 L 15.246094 21.230469 C 13.675781 21.230469 12.441406 22.464844 12.441406 24.035156 Z M 12.441406 24.035156 " fill-opacity="1" fill-rule="nonzero"/></g><g clip-path="url(#41a9bf747d)"><path fill="#000000" d="M 19.957031 12.308594 C 19.679688 12.195312 19.339844 12.308594 19.230469 12.589844 L 18.894531 13.429688 C 18.78125 13.375 18.5 13.375 18.386719 13.429688 L 18.050781 12.589844 C 17.9375 12.308594 17.601562 12.195312 17.320312 12.308594 C 17.042969 12.421875 16.929688 12.757812 17.042969 13.039062 L 17.433594 13.9375 C 17.378906 14.046875 17.265625 14.105469 17.210938 14.21875 C 17.042969 14.496094 17.152344 14.835938 17.433594 15.003906 C 17.714844 15.171875 18.050781 15.058594 18.21875 14.777344 C 18.445312 14.441406 19.003906 14.441406 19.171875 14.777344 C 19.453125 15.339844 20.464844 14.722656 20.183594 14.21875 C 20.128906 14.105469 20.070312 14.046875 19.957031 13.9375 L 20.351562 13.039062 C 20.351562 12.757812 20.351562 12.476562 19.957031 12.308594 Z M 19.957031 12.308594 " fill-opacity="1" fill-rule="nonzero"/></g><g clip-path="url(#2d97a71c01)"><path fill="#000000" d="M 35.445312 35.816406 L 33.761719 35.816406 L 33.761719 20.726562 C 33.761719 20.277344 33.59375 19.828125 33.257812 19.492188 C 33.03125 19.265625 32.695312 19.265625 32.472656 19.492188 C 32.246094 19.714844 32.246094 20.050781 32.472656 20.277344 C 32.582031 20.386719 32.640625 20.558594 32.640625 20.726562 L 32.640625 35.816406 L 21.417969 35.816406 C 20.746094 35.816406 20.296875 36.265625 20.296875 36.941406 L 16.929688 36.941406 C 16.929688 36.265625 16.480469 35.816406 15.808594 35.816406 L 4.585938 35.816406 L 4.585938 30.710938 C 4.585938 30.375 4.359375 30.152344 4.023438 30.152344 C 3.6875 30.152344 3.464844 30.375 3.464844 30.710938 L 3.464844 35.816406 L 1.78125 35.816406 C 1.445312 35.816406 1.21875 36.042969 1.21875 36.378906 C 1.21875 38.566406 2.957031 40.304688 5.148438 40.304688 L 8.792969 40.304688 C 9.128906 40.304688 9.355469 40.082031 9.355469 39.746094 C 9.355469 39.410156 9.128906 39.183594 8.792969 39.183594 L 5.148438 39.183594 C 3.800781 39.183594 2.679688 38.230469 2.398438 36.941406 L 15.808594 36.941406 C 15.808594 37.613281 16.257812 38.0625 16.929688 38.0625 L 20.296875 38.0625 C 20.96875 38.0625 21.417969 37.613281 21.417969 36.941406 L 34.828125 36.941406 C 34.546875 38.230469 33.425781 39.183594 32.078125 39.183594 L 14.234375 39.183594 C 13.898438 39.183594 13.675781 39.410156 13.675781 39.746094 C 13.675781 40.082031 13.898438 40.304688 14.234375 40.304688 L 32.078125 40.304688 C 34.265625 40.304688 36.003906 38.566406 36.003906 36.378906 C 36.003906 36.042969 35.78125 35.816406 35.445312 35.816406 Z M 35.445312 35.816406 " fill-opacity="1" fill-rule="nonzero"/></g><g clip-path="url(#7b292c90d7)"><path fill="#000000" d="M 7.445312 26.839844 L 8.960938 26.839844 C 9.296875 26.839844 9.523438 26.617188 9.523438 26.28125 C 9.523438 25.941406 9.296875 25.71875 8.960938 25.71875 L 7.445312 25.71875 C 7.109375 25.71875 6.828125 25.4375 6.828125 25.101562 L 6.828125 11.132812 L 30.394531 11.132812 L 30.394531 25.101562 C 30.394531 25.4375 30.113281 25.71875 29.777344 25.71875 L 12.609375 25.71875 C 12.273438 25.71875 12.046875 25.941406 12.046875 26.28125 C 12.046875 26.617188 12.273438 26.839844 12.609375 26.839844 L 29.777344 26.839844 C 30.730469 26.839844 31.515625 26.054688 31.515625 25.101562 L 31.515625 7.257812 C 31.515625 6.304688 30.730469 5.519531 29.777344 5.519531 L 25.402344 5.519531 C 25.066406 5.519531 24.839844 5.746094 24.839844 6.082031 C 24.839844 6.417969 25.066406 6.640625 25.402344 6.640625 L 29.777344 6.640625 C 30.113281 6.640625 30.394531 6.921875 30.394531 7.257812 L 30.394531 10.007812 L 6.828125 10.007812 L 6.828125 7.257812 C 6.828125 6.921875 7.109375 6.640625 7.445312 6.640625 L 23.15625 6.640625 C 23.492188 6.640625 23.71875 6.417969 23.71875 6.082031 C 23.71875 5.746094 23.492188 5.519531 23.15625 5.519531 L 7.445312 5.519531 C 6.492188 5.519531 5.707031 6.304688 5.707031 7.257812 L 5.707031 25.101562 C 5.707031 26.054688 6.492188 26.839844 7.445312 26.839844 Z M 7.445312 26.839844 " fill-opacity="1" fill-rule="nonzero"/></g><path fill="#000000" d="M 18.613281 21.230469 C 18.949219 21.230469 19.171875 21.003906 19.171875 20.667969 L 19.171875 18.425781 C 19.171875 18.089844 18.949219 17.863281 18.613281 17.863281 C 18.277344 17.863281 18.050781 18.089844 18.050781 18.425781 L 18.050781 20.667969 C 18.050781 21.003906 18.277344 21.230469 18.613281 21.230469 Z M 18.613281 21.230469 " fill-opacity="1" fill-rule="nonzero"/><g clip-path="url(#f5113880ed)"><path fill="#000000" d="M 9.578125 12.253906 C 8.679688 12.253906 7.953125 12.984375 7.953125 13.878906 L 7.953125 16.179688 C 7.953125 16.515625 8.175781 16.742188 8.511719 16.742188 C 8.851562 16.742188 9.074219 16.515625 9.074219 16.179688 L 9.074219 13.878906 C 9.074219 13.542969 9.355469 13.375 9.578125 13.375 L 10.757812 13.375 C 11.09375 13.375 11.320312 13.152344 11.320312 12.8125 C 11.320312 12.476562 11.09375 12.253906 10.757812 12.253906 Z M 9.578125 12.253906 " fill-opacity="1" fill-rule="nonzero"/></g></svg>