<svg xmlns="http://www.w3.org/2000/svg" xmlns:xlink="http://www.w3.org/1999/xlink" width="50" zoomAndPan="magnify" viewBox="0 0 37.5 37.499999" height="50" preserveAspectRatio="xMidYMid meet" version="1.0"><defs><clipPath id="366874c4cd"><path d="M 2.683594 0.925781 L 34.507812 0.925781 L 34.507812 36.453125 L 2.683594 36.453125 Z M 2.683594 0.925781 " clip-rule="nonzero"/></clipPath></defs><g clip-path="url(#366874c4cd)"><path fill="#000000" d="M 12.113281 13.359375 L 12.113281 11.582031 C 12.113281 11.316406 12.234375 11.136719 12.476562 11.039062 C 12.71875 10.9375 12.933594 10.976562 13.121094 11.164062 L 14.890625 12.9375 C 15.003906 13.054688 15.0625 13.195312 15.0625 13.359375 C 15.0625 13.523438 15.007812 13.664062 14.890625 13.78125 C 14.773438 13.898438 14.632812 13.957031 14.472656 13.957031 C 14.308594 13.957031 14.167969 13.898438 14.050781 13.78125 L 13.292969 13.011719 L 13.292969 13.359375 C 13.292969 13.710938 13.328125 14.054688 13.394531 14.398438 C 13.464844 14.742188 13.5625 15.074219 13.699219 15.398438 C 13.832031 15.71875 13.996094 16.027344 14.1875 16.316406 C 14.382812 16.609375 14.601562 16.878906 14.847656 17.125 C 15.09375 17.371094 15.363281 17.59375 15.652344 17.789062 C 15.941406 17.980469 16.246094 18.144531 16.566406 18.28125 C 16.890625 18.414062 17.21875 18.515625 17.5625 18.585938 C 17.902344 18.652344 18.246094 18.6875 18.597656 18.6875 C 18.757812 18.6875 18.898438 18.746094 19.011719 18.863281 C 19.128906 18.976562 19.183594 19.117188 19.183594 19.28125 C 19.183594 19.445312 19.128906 19.582031 19.011719 19.699219 C 18.898438 19.816406 18.757812 19.871094 18.597656 19.871094 C 18.171875 19.871094 17.75 19.832031 17.332031 19.746094 C 16.914062 19.664062 16.507812 19.539062 16.117188 19.375 C 15.722656 19.210938 15.347656 19.011719 14.996094 18.773438 C 14.640625 18.535156 14.3125 18.265625 14.011719 17.964844 C 13.710938 17.660156 13.441406 17.332031 13.207031 16.976562 C 12.96875 16.621094 12.769531 16.246094 12.605469 15.851562 C 12.445312 15.457031 12.320312 15.050781 12.238281 14.628906 C 12.15625 14.210938 12.113281 13.785156 12.113281 13.359375 Z M 34.507812 18.097656 L 34.507812 33.492188 C 34.507812 33.882812 34.433594 34.261719 34.285156 34.625 C 34.132812 34.988281 33.921875 35.304688 33.644531 35.585938 C 33.367188 35.863281 33.050781 36.074219 32.6875 36.226562 C 32.328125 36.375 31.953125 36.453125 31.5625 36.453125 L 5.628906 36.453125 C 5.238281 36.453125 4.863281 36.375 4.503906 36.226562 C 4.140625 36.074219 3.824219 35.863281 3.546875 35.585938 C 3.269531 35.304688 3.058594 34.988281 2.90625 34.625 C 2.757812 34.261719 2.683594 33.882812 2.683594 33.492188 L 2.683594 18.097656 C 2.683594 17.703125 2.757812 17.324219 2.90625 16.964844 C 3.058594 16.601562 3.269531 16.28125 3.546875 16.003906 C 3.824219 15.726562 4.140625 15.511719 4.503906 15.363281 C 4.863281 15.210938 5.238281 15.136719 5.628906 15.136719 L 10.34375 15.136719 C 10.507812 15.136719 10.644531 15.195312 10.761719 15.308594 C 10.875 15.425781 10.933594 15.5625 10.933594 15.726562 C 10.933594 15.890625 10.875 16.03125 10.761719 16.144531 C 10.644531 16.261719 10.507812 16.320312 10.34375 16.320312 L 5.628906 16.320312 C 5.441406 16.324219 5.253906 16.355469 5.074219 16.421875 L 17.914062 26.734375 C 18.113281 26.890625 18.339844 26.96875 18.597656 26.96875 C 18.851562 26.96875 19.078125 26.890625 19.28125 26.734375 L 32.117188 16.421875 C 31.9375 16.355469 31.753906 16.324219 31.5625 16.320312 L 16.238281 16.320312 C 16.074219 16.320312 15.9375 16.261719 15.820312 16.144531 C 15.707031 16.03125 15.648438 15.890625 15.648438 15.726562 C 15.648438 15.5625 15.707031 15.425781 15.820312 15.308594 C 15.9375 15.195312 16.074219 15.136719 16.238281 15.136719 L 23.589844 15.136719 C 23.796875 14.5625 23.898438 13.96875 23.898438 13.359375 C 23.898438 12.789062 23.804688 12.230469 23.625 11.6875 C 23.445312 11.144531 23.1875 10.644531 22.847656 10.183594 C 22.507812 9.726562 22.105469 9.332031 21.640625 9 C 21.175781 8.671875 20.671875 8.421875 20.128906 8.253906 C 19.824219 8.164062 19.539062 8.03125 19.277344 7.847656 C 19.015625 7.667969 18.789062 7.449219 18.597656 7.191406 C 18.40625 6.9375 18.257812 6.65625 18.160156 6.355469 C 18.058594 6.050781 18.007812 5.738281 18.007812 5.417969 L 18.007812 4.367188 C 17.875 4.324219 17.753906 4.261719 17.636719 4.1875 C 17.519531 4.109375 17.414062 4.023438 17.320312 3.921875 C 17.222656 3.824219 17.140625 3.710938 17.070312 3.59375 C 17 3.472656 16.945312 3.347656 16.90625 3.214844 C 16.863281 3.082031 16.839844 2.945312 16.832031 2.808594 C 16.824219 2.667969 16.828125 2.53125 16.851562 2.394531 C 16.875 2.257812 16.914062 2.125 16.96875 1.996094 C 17.023438 1.867188 17.09375 1.75 17.175781 1.636719 C 17.257812 1.527344 17.351562 1.425781 17.457031 1.335938 C 17.5625 1.246094 17.675781 1.171875 17.800781 1.109375 C 17.921875 1.046875 18.050781 0.996094 18.1875 0.964844 C 18.320312 0.933594 18.457031 0.917969 18.597656 0.917969 C 18.734375 0.917969 18.871094 0.933594 19.003906 0.964844 C 19.140625 0.996094 19.269531 1.046875 19.390625 1.109375 C 19.515625 1.171875 19.628906 1.246094 19.734375 1.335938 C 19.839844 1.425781 19.933594 1.527344 20.015625 1.636719 C 20.097656 1.75 20.167969 1.867188 20.222656 1.996094 C 20.277344 2.125 20.316406 2.257812 20.339844 2.394531 C 20.363281 2.53125 20.367188 2.667969 20.359375 2.808594 C 20.351562 2.945312 20.328125 3.082031 20.285156 3.214844 C 20.246094 3.347656 20.191406 3.472656 20.121094 3.59375 C 20.050781 3.710938 19.96875 3.824219 19.871094 3.921875 C 19.777344 4.023438 19.671875 4.109375 19.554688 4.1875 C 19.4375 4.261719 19.316406 4.324219 19.183594 4.367188 L 19.183594 5.417969 C 19.1875 5.8125 19.304688 6.167969 19.542969 6.484375 C 19.78125 6.800781 20.089844 7.011719 20.46875 7.121094 C 21.132812 7.324219 21.75 7.628906 22.316406 8.03125 C 22.886719 8.4375 23.378906 8.917969 23.792969 9.480469 C 24.207031 10.042969 24.523438 10.652344 24.742188 11.316406 C 24.964844 11.980469 25.074219 12.660156 25.078125 13.359375 C 25.078125 13.964844 24.992188 14.554688 24.824219 15.136719 L 31.5625 15.136719 C 31.953125 15.136719 32.328125 15.210938 32.6875 15.363281 C 33.050781 15.511719 33.367188 15.726562 33.644531 16.003906 C 33.921875 16.28125 34.132812 16.601562 34.285156 16.964844 C 34.433594 17.324219 34.507812 17.703125 34.507812 18.097656 Z M 18.007812 2.703125 C 18.007812 2.863281 18.0625 3.003906 18.179688 3.121094 C 18.292969 3.234375 18.433594 3.292969 18.597656 3.292969 C 18.757812 3.292969 18.898438 3.234375 19.011719 3.121094 C 19.128906 3.003906 19.183594 2.863281 19.183594 2.703125 C 19.183594 2.539062 19.128906 2.398438 19.011719 2.28125 C 18.898438 2.167969 18.757812 2.109375 18.597656 2.109375 C 18.433594 2.109375 18.292969 2.167969 18.179688 2.28125 C 18.0625 2.398438 18.007812 2.539062 18.007812 2.703125 Z M 4.125 34.414062 L 14.851562 25.792969 L 4.125 17.171875 C 3.953125 17.457031 3.863281 17.761719 3.863281 18.097656 L 3.863281 33.492188 C 3.863281 33.824219 3.953125 34.132812 4.125 34.414062 Z M 32.117188 35.167969 L 21.394531 26.550781 L 20.015625 27.664062 C 19.8125 27.824219 19.589844 27.949219 19.347656 28.035156 C 19.105469 28.121094 18.855469 28.160156 18.597656 28.160156 C 18.339844 28.160156 18.085938 28.121094 17.84375 28.035156 C 17.601562 27.949219 17.378906 27.824219 17.175781 27.664062 L 15.796875 26.550781 L 5.074219 35.167969 C 5.253906 35.230469 5.441406 35.265625 5.628906 35.265625 L 31.5625 35.265625 C 31.753906 35.265625 31.9375 35.230469 32.117188 35.167969 Z M 33.328125 18.097656 C 33.328125 17.761719 33.238281 17.457031 33.066406 17.171875 L 22.339844 25.792969 L 33.066406 34.414062 C 33.238281 34.132812 33.328125 33.824219 33.328125 33.492188 Z M 33.328125 18.097656 " fill-opacity="1" fill-rule="nonzero"/></g></svg>