<svg xmlns="http://www.w3.org/2000/svg" xmlns:xlink="http://www.w3.org/1999/xlink" width="50" zoomAndPan="magnify" viewBox="0 0 37.5 37.499999" height="50" preserveAspectRatio="xMidYMid meet" version="1.0"><defs><clipPath id="4aead57e04"><path d="M 1 2.597656 L 35.785156 2.597656 L 35.785156 34.421875 L 1 34.421875 Z M 1 2.597656 " clip-rule="nonzero"/></clipPath></defs><g clip-path="url(#4aead57e04)"><path fill="#000000" d="M 12.683594 27.296875 L 2.835938 27.296875 C 1.828125 27.296875 1 26.460938 1 25.441406 L 1 4.457031 C 1 3.4375 1.828125 2.601562 2.835938 2.601562 L 29.550781 2.601562 C 30.5625 2.601562 31.386719 3.4375 31.386719 4.457031 L 31.386719 11.988281 L 35.445312 13.746094 C 35.652344 13.835938 35.785156 14.042969 35.785156 14.269531 L 35.785156 20.871094 C 35.785156 25.628906 32.375 29.757812 27.757812 30.625 C 27.6875 30.636719 27.621094 30.636719 27.550781 30.625 C 25.28125 30.199219 23.304688 28.984375 21.878906 27.296875 L 18.777344 27.296875 L 15.203125 33.554688 C 14.976562 33.949219 14.589844 34.230469 14.125 34.328125 C 13.6875 34.421875 13.210938 34.34375 12.804688 34.105469 L 11.359375 33.261719 C 10.953125 33.023438 10.648438 32.648438 10.507812 32.21875 C 10.359375 31.757812 10.40625 31.28125 10.632812 30.886719 Z M 30.261719 11.503906 L 30.261719 8.335938 L 2.121094 8.335938 L 2.121094 25.441406 C 2.121094 25.835938 2.445312 26.160156 2.835938 26.160156 L 13.332031 26.160156 L 14.359375 24.355469 C 14.402344 24.28125 14.453125 24.214844 14.503906 24.148438 L 5.539062 24.148438 C 4.851562 24.148438 4.238281 23.792969 3.894531 23.1875 C 3.550781 22.582031 3.550781 21.875 3.894531 21.269531 L 10.015625 10.550781 C 10.359375 9.945312 10.96875 9.589844 11.660156 9.589844 C 12.351562 9.589844 12.960938 9.945312 13.304688 10.550781 L 16.320312 15.832031 C 17.195312 15.351562 18.304688 15.21875 19.511719 15.476562 C 19.515625 15.480469 19.519531 15.480469 19.523438 15.480469 L 19.523438 14.269531 C 19.523438 14.042969 19.660156 13.835938 19.863281 13.746094 L 27.433594 10.46875 C 27.574219 10.410156 27.734375 10.410156 27.875 10.46875 Z M 30.261719 7.199219 L 30.261719 4.457031 C 30.261719 4.0625 29.945312 3.738281 29.550781 3.738281 L 2.835938 3.738281 C 2.445312 3.738281 2.121094 4.0625 2.121094 4.457031 L 2.121094 7.199219 Z M 21.050781 26.160156 C 20.480469 25.25 20.050781 24.246094 19.796875 23.179688 L 18.636719 25.214844 C 18.847656 25.402344 19 25.648438 19.074219 25.925781 C 19.09375 26.003906 19.109375 26.082031 19.117188 26.160156 Z M 20.679688 21.632812 C 21.015625 25.484375 23.863281 28.730469 27.65625 29.488281 C 31.695312 28.679688 34.664062 25.050781 34.664062 20.871094 L 34.664062 14.644531 L 27.65625 11.609375 L 20.648438 14.644531 L 20.648438 15.902344 L 23.867188 17.78125 L 24.035156 17.492188 C 24.1875 17.21875 24.53125 17.125 24.800781 17.28125 L 26.402344 18.21875 C 26.671875 18.375 26.765625 18.722656 26.609375 18.992188 L 24.492188 22.699219 C 24.339844 22.972656 23.996094 23.0625 23.726562 22.90625 L 22.121094 21.972656 C 21.855469 21.816406 21.761719 21.46875 21.917969 21.195312 L 22.085938 20.902344 L 21.34375 20.472656 Z M 17.042969 24.253906 L 17.675781 24.625 L 20.371094 19.90625 L 19.738281 19.535156 Z M 15.425781 16.535156 L 12.332031 11.117188 C 12.191406 10.871094 11.941406 10.726562 11.660156 10.726562 C 11.378906 10.726562 11.128906 10.871094 10.988281 11.117188 L 4.867188 21.835938 C 4.726562 22.082031 4.726562 22.375 4.867188 22.621094 C 5.007812 22.867188 5.257812 23.015625 5.539062 23.015625 L 16.457031 23.015625 L 17.792969 20.679688 L 16.335938 18.128906 C 16.042969 18.082031 15.738281 18.050781 15.417969 18.042969 C 15.222656 18.039062 15.039062 17.929688 14.941406 17.753906 C 14.84375 17.582031 14.847656 17.367188 14.945312 17.195312 C 15.085938 16.953125 15.246094 16.730469 15.425781 16.535156 Z M 23.304688 18.765625 L 20.0625 16.871094 C 19.925781 16.789062 19.433594 16.621094 19.277344 16.589844 C 18.222656 16.363281 17.257812 16.503906 16.566406 17.019531 C 18.21875 17.304688 19.433594 18.042969 19.550781 18.117188 L 22.644531 19.921875 Z M 18.765625 18.96875 C 18.582031 18.867188 18.273438 18.710938 17.875 18.554688 L 18.4375 19.542969 Z M 24.726562 18.550781 L 23.167969 21.273438 L 23.800781 21.640625 L 25.355469 18.917969 Z M 15.753906 24.808594 C 15.683594 24.769531 15.597656 24.757812 15.519531 24.777344 C 15.441406 24.800781 15.375 24.851562 15.332031 24.921875 L 11.605469 31.453125 C 11.535156 31.574219 11.527344 31.722656 11.574219 31.863281 C 11.628906 32.035156 11.757812 32.183594 11.917969 32.277344 L 13.367188 33.121094 C 13.53125 33.21875 13.71875 33.253906 13.894531 33.21875 C 14.039062 33.1875 14.160156 33.109375 14.230469 32.988281 L 17.960938 26.457031 C 18 26.386719 18.011719 26.300781 17.992188 26.222656 C 17.96875 26.140625 17.917969 26.074219 17.847656 26.03125 Z M 5.023438 6.21875 C 4.617188 6.21875 4.28125 5.882812 4.28125 5.46875 C 4.28125 5.054688 4.617188 4.71875 5.023438 4.71875 C 5.433594 4.71875 5.769531 5.054688 5.769531 5.46875 C 5.769531 5.882812 5.433594 6.21875 5.023438 6.21875 Z M 7.882812 6.21875 C 7.472656 6.21875 7.136719 5.882812 7.136719 5.46875 C 7.136719 5.054688 7.472656 4.71875 7.882812 4.71875 C 8.292969 4.71875 8.625 5.054688 8.625 5.46875 C 8.625 5.882812 8.292969 6.21875 7.882812 6.21875 Z M 10.734375 6.21875 C 10.328125 6.21875 9.992188 5.882812 9.992188 5.46875 C 9.992188 5.054688 10.328125 4.71875 10.734375 4.71875 C 11.144531 4.71875 11.480469 5.054688 11.480469 5.46875 C 11.480469 5.882812 11.144531 6.21875 10.734375 6.21875 Z M 28.304688 19.207031 C 27.996094 19.234375 27.726562 19 27.699219 18.6875 C 27.675781 18.378906 27.902344 18.101562 28.210938 18.078125 L 31.953125 17.761719 C 32.195312 17.742188 32.421875 17.882812 32.515625 18.109375 C 32.609375 18.335938 32.546875 18.597656 32.363281 18.757812 L 30.011719 20.804688 L 31.40625 22.027344 C 31.5625 22.167969 31.628906 22.382812 31.582031 22.585938 C 31.535156 22.792969 31.378906 22.953125 31.175781 23.007812 L 29.390625 23.472656 L 30.59375 26.367188 C 30.6875 26.59375 30.625 26.855469 30.441406 27.015625 C 30.257812 27.175781 29.992188 27.199219 29.785156 27.070312 L 27.128906 25.441406 L 26.410156 27.160156 C 26.328125 27.351562 26.148438 27.484375 25.941406 27.503906 C 25.734375 27.519531 25.53125 27.417969 25.421875 27.242188 L 24.082031 25.117188 C 23.917969 24.851562 23.992188 24.5 24.253906 24.332031 C 24.515625 24.164062 24.863281 24.242188 25.027344 24.507812 L 25.792969 25.722656 L 26.351562 24.394531 C 26.414062 24.246094 26.539062 24.128906 26.695312 24.078125 C 26.851562 24.027344 27.019531 24.046875 27.15625 24.132812 L 28.890625 25.195312 L 28.105469 23.304688 C 28.042969 23.15625 28.050781 22.984375 28.121094 22.835938 C 28.195312 22.6875 28.324219 22.578125 28.484375 22.539062 L 29.863281 22.179688 L 28.789062 21.234375 C 28.664062 21.125 28.59375 20.96875 28.59375 20.804688 C 28.59375 20.640625 28.664062 20.484375 28.789062 20.375 L 30.324219 19.039062 Z M 12.269531 19.367188 C 12.695312 19.589844 12.984375 20.042969 12.984375 20.558594 C 12.984375 21.296875 12.390625 21.898438 11.660156 21.898438 C 10.929688 21.898438 10.332031 21.296875 10.332031 20.558594 C 10.332031 20.042969 10.625 19.589844 11.050781 19.367188 C 10.730469 19.167969 10.515625 18.816406 10.5 18.414062 L 10.351562 14.183594 C 10.339844 13.855469 10.449219 13.566406 10.671875 13.328125 L 10.675781 13.328125 C 10.902344 13.089844 11.183594 12.972656 11.507812 12.972656 L 11.808594 12.972656 C 12.136719 12.972656 12.417969 13.09375 12.644531 13.328125 C 12.871094 13.566406 12.980469 13.855469 12.96875 14.183594 L 12.816406 18.414062 C 12.804688 18.816406 12.585938 19.167969 12.269531 19.367188 Z M 11.660156 20.765625 C 11.769531 20.765625 11.863281 20.671875 11.863281 20.558594 C 11.863281 20.445312 11.769531 20.351562 11.660156 20.351562 C 11.546875 20.351562 11.453125 20.445312 11.453125 20.558594 C 11.453125 20.671875 11.546875 20.765625 11.660156 20.765625 Z M 11.660156 18.40625 C 11.679688 18.40625 11.695312 18.390625 11.695312 18.371094 L 11.847656 14.144531 C 11.847656 14.132812 11.84375 14.125 11.835938 14.117188 C 11.828125 14.109375 11.820312 14.105469 11.808594 14.105469 L 11.507812 14.105469 C 11.5 14.105469 11.488281 14.109375 11.480469 14.117188 C 11.472656 14.125 11.472656 14.136719 11.472656 14.148438 L 11.625 18.371094 C 11.625 18.390625 11.640625 18.40625 11.660156 18.40625 Z M 11.660156 18.40625 " fill-opacity="1" fill-rule="evenodd"/></g></svg>