<svg xmlns="http://www.w3.org/2000/svg" xmlns:xlink="http://www.w3.org/1999/xlink" width="50" zoomAndPan="magnify" viewBox="0 0 37.5 37.499999" height="50" preserveAspectRatio="xMidYMid meet" version="1.0"><defs><clipPath id="4cd3464ef9"><path d="M 1.253906 1.253906 L 36 1.253906 L 36 36 L 1.253906 36 Z M 1.253906 1.253906 " clip-rule="nonzero"/></clipPath><clipPath id="276f52f0cb"><path d="M 10 12 L 25 12 L 25 27 L 10 27 Z M 10 12 " clip-rule="nonzero"/></clipPath><clipPath id="e20a3baee7"><path d="M 17.804688 10.539062 L 26.703125 19.4375 L 18.328125 27.808594 L 9.433594 18.914062 Z M 17.804688 10.539062 " clip-rule="nonzero"/></clipPath><clipPath id="f559864a20"><path d="M 17.570312 9.910156 L 27.511719 19.851562 L 18.617188 28.75 L 8.671875 18.804688 Z M 17.570312 9.910156 " clip-rule="nonzero"/></clipPath><clipPath id="ab42cf4dc7"><path d="M 15.484375 -0.511719 L 37.988281 21.992188 L 15.484375 44.496094 L -7.019531 21.992188 Z M 15.484375 -0.511719 " clip-rule="nonzero"/></clipPath><clipPath id="9850b8727f"><path d="M 19 14 L 24 14 L 24 18 L 19 18 Z M 19 14 " clip-rule="nonzero"/></clipPath><clipPath id="853884f18a"><path d="M 17.804688 10.539062 L 26.703125 19.4375 L 18.328125 27.808594 L 9.433594 18.914062 Z M 17.804688 10.539062 " clip-rule="nonzero"/></clipPath><clipPath id="a114b051df"><path d="M 17.570312 9.910156 L 27.511719 19.851562 L 18.617188 28.75 L 8.671875 18.804688 Z M 17.570312 9.910156 " clip-rule="nonzero"/></clipPath><clipPath id="1c6c45f1bd"><path d="M 15.484375 -0.511719 L 37.988281 21.992188 L 15.484375 44.496094 L -7.019531 21.992188 Z M 15.484375 -0.511719 " clip-rule="nonzero"/></clipPath><clipPath id="a262c54039"><path d="M 9 17 L 27 17 L 27 28 L 9 28 Z M 9 17 " clip-rule="nonzero"/></clipPath><clipPath id="d4d8742ec7"><path d="M 17.804688 10.539062 L 26.703125 19.4375 L 18.328125 27.808594 L 9.433594 18.914062 Z M 17.804688 10.539062 " clip-rule="nonzero"/></clipPath><clipPath id="05dede97a2"><path d="M 17.570312 9.910156 L 27.511719 19.851562 L 18.617188 28.75 L 8.671875 18.804688 Z M 17.570312 9.910156 " clip-rule="nonzero"/></clipPath><clipPath id="bb5e450497"><path d="M 15.484375 -0.511719 L 37.988281 21.992188 L 15.484375 44.496094 L -7.019531 21.992188 Z M 15.484375 -0.511719 " clip-rule="nonzero"/></clipPath><clipPath id="47137ffd4c"><path d="M 9 10 L 27 10 L 27 28 L 9 28 Z M 9 10 " clip-rule="nonzero"/></clipPath><clipPath id="2d9d9fad84"><path d="M 17.804688 10.539062 L 26.703125 19.4375 L 18.328125 27.808594 L 9.433594 18.914062 Z M 17.804688 10.539062 " clip-rule="nonzero"/></clipPath><clipPath id="ecda074b20"><path d="M 17.570312 9.910156 L 27.511719 19.851562 L 18.617188 28.75 L 8.671875 18.804688 Z M 17.570312 9.910156 " clip-rule="nonzero"/></clipPath><clipPath id="6750ab9d4c"><path d="M 15.484375 -0.511719 L 37.988281 21.992188 L 15.484375 44.496094 L -7.019531 21.992188 Z M 15.484375 -0.511719 " clip-rule="nonzero"/></clipPath><clipPath id="16998ecaa5"><path d="M 16 18 L 19 18 L 19 22 L 16 22 Z M 16 18 " clip-rule="nonzero"/></clipPath><clipPath id="324cb00a61"><path d="M 17.804688 10.539062 L 26.703125 19.4375 L 18.328125 27.808594 L 9.433594 18.914062 Z M 17.804688 10.539062 " clip-rule="nonzero"/></clipPath><clipPath id="dfba23e4d3"><path d="M 17.570312 9.910156 L 27.511719 19.851562 L 18.617188 28.75 L 8.671875 18.804688 Z M 17.570312 9.910156 " clip-rule="nonzero"/></clipPath><clipPath id="b888ead20d"><path d="M 15.484375 -0.511719 L 37.988281 21.992188 L 15.484375 44.496094 L -7.019531 21.992188 Z M 15.484375 -0.511719 " clip-rule="nonzero"/></clipPath><clipPath id="09e80b1734"><path d="M 12 10 L 18 10 L 18 12 L 12 12 Z M 12 10 " clip-rule="nonzero"/></clipPath><clipPath id="2a91382c84"><path d="M 17.804688 10.539062 L 26.703125 19.4375 L 18.328125 27.808594 L 9.433594 18.914062 Z M 17.804688 10.539062 " clip-rule="nonzero"/></clipPath><clipPath id="d05ef7ca24"><path d="M 17.570312 9.910156 L 27.511719 19.851562 L 18.617188 28.75 L 8.671875 18.804688 Z M 17.570312 9.910156 " clip-rule="nonzero"/></clipPath><clipPath id="8d19bb5ee7"><path d="M 15.484375 -0.511719 L 37.988281 21.992188 L 15.484375 44.496094 L -7.019531 21.992188 Z M 15.484375 -0.511719 " clip-rule="nonzero"/></clipPath></defs><g clip-path="url(#4cd3464ef9)"><path fill="#000000" d="M 28.460938 1.476562 C 28.347656 1.371094 28.214844 1.320312 28.058594 1.320312 C 27.90625 1.320312 27.773438 1.371094 27.660156 1.476562 L 23.011719 6.128906 L 21.464844 7.679688 L 20.542969 6.75 C 20.429688 6.644531 20.296875 6.59375 20.140625 6.59375 C 19.984375 6.59375 19.851562 6.644531 19.738281 6.75 L 4.195312 22.296875 C 3.839844 22.652344 3.523438 23.039062 3.242188 23.453125 C 2.964844 23.871094 2.730469 24.3125 2.539062 24.777344 C 2.347656 25.238281 2.199219 25.71875 2.101562 26.210938 C 2.003906 26.699219 1.957031 27.199219 1.957031 27.699219 C 1.957031 28.203125 2.003906 28.699219 2.101562 29.191406 C 2.199219 29.683594 2.347656 30.160156 2.539062 30.625 C 2.730469 31.085938 2.964844 31.527344 3.242188 31.945312 C 3.523438 32.363281 3.839844 32.746094 4.195312 33.101562 C 4.546875 33.457031 4.933594 33.773438 5.351562 34.050781 C 5.769531 34.332031 6.210938 34.566406 6.671875 34.757812 C 7.136719 34.949219 7.613281 35.09375 8.105469 35.195312 C 8.597656 35.292969 9.09375 35.339844 9.597656 35.339844 C 10.097656 35.339844 10.59375 35.292969 11.085938 35.195312 C 11.578125 35.09375 12.058594 34.949219 12.519531 34.757812 C 12.984375 34.566406 13.425781 34.332031 13.839844 34.050781 C 14.257812 33.773438 14.644531 33.457031 15 33.101562 L 30.53125 17.570312 C 30.640625 17.457031 30.691406 17.320312 30.691406 17.167969 C 30.691406 17.011719 30.640625 16.878906 30.53125 16.765625 L 29.605469 15.84375 L 31.15625 14.296875 L 35.808594 9.648438 C 35.914062 9.535156 35.964844 9.402344 35.964844 9.246094 C 35.964844 9.09375 35.914062 8.957031 35.808594 8.847656 Z M 14.195312 32.296875 C 13.890625 32.589844 13.5625 32.847656 13.207031 33.078125 C 12.851562 33.304688 12.480469 33.496094 12.089844 33.652344 C 11.695312 33.804688 11.292969 33.921875 10.878906 33.996094 C 10.464844 34.074219 10.046875 34.109375 9.625 34.105469 C 9.203125 34.101562 8.789062 34.054688 8.375 33.972656 C 7.960938 33.886719 7.5625 33.761719 7.175781 33.597656 C 6.785156 33.433594 6.417969 33.234375 6.066406 33 C 5.71875 32.765625 5.394531 32.5 5.09375 32.199219 C 4.796875 31.902344 4.53125 31.578125 4.296875 31.230469 C 4.0625 30.878906 3.863281 30.511719 3.699219 30.121094 C 3.535156 29.734375 3.410156 29.332031 3.324219 28.921875 C 3.238281 28.507812 3.195312 28.09375 3.191406 27.671875 C 3.1875 27.25 3.222656 26.832031 3.296875 26.417969 C 3.375 26.003906 3.492188 25.601562 3.644531 25.207031 C 3.800781 24.816406 3.992188 24.445312 4.21875 24.089844 C 4.445312 23.734375 4.707031 23.40625 4.996094 23.101562 L 20.144531 7.964844 L 29.332031 17.152344 Z M 28.808594 15.039062 L 22.257812 8.488281 L 23.429688 7.316406 L 29.957031 13.890625 Z M 30.761719 13.085938 L 24.210938 6.535156 L 28.0625 2.679688 L 34.617188 9.234375 Z M 30.761719 13.085938 " fill-opacity="1" fill-rule="nonzero"/></g><path fill="#000000" d="M 27.542969 6.386719 L 26.953125 6.976562 C 26.851562 7.085938 26.796875 7.21875 26.796875 7.375 C 26.796875 7.527344 26.851562 7.660156 26.953125 7.773438 C 27.0625 7.886719 27.195312 7.941406 27.355469 7.941406 C 27.515625 7.941406 27.65625 7.882812 27.769531 7.765625 L 28.355469 7.179688 C 28.433594 7.132812 28.5 7.074219 28.546875 6.996094 C 28.597656 6.921875 28.628906 6.839844 28.640625 6.75 C 28.652344 6.660156 28.640625 6.570312 28.613281 6.484375 C 28.582031 6.398438 28.535156 6.324219 28.472656 6.261719 C 28.410156 6.195312 28.332031 6.148438 28.246094 6.121094 C 28.164062 6.089844 28.074219 6.082031 27.984375 6.09375 C 27.894531 6.105469 27.8125 6.136719 27.734375 6.183594 C 27.660156 6.234375 27.597656 6.296875 27.554688 6.375 Z M 27.542969 6.386719 " fill-opacity="1" fill-rule="nonzero"/><path fill="#000000" d="M 29.945312 10.484375 C 30.105469 10.484375 30.238281 10.425781 30.34375 10.3125 L 30.933594 9.753906 C 31.039062 9.640625 31.089844 9.507812 31.089844 9.351562 C 31.089844 9.199219 31.039062 9.0625 30.933594 8.953125 C 30.820312 8.839844 30.683594 8.78125 30.527344 8.78125 C 30.367188 8.777344 30.230469 8.832031 30.117188 8.941406 L 29.53125 9.527344 C 29.371094 9.707031 29.339844 9.910156 29.433594 10.132812 C 29.523438 10.355469 29.6875 10.476562 29.929688 10.496094 Z M 29.945312 10.484375 " fill-opacity="1" fill-rule="nonzero"/><path fill="#000000" d="M 9.238281 23.921875 C 8.921875 23.921875 8.609375 23.960938 8.300781 24.03125 C 7.992188 24.105469 7.695312 24.210938 7.410156 24.351562 C 7.128906 24.496094 6.863281 24.664062 6.617188 24.867188 C 6.375 25.070312 6.15625 25.296875 5.964844 25.546875 C 5.769531 25.800781 5.609375 26.070312 5.480469 26.359375 C 5.347656 26.648438 5.253906 26.949219 5.191406 27.261719 C 5.132812 27.570312 5.105469 27.886719 5.117188 28.203125 C 5.128906 28.519531 5.175781 28.832031 5.257812 29.136719 C 5.339844 29.441406 5.457031 29.734375 5.605469 30.015625 C 5.757812 30.292969 5.9375 30.550781 6.148438 30.789062 C 6.355469 31.027344 6.589844 31.238281 6.847656 31.425781 C 7.105469 31.609375 7.382812 31.761719 7.675781 31.882812 C 7.96875 32.003906 8.269531 32.089844 8.585938 32.140625 C 8.898438 32.191406 9.210938 32.207031 9.527344 32.183594 C 9.84375 32.164062 10.15625 32.105469 10.457031 32.011719 C 10.761719 31.921875 11.050781 31.792969 11.324219 31.636719 C 11.597656 31.476562 11.851562 31.289062 12.082031 31.070312 C 12.3125 30.855469 12.515625 30.613281 12.691406 30.351562 C 12.867188 30.085938 13.011719 29.804688 13.125 29.507812 C 13.234375 29.210938 13.308594 28.90625 13.351562 28.59375 C 13.390625 28.277344 13.398438 27.960938 13.367188 27.648438 C 13.335938 27.332031 13.265625 27.023438 13.164062 26.722656 C 13.0625 26.421875 12.929688 26.140625 12.761719 25.871094 C 12.59375 25.601562 12.394531 25.355469 12.171875 25.128906 C 11.363281 24.316406 10.386719 23.914062 9.238281 23.921875 Z M 11.34375 30.179688 C 11.171875 30.355469 10.976562 30.507812 10.765625 30.632812 C 10.554688 30.761719 10.328125 30.859375 10.09375 30.929688 C 9.855469 31.003906 9.613281 31.046875 9.367188 31.058594 C 9.121094 31.070312 8.878906 31.050781 8.636719 31.003906 C 8.394531 30.957031 8.160156 30.878906 7.9375 30.773438 C 7.714844 30.667969 7.507812 30.535156 7.316406 30.378906 C 7.125 30.222656 6.957031 30.046875 6.808594 29.847656 C 6.660156 29.648438 6.539062 29.433594 6.445312 29.207031 C 6.351562 28.980469 6.285156 28.742188 6.25 28.5 C 6.214844 28.253906 6.207031 28.007812 6.230469 27.761719 C 6.257812 27.515625 6.308594 27.277344 6.394531 27.046875 C 6.476562 26.8125 6.585938 26.59375 6.722656 26.386719 C 6.859375 26.183594 7.019531 25.996094 7.203125 25.832031 C 7.386719 25.667969 7.585938 25.523438 7.804688 25.410156 C 8.023438 25.292969 8.25 25.203125 8.492188 25.144531 C 8.730469 25.082031 8.972656 25.054688 9.222656 25.054688 C 9.828125 25.054688 10.386719 25.222656 10.890625 25.558594 C 11.394531 25.898438 11.761719 26.347656 11.996094 26.90625 C 12.226562 27.46875 12.285156 28.046875 12.167969 28.644531 C 12.046875 29.238281 11.773438 29.75 11.34375 30.179688 Z M 11.34375 30.179688 " fill-opacity="1" fill-rule="nonzero"/><g clip-path="url(#276f52f0cb)"><g clip-path="url(#e20a3baee7)"><g clip-path="url(#f559864a20)"><g clip-path="url(#ab42cf4dc7)"><path fill="#000000" d="M 10.765625 18.722656 C 10.546875 18.941406 10.546875 19.234375 10.765625 19.449219 C 10.984375 19.667969 11.273438 19.667969 11.492188 19.449219 C 12.109375 18.832031 13.050781 18.832031 13.667969 19.449219 L 14.394531 20.175781 C 14.359375 20.285156 14.359375 20.429688 14.359375 20.503906 C 14.359375 20.792969 14.578125 21.011719 14.867188 21.011719 C 15.15625 21.011719 15.375 20.792969 15.375 20.503906 C 15.410156 20.105469 15.558594 19.742188 15.847656 19.449219 L 17.300781 18 C 17.917969 17.382812 18.859375 17.382812 19.476562 18 C 20.09375 18.617188 20.09375 19.558594 19.476562 20.175781 L 18.023438 21.628906 C 17.40625 22.246094 16.464844 22.246094 15.847656 21.628906 C 15.628906 21.410156 15.339844 21.410156 15.121094 21.628906 C 14.902344 21.847656 14.902344 22.136719 15.121094 22.355469 C 15.703125 22.933594 16.535156 23.1875 17.300781 23.078125 L 18.023438 23.804688 C 18.640625 24.421875 18.640625 25.367188 18.023438 25.984375 C 17.808594 26.203125 17.808594 26.492188 18.023438 26.710938 C 18.242188 26.925781 18.535156 26.925781 18.75 26.710938 C 19.765625 25.695312 19.765625 24.097656 18.75 23.078125 L 18.351562 22.679688 C 18.496094 22.609375 18.640625 22.464844 18.75 22.355469 L 19.113281 21.992188 L 20.929688 23.804688 C 21.148438 24.023438 21.4375 24.023438 21.65625 23.804688 C 21.871094 23.589844 21.871094 23.296875 21.65625 23.078125 L 19.839844 21.265625 C 19.839844 21.265625 20.457031 20.648438 20.53125 20.503906 C 20.53125 20.503906 22.378906 22.863281 24.558594 20.902344 C 24.777344 20.683594 24.777344 20.394531 24.558594 20.175781 C 24.339844 19.957031 24.050781 19.957031 23.832031 20.175781 C 23.214844 20.792969 22.273438 20.792969 21.65625 20.175781 L 20.929688 19.449219 C 21.039062 18.6875 20.820312 17.890625 20.203125 17.273438 C 19.585938 16.65625 18.789062 16.4375 18.023438 16.546875 L 17.300781 15.820312 C 16.683594 15.203125 16.683594 14.261719 17.300781 13.644531 C 17.515625 13.425781 17.515625 13.132812 17.300781 12.917969 C 17.082031 12.699219 16.789062 12.699219 16.574219 12.917969 C 15.558594 13.933594 15.558594 15.53125 16.574219 16.546875 L 16.972656 16.945312 C 16.828125 17.019531 16.210938 17.636719 16.210938 17.636719 L 14.394531 15.820312 C 14.175781 15.601562 13.886719 15.601562 13.667969 15.820312 C 13.453125 16.039062 13.453125 16.328125 13.667969 16.546875 L 15.484375 18.363281 L 15.121094 18.722656 C 15.011719 18.832031 14.867188 18.976562 14.792969 19.125 L 14.394531 18.722656 C 13.378906 17.707031 11.78125 17.707031 10.765625 18.722656 Z M 10.765625 18.722656 " fill-opacity="1" fill-rule="nonzero"/></g></g></g></g><g clip-path="url(#9850b8727f)"><g clip-path="url(#853884f18a)"><g clip-path="url(#a114b051df)"><g clip-path="url(#1c6c45f1bd)"><path fill="#000000" d="M 23.214844 16.003906 C 23.105469 15.746094 22.816406 15.601562 22.5625 15.710938 L 21.800781 16.039062 C 21.765625 15.929688 21.582031 15.746094 21.472656 15.710938 L 21.800781 14.949219 C 21.910156 14.695312 21.765625 14.40625 21.507812 14.296875 C 21.253906 14.1875 20.964844 14.332031 20.855469 14.585938 L 20.53125 15.421875 C 20.421875 15.457031 20.3125 15.421875 20.203125 15.457031 C 19.914062 15.53125 19.765625 15.820312 19.839844 16.109375 C 19.914062 16.402344 20.203125 16.546875 20.492188 16.472656 C 20.855469 16.402344 21.21875 16.765625 21.109375 17.089844 C 20.929688 17.636719 21.980469 17.890625 22.125 17.382812 C 22.164062 17.273438 22.164062 17.199219 22.164062 17.054688 L 22.996094 16.726562 C 23.179688 16.546875 23.359375 16.363281 23.214844 16.003906 Z M 23.214844 16.003906 " fill-opacity="1" fill-rule="nonzero"/></g></g></g></g><g clip-path="url(#a262c54039)"><g clip-path="url(#d4d8742ec7)"><g clip-path="url(#05dede97a2)"><g clip-path="url(#bb5e450497)"><path fill="#000000" d="M 18.023438 41.226562 L 16.9375 40.140625 L 26.699219 30.375 C 26.992188 30.085938 27.171875 29.6875 27.171875 29.25 C 27.171875 28.960938 26.953125 28.742188 26.664062 28.742188 C 26.375 28.742188 26.15625 28.960938 26.15625 29.25 C 26.15625 29.394531 26.082031 29.539062 25.972656 29.648438 L 16.210938 39.414062 L 8.949219 32.152344 C 8.515625 31.71875 7.933594 31.71875 7.5 32.152344 L 5.320312 29.976562 C 5.757812 29.539062 5.757812 28.960938 5.320312 28.523438 L -1.9375 21.265625 L 1.363281 17.960938 C 1.582031 17.746094 1.582031 17.453125 1.363281 17.234375 C 1.148438 17.019531 0.855469 17.019531 0.640625 17.234375 L -2.664062 20.539062 L -3.753906 19.449219 C -3.972656 19.234375 -4.261719 19.234375 -4.480469 19.449219 C -5.894531 20.867188 -5.894531 23.117188 -4.480469 24.53125 L -2.121094 26.890625 C -1.902344 27.109375 -1.613281 27.109375 -1.394531 26.890625 C -1.175781 26.671875 -1.175781 26.382812 -1.394531 26.164062 L -3.753906 23.804688 C -4.625 22.933594 -4.734375 21.59375 -4.078125 20.574219 L 4.59375 29.25 C 4.160156 29.6875 4.160156 30.265625 4.59375 30.703125 L 6.773438 32.878906 C 7.207031 33.316406 7.789062 33.316406 8.226562 32.878906 L 16.898438 41.554688 C 15.882812 42.207031 14.539062 42.097656 13.667969 41.226562 L 2.128906 29.6875 C 1.910156 29.46875 1.617188 29.46875 1.402344 29.6875 C 1.183594 29.902344 1.183594 30.195312 1.402344 30.410156 L 12.945312 41.953125 C 14.359375 43.371094 16.609375 43.371094 18.023438 41.953125 C 18.242188 41.738281 18.242188 41.445312 18.023438 41.226562 Z M 18.023438 41.226562 " fill-opacity="1" fill-rule="nonzero"/></g></g></g></g><g clip-path="url(#47137ffd4c)"><g clip-path="url(#2d9d9fad84)"><g clip-path="url(#ecda074b20)"><g clip-path="url(#6750ab9d4c)"><path fill="#000000" d="M 5.71875 17.308594 L 6.699219 18.289062 C 6.917969 18.507812 7.207031 18.507812 7.425781 18.289062 C 7.644531 18.070312 7.644531 17.78125 7.425781 17.5625 L 6.445312 16.582031 C 6.230469 16.363281 6.230469 16.003906 6.445312 15.785156 L 15.484375 6.746094 L 30.730469 21.992188 L 21.691406 31.027344 C 21.472656 31.246094 21.109375 31.246094 20.890625 31.027344 L 9.785156 19.921875 C 9.566406 19.703125 9.277344 19.703125 9.058594 19.921875 C 8.84375 20.140625 8.84375 20.429688 9.058594 20.648438 L 20.167969 31.753906 C 20.785156 32.371094 21.800781 32.371094 22.417969 31.753906 L 33.960938 20.210938 C 34.578125 19.59375 34.578125 18.578125 33.960938 17.960938 L 31.128906 15.132812 C 30.910156 14.914062 30.621094 14.914062 30.402344 15.132812 C 30.183594 15.347656 30.183594 15.640625 30.402344 15.855469 L 33.234375 18.6875 C 33.453125 18.90625 33.453125 19.269531 33.234375 19.488281 L 31.453125 21.265625 L 16.210938 6.019531 L 17.988281 4.242188 C 18.207031 4.023438 18.570312 4.023438 18.789062 4.242188 L 28.949219 14.40625 C 29.167969 14.621094 29.457031 14.621094 29.675781 14.40625 C 29.894531 14.1875 29.894531 13.898438 29.675781 13.679688 L 19.511719 3.515625 C 18.894531 2.898438 17.878906 2.898438 17.261719 3.515625 L 5.71875 15.058594 C 5.101562 15.675781 5.101562 16.691406 5.71875 17.308594 Z M 5.71875 17.308594 " fill-opacity="1" fill-rule="nonzero"/></g></g></g></g><g clip-path="url(#16998ecaa5)"><g clip-path="url(#324cb00a61)"><g clip-path="url(#dfba23e4d3)"><g clip-path="url(#b888ead20d)"><path fill="#000000" d="M 16.574219 20.902344 C 16.789062 21.121094 17.082031 21.121094 17.300781 20.902344 L 18.75 19.449219 C 18.96875 19.234375 18.96875 18.941406 18.75 18.722656 C 18.535156 18.507812 18.242188 18.507812 18.023438 18.722656 L 16.574219 20.175781 C 16.355469 20.394531 16.355469 20.683594 16.574219 20.902344 Z M 16.574219 20.902344 " fill-opacity="1" fill-rule="nonzero"/></g></g></g></g><g clip-path="url(#09e80b1734)"><g clip-path="url(#2a91382c84)"><g clip-path="url(#d05ef7ca24)"><g clip-path="url(#8d19bb5ee7)"><path fill="#000000" d="M 16.535156 9.25 C 15.957031 8.671875 15.011719 8.671875 14.433594 9.25 L 12.945312 10.738281 C 12.726562 10.957031 12.726562 11.246094 12.945312 11.464844 C 13.160156 11.683594 13.453125 11.683594 13.667969 11.464844 L 15.15625 9.976562 C 15.375 9.757812 15.664062 9.832031 15.8125 9.976562 L 16.574219 10.738281 C 16.789062 10.957031 17.082031 10.957031 17.300781 10.738281 C 17.515625 10.519531 17.515625 10.230469 17.300781 10.011719 Z M 16.535156 9.25 " fill-opacity="1" fill-rule="nonzero"/></g></g></g></g></svg>