<svg xmlns="http://www.w3.org/2000/svg" xmlns:xlink="http://www.w3.org/1999/xlink" width="50" zoomAndPan="magnify" viewBox="0 0 37.5 37.499999" height="50" preserveAspectRatio="xMidYMid meet" version="1.0"><defs><clipPath id="02a3ece2f7"><path d="M 1 1.117188 L 21 1.117188 L 21 20 L 1 20 Z M 1 1.117188 " clip-rule="nonzero"/></clipPath><clipPath id="6b1d010755"><path d="M 18.003906 18.808594 L 36.386719 18.808594 L 36.386719 35.902344 L 18.003906 35.902344 Z M 18.003906 18.808594 " clip-rule="nonzero"/></clipPath></defs><g clip-path="url(#02a3ece2f7)"><path stroke-linecap="round" transform="matrix(0.00711551, 0, 0, -0.00706462, 1.70752, 35.905699)" fill="none" stroke-linejoin="round" d="M 912.330553 2472.63176 C 850.296185 2511.336965 791.555677 2557.230281 737.206982 2610.864637 L 393.54756 2945.941131 C -17.635997 3347.369406 -25.321671 4005.357902 375.980306 4416.738944 C 776.733305 4827.567055 1435.50536 4835.861028 1846.139941 4434.432752 L 2189.799362 4099.356258 C 2600.98292 3697.927983 2608.668594 3039.386556 2207.915594 2628.558445 C 2155.762806 2575.47702 2099.767181 2529.030774 2040.477697 2489.219705 " stroke="#000000" stroke-width="159.998993" stroke-opacity="1" stroke-miterlimit="10"/></g><path stroke-linecap="round" transform="matrix(0.00711551, 0, 0, -0.00706462, 1.70752, 35.905699)" fill="none" stroke-linejoin="round" d="M 985.344456 3039.386556 L 728.972331 3289.311598 C 507.734716 3504.954886 503.342903 3860.489846 719.090751 4081.109518 C 934.838598 4302.282122 1290.026531 4306.705574 1511.264146 4091.062286 L 1854.374591 3755.43286 C 2075.612206 3539.789571 2080.00402 3184.807543 1864.256172 2963.634939 " stroke="#000000" stroke-width="159.998993" stroke-opacity="1" stroke-miterlimit="10"/><g clip-path="url(#6b1d010755)"><path stroke-linecap="round" transform="matrix(0.00711551, 0, 0, -0.00706462, 1.70752, 35.905696)" fill="none" stroke-linejoin="round" d="M 3969.032886 2332.186654 C 4028.322371 2294.587311 4084.317996 2250.35279 4136.470783 2199.483092 L 4480.130205 1863.853666 C 4890.764786 1462.978322 4898.999436 804.436895 4497.69746 393.055853 C 4297.32096 187.918263 4031.616231 83.414208 3765.911503 80.096619 C 3500.206774 76.77903 3232.306138 174.647907 3026.988848 375.362045 L 2683.329426 710.99147 C 2535.654691 854.753663 2440.132743 1032.244677 2397.312559 1219.135527 C 2358.88419 1382.803253 2361.080096 1553.106158 2403.90028 1716.220953 C 2446.720464 1886.523858 2534.556737 2046.873995 2665.762172 2181.236352 C 2717.914959 2234.870708 2773.910584 2281.316955 2833.200069 2320.575092 " stroke="#000000" stroke-width="159.998993" stroke-opacity="1" stroke-miterlimit="10"/></g><path stroke-linecap="round" transform="matrix(0.00711551, 0, 0, -0.00706462, 1.70752, 35.905699)" fill="none" stroke-linejoin="round" d="M 1864.256172 2963.634939 C 1648.508324 2743.015268 1652.900138 2387.480307 1873.588776 2171.837019 L 1988.324909 2060.144854 L 1858.217428 1993.240142 C 1796.732036 1961.170114 1747.324132 1910.300416 1717.130413 1848.372087 L 1652.900138 1716.774388 L 1538.712982 1828.466552 C 1127.529424 2229.341896 1119.294774 2887.883323 1520.59675 3299.264365 C 1572.200561 3351.792859 1628.745163 3398.239105 1687.485671 3438.050174 " stroke="#000000" stroke-width="159.998993" stroke-opacity="1" stroke-miterlimit="10"/><path stroke-linecap="round" transform="matrix(0.00711551, 0, 0, -0.00706462, 1.70752, 35.905699)" fill="none" stroke-linejoin="round" d="M 3889.98024 1769.302881 L 4130.432039 1534.30699 C 4334.1024 1335.251647 4373.628723 1011.786714 4202.347989 784.531864 C 3994.834792 509.724904 3600.669512 486.501781 3362.413619 718.733014 L 3018.754198 1054.36244 C 2963.856526 1107.996797 2922.134296 1170.478057 2893.587507 1237.935701 C 2810.143047 1439.20277 2846.924487 1680.280908 3009.421593 1846.160361 L 3061.574381 1908.08869 C 3222.424558 2128.708361 3201.014466 2441.667595 2999.540013 2637.958281 L 2885.352856 2749.650446 L 3015.460337 2816.555158 C 3076.945729 2848.625186 3126.353633 2899.494884 3156.547352 2961.423213 L 3220.228651 3093.020912 L 3334.964784 2981.328748 C 3746.148341 2580.453404 3753.834015 1921.911977 3352.532038 1511.083866 C 3300.928228 1458.002441 3244.383626 1411.556195 3185.094141 1371.745126 " stroke="#000000" stroke-width="159.998993" stroke-opacity="1" stroke-miterlimit="10"/><path stroke-linecap="round" transform="matrix(0.00711551, 0, 0, -0.00706462, 1.70752, 35.905699)" fill="none" stroke-linejoin="round" d="M 3442.564219 3435.285516 L 3665.997741 3664.199161 " stroke="#000000" stroke-width="159.998993" stroke-opacity="1" stroke-miterlimit="10"/><path stroke-linecap="round" transform="matrix(0.00711551, 0, 0, -0.00706462, 1.70752, 35.905699)" fill="none" stroke-linejoin="round" d="M 2872.177415 3833.949134 L 2868.334578 4154.096478 " stroke="#000000" stroke-width="159.998993" stroke-opacity="1" stroke-miterlimit="10"/><path stroke-linecap="round" transform="matrix(0.00711551, 0, 0, -0.00706462, 1.70752, 35.905699)" fill="none" stroke-linejoin="round" d="M 3854.84573 2874.612967 L 4174.899153 2878.483487 " stroke="#000000" stroke-width="159.998993" stroke-opacity="1" stroke-miterlimit="10"/><path stroke-linecap="round" transform="matrix(0.00711551, 0, 0, -0.00706462, 1.70752, 35.905699)" fill="none" stroke-linejoin="round" d="M 1431.113546 1374.509784 L 1207.131048 1145.596139 " stroke="#000000" stroke-width="159.998993" stroke-opacity="1" stroke-miterlimit="10"/><path stroke-linecap="round" transform="matrix(0.00711551, 0, 0, -0.00706462, 1.70752, 35.905699)" fill="none" stroke-linejoin="round" d="M 1018.283059 1935.182333 L 698.229636 1931.311813 " stroke="#000000" stroke-width="159.998993" stroke-opacity="1" stroke-miterlimit="10"/><path stroke-linecap="round" transform="matrix(0.00711551, 0, 0, -0.00706462, 1.70752, 35.905699)" fill="none" stroke-linejoin="round" d="M 2001.50035 975.846166 L 2005.343187 655.698822 " stroke="#000000" stroke-width="159.998993" stroke-opacity="1" stroke-miterlimit="10"/></svg>