<svg xmlns="http://www.w3.org/2000/svg" xmlns:xlink="http://www.w3.org/1999/xlink" width="50" zoomAndPan="magnify" viewBox="0 0 37.5 37.499999" height="50" preserveAspectRatio="xMidYMid meet" version="1.0"><defs><clipPath id="175471a5bd"><path d="M 3.699219 10 L 33.230469 10 L 33.230469 35.570312 L 3.699219 35.570312 Z M 3.699219 10 " clip-rule="nonzero"/></clipPath><clipPath id="9f5ea3c86a"><path d="M 18 6.410156 L 19 6.410156 L 19 11 L 18 11 Z M 18 6.410156 " clip-rule="nonzero"/></clipPath><clipPath id="c2524f251d"><path d="M 23 1 L 37 1 L 37 10 L 23 10 Z M 23 1 " clip-rule="nonzero"/></clipPath><clipPath id="98317aa1fe"><path d="M 23.878906 0.761719 L 36.976562 4.488281 L 35.195312 10.753906 L 22.097656 7.027344 Z M 23.878906 0.761719 " clip-rule="nonzero"/></clipPath><clipPath id="1c3051e215"><path d="M 23.878906 0.761719 L 36.976562 4.488281 L 35.195312 10.753906 L 22.097656 7.027344 Z M 23.878906 0.761719 " clip-rule="nonzero"/></clipPath><clipPath id="69a7ffbce6"><path d="M 23.878906 0.761719 L 36.976562 4.488281 L 35.195312 10.753906 L 22.097656 7.027344 Z M 23.878906 0.761719 " clip-rule="nonzero"/></clipPath></defs><g clip-path="url(#175471a5bd)"><path fill="#000000" d="M 30.910156 15.976562 L 29.574219 15.976562 C 29.90625 15.671875 30.167969 15.316406 30.355469 14.910156 C 30.542969 14.503906 30.644531 14.074219 30.660156 13.625 C 30.675781 13.175781 30.601562 12.742188 30.441406 12.324219 C 30.28125 11.902344 30.046875 11.53125 29.738281 11.207031 C 29.425781 10.882812 29.066406 10.628906 28.652344 10.449219 C 28.242188 10.273438 27.8125 10.179688 27.363281 10.175781 C 26.914062 10.171875 26.480469 10.253906 26.066406 10.421875 C 25.648438 10.589844 25.28125 10.835938 24.964844 11.152344 C 24.648438 11.46875 24.402344 11.835938 24.234375 12.253906 C 24.066406 12.667969 23.984375 13.101562 23.988281 13.550781 C 23.992188 14 24.085938 14.429688 24.265625 14.839844 C 24.441406 15.253906 24.695312 15.613281 25.019531 15.925781 C 24.546875 15.847656 24.109375 15.675781 23.710938 15.410156 L 18.691406 12.082031 C 18.6875 12.078125 18.679688 12.078125 18.671875 12.074219 C 18.667969 12.070312 18.664062 12.066406 18.65625 12.0625 C 18.644531 12.054688 18.632812 12.054688 18.621094 12.050781 C 18.585938 12.03125 18.546875 12.019531 18.507812 12.015625 C 18.46875 12.011719 18.429688 12.011719 18.390625 12.015625 C 18.351562 12.019531 18.3125 12.03125 18.277344 12.050781 C 18.265625 12.054688 18.253906 12.054688 18.242188 12.0625 C 18.234375 12.066406 18.230469 12.070312 18.222656 12.074219 C 18.21875 12.078125 18.210938 12.078125 18.207031 12.082031 L 13.1875 15.410156 C 12.789062 15.675781 12.351562 15.847656 11.878906 15.925781 C 12.203125 15.613281 12.453125 15.253906 12.632812 14.839844 C 12.8125 14.429688 12.90625 13.996094 12.910156 13.546875 C 12.914062 13.097656 12.832031 12.667969 12.664062 12.25 C 12.496094 11.835938 12.25 11.46875 11.933594 11.148438 C 11.617188 10.832031 11.25 10.589844 10.832031 10.417969 C 10.417969 10.25 9.984375 10.167969 9.535156 10.171875 C 9.085938 10.175781 8.65625 10.269531 8.242188 10.449219 C 7.832031 10.625 7.46875 10.878906 7.160156 11.203125 C 6.847656 11.527344 6.613281 11.902344 6.453125 12.320312 C 6.292969 12.742188 6.21875 13.175781 6.234375 13.625 C 6.25 14.074219 6.351562 14.5 6.542969 14.910156 C 6.730469 15.316406 6.988281 15.671875 7.320312 15.976562 L 5.988281 15.976562 C 5.6875 15.976562 5.402344 16.035156 5.125 16.148438 C 4.851562 16.261719 4.605469 16.425781 4.394531 16.636719 C 4.183594 16.847656 4.023438 17.089844 3.90625 17.367188 C 3.792969 17.644531 3.734375 17.929688 3.734375 18.230469 L 3.734375 25.785156 C 3.734375 25.90625 3.777344 26.011719 3.863281 26.097656 C 3.949219 26.183594 4.054688 26.226562 4.175781 26.226562 L 6.234375 26.226562 L 6.234375 35.152344 C 6.234375 35.273438 6.277344 35.375 6.363281 35.460938 C 6.449219 35.546875 6.550781 35.589844 6.671875 35.589844 L 12.46875 35.589844 C 12.589844 35.589844 12.695312 35.546875 12.777344 35.460938 C 12.863281 35.375 12.90625 35.273438 12.90625 35.152344 L 12.90625 19.984375 L 18.449219 16.3125 L 23.988281 19.984375 L 23.988281 35.152344 C 23.988281 35.273438 24.03125 35.375 24.117188 35.460938 C 24.203125 35.546875 24.308594 35.589844 24.429688 35.589844 L 30.222656 35.589844 C 30.34375 35.589844 30.449219 35.546875 30.535156 35.460938 C 30.621094 35.375 30.664062 35.273438 30.664062 35.152344 L 30.664062 26.226562 L 32.722656 26.226562 C 32.84375 26.226562 32.949219 26.183594 33.035156 26.097656 C 33.121094 26.011719 33.160156 25.90625 33.160156 25.785156 L 33.160156 18.230469 C 33.160156 17.929688 33.105469 17.644531 32.988281 17.367188 C 32.875 17.089844 32.710938 16.847656 32.5 16.636719 C 32.289062 16.425781 32.046875 16.261719 31.769531 16.148438 C 31.496094 16.035156 31.207031 15.976562 30.910156 15.976562 Z M 24.867188 13.515625 C 24.867188 13.191406 24.929688 12.878906 25.054688 12.578125 C 25.179688 12.273438 25.355469 12.007812 25.585938 11.777344 C 25.816406 11.546875 26.082031 11.371094 26.386719 11.246094 C 26.6875 11.121094 27 11.058594 27.324219 11.058594 C 27.652344 11.058594 27.964844 11.121094 28.265625 11.246094 C 28.566406 11.371094 28.832031 11.546875 29.0625 11.777344 C 29.292969 12.007812 29.472656 12.277344 29.597656 12.578125 C 29.722656 12.878906 29.785156 13.191406 29.785156 13.519531 C 29.785156 13.84375 29.722656 14.15625 29.597656 14.457031 C 29.472656 14.757812 29.292969 15.027344 29.0625 15.257812 C 28.832031 15.488281 28.566406 15.664062 28.265625 15.789062 C 27.964844 15.914062 27.652344 15.976562 27.324219 15.976562 C 27 15.976562 26.6875 15.914062 26.386719 15.789062 C 26.082031 15.664062 25.816406 15.484375 25.585938 15.253906 C 25.355469 15.023438 25.179688 14.757812 25.054688 14.457031 C 24.929688 14.15625 24.867188 13.84375 24.867188 13.515625 Z M 7.113281 13.515625 C 7.113281 13.191406 7.175781 12.878906 7.300781 12.578125 C 7.425781 12.273438 7.601562 12.007812 7.832031 11.777344 C 8.0625 11.546875 8.328125 11.371094 8.628906 11.246094 C 8.933594 11.121094 9.246094 11.058594 9.570312 11.058594 C 9.898438 11.058594 10.210938 11.121094 10.511719 11.246094 C 10.8125 11.371094 11.078125 11.546875 11.308594 11.777344 C 11.539062 12.007812 11.71875 12.277344 11.84375 12.578125 C 11.96875 12.878906 12.03125 13.191406 12.03125 13.515625 C 12.03125 13.84375 11.96875 14.15625 11.84375 14.457031 C 11.71875 14.757812 11.539062 15.023438 11.308594 15.253906 C 11.078125 15.484375 10.8125 15.664062 10.511719 15.789062 C 10.210938 15.914062 9.898438 15.976562 9.570312 15.976562 C 9.246094 15.976562 8.933594 15.914062 8.632812 15.789062 C 8.332031 15.664062 8.066406 15.484375 7.835938 15.253906 C 7.605469 15.023438 7.425781 14.757812 7.300781 14.457031 C 7.175781 14.15625 7.113281 13.84375 7.113281 13.515625 Z M 18.007812 15.546875 L 12.226562 19.382812 C 12.09375 19.46875 12.027344 19.59375 12.027344 19.75 L 12.027344 34.710938 L 10.011719 34.710938 L 10.011719 25.785156 C 10.011719 25.664062 9.96875 25.558594 9.882812 25.472656 C 9.796875 25.390625 9.691406 25.347656 9.570312 25.347656 C 9.449219 25.347656 9.347656 25.390625 9.261719 25.472656 C 9.175781 25.558594 9.132812 25.664062 9.132812 25.785156 L 9.132812 34.710938 L 7.113281 34.710938 L 7.113281 19.945312 C 7.113281 19.824219 7.070312 19.71875 6.984375 19.632812 C 6.898438 19.546875 6.796875 19.503906 6.671875 19.503906 C 6.550781 19.503906 6.449219 19.546875 6.363281 19.632812 C 6.277344 19.71875 6.234375 19.824219 6.234375 19.945312 L 6.234375 25.347656 L 4.613281 25.347656 L 4.613281 18.230469 C 4.613281 18.046875 4.648438 17.871094 4.71875 17.703125 C 4.789062 17.535156 4.886719 17.386719 5.015625 17.257812 C 5.144531 17.128906 5.292969 17.03125 5.460938 16.960938 C 5.628906 16.890625 5.804688 16.855469 5.988281 16.855469 L 11.3125 16.855469 C 12.171875 16.855469 12.957031 16.617188 13.671875 16.144531 L 18.007812 13.269531 Z M 32.28125 25.347656 L 30.664062 25.347656 L 30.664062 19.945312 C 30.664062 19.824219 30.621094 19.71875 30.535156 19.632812 C 30.449219 19.546875 30.34375 19.503906 30.222656 19.503906 C 30.101562 19.503906 30 19.546875 29.914062 19.632812 C 29.828125 19.71875 29.785156 19.824219 29.785156 19.945312 L 29.785156 34.710938 L 27.765625 34.710938 L 27.765625 25.785156 C 27.765625 25.664062 27.722656 25.558594 27.636719 25.472656 C 27.550781 25.390625 27.449219 25.347656 27.324219 25.347656 C 27.203125 25.347656 27.101562 25.390625 27.015625 25.472656 C 26.929688 25.558594 26.886719 25.664062 26.886719 25.785156 L 26.886719 34.710938 L 24.867188 34.710938 L 24.867188 19.75 C 24.867188 19.59375 24.804688 19.46875 24.671875 19.382812 L 18.886719 15.546875 L 18.886719 13.269531 L 23.222656 16.144531 C 23.9375 16.617188 24.726562 16.855469 25.582031 16.855469 L 30.910156 16.855469 C 31.089844 16.855469 31.265625 16.890625 31.433594 16.960938 C 31.601562 17.03125 31.75 17.128906 31.878906 17.257812 C 32.007812 17.386719 32.109375 17.535156 32.179688 17.703125 C 32.246094 17.871094 32.28125 18.046875 32.28125 18.230469 Z M 32.28125 25.347656 " fill-opacity="1" fill-rule="nonzero"/></g><g clip-path="url(#9f5ea3c86a)"><path fill="#000000" d="M 18.007812 6.863281 L 18.007812 10.398438 C 18.007812 10.519531 18.050781 10.621094 18.136719 10.707031 C 18.222656 10.792969 18.328125 10.835938 18.449219 10.835938 C 18.570312 10.835938 18.671875 10.792969 18.757812 10.707031 C 18.84375 10.621094 18.886719 10.519531 18.886719 10.398438 L 18.886719 6.863281 C 18.886719 6.738281 18.84375 6.636719 18.757812 6.550781 C 18.671875 6.464844 18.570312 6.421875 18.449219 6.421875 C 18.328125 6.421875 18.222656 6.464844 18.136719 6.550781 C 18.050781 6.636719 18.007812 6.738281 18.007812 6.863281 Z M 18.007812 6.863281 " fill-opacity="1" fill-rule="nonzero"/></g><path fill="#000000" d="M 22.429688 7.96875 L 20.3125 10.085938 C 20.226562 10.171875 20.183594 10.277344 20.183594 10.398438 C 20.183594 10.519531 20.226562 10.625 20.3125 10.710938 C 20.398438 10.796875 20.5 10.839844 20.621094 10.839844 C 20.742188 10.839844 20.847656 10.792969 20.933594 10.707031 L 23.050781 8.59375 C 23.136719 8.507812 23.179688 8.402344 23.179688 8.28125 C 23.179688 8.160156 23.136719 8.054688 23.050781 7.96875 C 22.964844 7.882812 22.859375 7.839844 22.738281 7.839844 C 22.617188 7.839844 22.515625 7.882812 22.429688 7.96875 Z M 22.429688 7.96875 " fill-opacity="1" fill-rule="nonzero"/><path fill="#000000" d="M 13.714844 7.886719 C 13.628906 7.972656 13.585938 8.078125 13.585938 8.199219 C 13.585938 8.320312 13.628906 8.425781 13.714844 8.511719 L 15.914062 10.707031 C 16 10.792969 16.105469 10.839844 16.226562 10.839844 C 16.347656 10.839844 16.449219 10.796875 16.535156 10.710938 C 16.621094 10.625 16.664062 10.519531 16.664062 10.398438 C 16.664062 10.277344 16.621094 10.171875 16.535156 10.085938 L 14.335938 7.886719 C 14.25 7.800781 14.148438 7.757812 14.027344 7.757812 C 13.90625 7.757812 13.800781 7.800781 13.714844 7.886719 Z M 13.714844 7.886719 " fill-opacity="1" fill-rule="nonzero"/><g clip-path="url(#c2524f251d)"><g clip-path="url(#98317aa1fe)"><g clip-path="url(#1c3051e215)"><g clip-path="url(#69a7ffbce6)"><path fill="#000000" d="M 25.964844 3.671875 C 26.238281 3.75 26.496094 3.894531 26.746094 4.085938 C 26.960938 4.246094 27.359375 4.644531 27.917969 5.300781 C 27.925781 5.308594 27.929688 5.320312 27.933594 5.332031 C 27.933594 5.332031 27.933594 5.335938 27.933594 5.335938 C 28.03125 5.453125 28.097656 5.582031 28.121094 5.699219 C 28.15625 5.871094 28.09375 6.027344 27.894531 6.070312 C 27.824219 6.082031 27.734375 6.070312 27.640625 6.058594 L 27.636719 6.054688 L 26.902344 5.882812 C 26.902344 5.882812 26.898438 5.882812 26.898438 5.882812 C 26.390625 5.816406 26.105469 5.78125 26.058594 5.769531 C 26.058594 5.769531 26.054688 5.769531 26.054688 5.769531 C 26.054688 5.765625 26.050781 5.765625 26.046875 5.765625 C 25.953125 5.75 25.867188 5.730469 25.78125 5.707031 C 25.363281 5.585938 25.042969 5.347656 24.867188 4.964844 C 24.703125 4.609375 24.734375 4.257812 24.917969 3.953125 C 25.085938 3.675781 25.382812 3.570312 25.761719 3.628906 C 25.828125 3.636719 25.898438 3.652344 25.964844 3.671875 Z M 32.6875 7.769531 Z M 32.6875 7.769531 Z M 33.253906 6.046875 C 33.3125 6.0625 33.367188 6.082031 33.417969 6.101562 C 33.757812 6.230469 34.003906 6.425781 34.089844 6.710938 C 34.179688 7.015625 34.0625 7.304688 33.816406 7.570312 C 33.558594 7.847656 33.214844 7.921875 32.792969 7.800781 C 32.757812 7.792969 32.722656 7.78125 32.6875 7.769531 L 32.683594 7.773438 L 32.6875 7.769531 L 32.683594 7.773438 L 32.6875 7.769531 C 32.6875 7.769531 32.6875 7.769531 32.683594 7.769531 L 32.683594 7.765625 C 32.679688 7.765625 32.679688 7.765625 32.679688 7.765625 C 32.679688 7.765625 32.675781 7.765625 32.675781 7.765625 C 32.671875 7.761719 32.671875 7.761719 32.671875 7.761719 C 32.671875 7.761719 32.667969 7.761719 32.667969 7.761719 C 32.667969 7.761719 32.667969 7.761719 32.664062 7.761719 C 32.609375 7.742188 32.554688 7.722656 32.503906 7.695312 L 32.5 7.695312 C 32.148438 7.519531 31.910156 7.410156 31.792969 7.363281 C 31.707031 7.328125 31.4375 7.226562 30.980469 7.070312 C 30.894531 7.039062 30.828125 7.003906 30.769531 6.972656 C 30.574219 6.859375 30.546875 6.675781 30.640625 6.515625 C 30.664062 6.476562 30.691406 6.4375 30.726562 6.402344 C 30.730469 6.398438 30.738281 6.394531 30.742188 6.390625 C 30.746094 6.390625 30.746094 6.390625 30.746094 6.386719 L 30.75 6.386719 C 30.753906 6.382812 30.757812 6.375 30.765625 6.371094 C 31.019531 6.207031 31.449219 6.0625 32.054688 5.984375 C 32.527344 5.921875 32.929688 5.953125 33.253906 6.046875 Z M 25.363281 1.195312 C 24.789062 1.03125 24.378906 1.085938 24.132812 1.332031 C 23.554688 1.914062 23.265625 2.972656 23.335938 4.496094 C 23.414062 6.292969 23.867188 7.265625 24.539062 7.570312 C 24.765625 7.675781 24.984375 7.757812 25.191406 7.816406 C 25.480469 7.898438 25.75 7.933594 26.019531 7.898438 C 26.027344 7.898438 26.03125 7.898438 26.039062 7.902344 C 26.21875 7.949219 26.933594 7.703125 28.257812 7.210938 C 28.515625 7.117188 28.761719 7.132812 28.964844 7.179688 C 28.980469 7.183594 28.996094 7.1875 29.011719 7.191406 C 29.207031 7.246094 29.386719 7.363281 29.554688 7.527344 L 29.558594 7.535156 L 30.652344 8.984375 L 30.652344 8.988281 C 30.898438 9.265625 31.148438 9.464844 31.402344 9.605469 C 31.546875 9.683594 31.695312 9.742188 31.847656 9.785156 C 32.367188 9.933594 32.929688 9.871094 33.527344 9.550781 C 34.566406 9 35.398438 8.164062 35.996094 7.070312 C 36.519531 6.109375 36.574219 5.257812 36.148438 4.582031 C 36.019531 4.378906 35.789062 4.230469 35.46875 4.140625 C 35.207031 4.0625 34.882812 4.027344 34.5 4.027344 C 34.28125 4.023438 34.042969 4.042969 33.785156 4.101562 C 32.71875 4.347656 31.980469 4.519531 31.558594 4.582031 C 31.015625 4.664062 30.511719 4.710938 30.046875 4.71875 C 30.046875 4.71875 30.042969 4.71875 30.042969 4.71875 C 30.039062 4.71875 30.035156 4.71875 30.027344 4.71875 C 29.894531 4.691406 29.757812 4.660156 29.621094 4.621094 C 29.328125 4.535156 29.042969 4.417969 28.8125 4.210938 L 28.808594 4.207031 L 27.242188 2.328125 C 26.917969 1.996094 26.601562 1.738281 26.28125 1.570312 C 25.9375 1.394531 25.632812 1.273438 25.363281 1.195312 Z M 25.363281 1.195312 " fill-opacity="0.996" fill-rule="nonzero"/></g></g></g></g></svg>