<?xml version="1.0" standalone="no"?>
<!DOCTYPE svg PUBLIC "-//W3C//DTD SVG 1.1//EN" "http://www.w3.org/Graphics/SVG/1.1/DTD/svg11.dtd">
<svg width="223" height="68" viewBox="0 0 223 68" fill="none" xmlns="http://www.w3.org/2000/svg">
<path d="M54.3003 18.0995L56.8723 19.5999C57.3525 19.88 57.9856 20.0201 58.6183 20.0201C59.251 20.0201 59.8841 19.88 60.3643 19.5999L62.9363 18.0995C63.8966 17.5394 64.6823 16.1717 64.6823 15.0598V12.0276C64.6823 10.9158 63.8966 9.54811 62.9363 8.98775L60.3643 7.48753C59.8841 7.20722 59.251 7.06735 58.6183 7.06735C57.9856 7.06735 57.3525 7.20722 56.8723 7.48753L54.3003 8.98775C53.34 9.54811 52.5543 10.9158 52.5543 12.0276V15.0598C52.5543 15.39 52.6303 15.7418 52.7527 16.0893L35.8908 25.7883C35.6647 25.5292 35.4151 25.3056 35.149 25.1484L27.5119 20.6358C27.349 20.5395 27.164 20.4657 26.972 20.4024V13.3211C27.238 13.2517 27.4896 13.1574 27.7073 13.0306L30.2793 11.5302C31.2397 10.9701 32.0253 9.60239 32.0253 8.49056V5.45833C32.0253 4.3465 31.2397 2.9788 30.2793 2.41845L27.7073 0.918253C27.2271 0.637951 26.594 0.498047 25.9613 0.498047C25.3287 0.498047 24.6955 0.637951 24.2154 0.918253L21.6433 2.41845C20.683 2.9788 19.8974 4.3465 19.8974 5.45833V8.49056C19.8974 9.60239 20.683 10.9701 21.6433 11.5302L24.2154 13.0306C24.433 13.1574 24.6847 13.2517 24.9507 13.3211V20.2992C24.6151 20.369 24.2988 20.4781 24.0318 20.6358L16.3946 25.1484C15.4377 25.714 14.6546 27.0861 14.6546 28.1979V37.2944C14.6546 37.5063 14.6911 37.7284 14.7434 37.952L10.9752 40.1193C10.7891 39.9318 10.5912 39.7662 10.382 39.6444L7.80992 38.1441C7.32976 37.8641 6.69708 37.724 6.06396 37.724C5.43083 37.724 4.79815 37.8641 4.31799 38.1441L1.74596 39.6444C0.78563 40.2047 0 41.5724 0 42.6842V45.7165C0 46.8283 0.78563 48.196 1.74596 48.7563L4.31799 50.2565C4.79815 50.5366 5.43083 50.6767 6.06396 50.6767C6.69708 50.6767 7.32976 50.5366 7.80992 50.2565L10.382 48.7563C11.3423 48.196 12.1279 46.8283 12.1279 45.7165V42.6842C12.1279 42.42 12.081 42.1411 12.0001 41.8621L15.6845 39.7428C15.9021 39.9856 16.1414 40.1944 16.3946 40.3439L24.0318 44.8565C24.2988 45.0142 24.6151 45.1233 24.9507 45.1931V52.1712C24.6847 52.2408 24.433 52.3349 24.2154 52.4619L21.6433 53.9621C20.683 54.5222 19.8974 55.8899 19.8974 57.0017V60.034C19.8974 61.1458 20.683 62.5135 21.6433 63.0738L24.2154 64.5741C24.6955 64.8544 25.3287 64.9942 25.9613 64.9942C26.594 64.9942 27.2271 64.8544 27.7073 64.5741L30.2793 63.0738C31.2397 62.5135 32.0253 61.1458 32.0253 60.034V57.0017C32.0253 55.8899 31.2397 54.5222 30.2793 53.9621L27.7073 52.4619C27.4896 52.3349 27.238 52.2408 26.972 52.1712V45.09C27.164 45.0266 27.349 44.9528 27.5119 44.8565L35.149 40.3439C35.3563 40.2212 35.5532 40.0552 35.7383 39.8677L52.1284 46.7856C52.0816 46.9946 52.049 47.2021 52.049 47.4007V50.433C52.049 51.5448 52.8346 52.9125 53.795 53.4726L56.367 54.9728C56.8472 55.2531 57.4803 55.393 58.113 55.393C58.7456 55.393 59.3788 55.2531 59.8589 54.9728L62.431 53.4726C63.3913 52.9125 64.1769 51.5448 64.1769 50.433V47.4007C64.1769 46.2889 63.3913 44.9212 62.431 44.3609L59.8589 42.8606C59.3788 42.5803 58.7456 42.4405 58.113 42.4405C57.4803 42.4405 56.8472 42.5803 56.367 42.8606L53.795 44.3609C53.5319 44.5143 53.2847 44.732 53.0602 44.9848L36.7642 38.1066C36.8427 37.8308 36.8891 37.5554 36.8891 37.2944V28.1979C36.8891 28.0018 36.857 27.797 36.8116 27.5907L53.87 17.7785C54.0086 17.9006 54.1513 18.0124 54.3003 18.0995ZM10.1066 45.7165C10.1066 46.1105 9.70339 46.8118 9.36341 47.0104L6.79138 48.5106C6.69905 48.5643 6.44245 48.6552 6.06396 48.6552C5.68547 48.6552 5.42886 48.5643 5.33653 48.5106L2.7645 47.0104C2.42452 46.8118 2.02132 46.1105 2.02132 45.7165V42.6842C2.02132 42.2902 2.42452 41.5889 2.7645 41.3903L5.33653 39.8901C5.42886 39.8363 5.68597 39.7453 6.06396 39.7453C6.44195 39.7453 6.69905 39.8363 6.79138 39.8901L9.36341 41.3903C9.70339 41.5889 10.1066 42.2902 10.1066 42.6842V45.7165ZM54.0703 47.4007C54.0703 47.0067 54.473 46.3054 54.8135 46.1068L57.3855 44.6066C57.4779 44.5528 57.735 44.4618 58.113 44.4618C58.491 44.4618 58.7481 44.5528 58.8404 44.6066L61.4124 46.1068C61.7529 46.3054 62.1556 47.0067 62.1556 47.4007V50.433C62.1556 50.827 61.7529 51.528 61.4124 51.7266L58.8404 53.2268C58.7481 53.2806 58.491 53.3717 58.113 53.3717C57.735 53.3717 57.4779 53.2806 57.3855 53.2268L54.8135 51.7266C54.473 51.528 54.0703 50.827 54.0703 50.433V47.4007ZM22.6619 9.7842C22.3214 9.58561 21.9187 8.88461 21.9187 8.49056V5.45833C21.9187 5.06427 22.3214 4.36303 22.6619 4.1644L25.2339 2.6642C25.3262 2.61042 25.5833 2.51937 25.9613 2.51937C26.3393 2.51937 26.5964 2.61042 26.6888 2.6642L29.2608 4.1644C29.6013 4.36303 30.004 5.06427 30.004 5.45833V8.49056C30.004 8.88461 29.6013 9.58561 29.2608 9.7842L26.6888 11.2847C26.5969 11.3384 26.3398 11.4293 25.9613 11.4293C25.5828 11.4293 25.3257 11.3384 25.2339 11.2847L22.6619 9.7842ZM29.2608 55.7081C29.6013 55.9067 30.004 56.6077 30.004 57.0017V60.034C30.004 60.428 29.6013 61.1293 29.2608 61.3279L26.6888 62.8281C26.5964 62.8819 26.3393 62.9729 25.9613 62.9729C25.5833 62.9729 25.3262 62.8819 25.2339 62.8281L22.6619 61.3279C22.3214 61.1293 21.9187 60.428 21.9187 60.034V57.0017C21.9187 56.6077 22.3214 55.9067 22.6619 55.7081L25.2339 54.2079C25.3262 54.1541 25.5833 54.063 25.9613 54.063C26.3393 54.063 26.5964 54.1541 26.6888 54.2079L29.2608 55.7081ZM34.8678 37.2944C34.8678 37.6919 34.4626 38.4015 34.1206 38.6036L26.4834 43.1165C26.3936 43.1696 26.1424 43.2594 25.7718 43.2594C25.4012 43.2594 25.15 43.1696 25.0602 43.1163L17.423 38.6038C17.0811 38.4015 16.6759 37.6919 16.6759 37.2944V28.1979C16.6759 27.8004 17.0811 27.0908 17.423 26.8887L25.0602 22.3758C25.15 22.3227 25.4012 22.2329 25.7718 22.2329C26.1424 22.2329 26.3936 22.3227 26.4834 22.376L34.1206 26.8885C34.4626 27.0908 34.8678 27.8004 34.8678 28.1979V37.2944ZM54.5757 12.0276C54.5757 11.6336 54.9783 10.9323 55.3188 10.7337L57.8909 9.23349C57.9832 9.17973 58.2403 9.08867 58.6183 9.08867C58.9963 9.08867 59.2534 9.17973 59.3457 9.23349L61.9177 10.7337C62.2582 10.9323 62.6609 11.6336 62.6609 12.0276V15.0598C62.6609 15.4539 62.2582 16.1549 61.9177 16.3535L59.3457 17.854C59.2539 17.9077 58.9968 17.9985 58.6183 17.9985C58.2398 17.9985 57.9827 17.9077 57.8909 17.854L55.3188 16.3535C54.9783 16.1549 54.5757 15.4539 54.5757 15.0598V12.0276Z" fill="#CC0130"/>
<path d="M83.8696 13.8501V0.1875H93.0758V2.56911H86.7582V5.82464H92.6021V8.20625H86.7582V11.4685H93.1025V13.8501H83.8696Z" fill="#3B3838"/>
<path d="M101.89 9.48711V3.60314H104.732V13.8501H102.003V11.9888H101.897C101.665 12.5892 101.281 13.0718 100.743 13.4364C100.209 13.8011 99.5574 13.9835 98.788 13.9835C98.1031 13.9835 97.5004 13.8278 96.9801 13.5165C96.4597 13.2052 96.0528 12.7627 95.7593 12.1889C95.4702 11.6152 95.3234 10.9281 95.319 10.1275V3.60314H98.1609V9.62054C98.1653 10.2254 98.3277 10.7035 98.6479 11.0548C98.9681 11.4062 99.3973 11.5819 99.9354 11.5819C100.278 11.5819 100.598 11.504 100.896 11.3484C101.194 11.1883 101.434 10.9525 101.617 10.6412C101.803 10.3299 101.895 9.9452 101.89 9.48711Z" fill="#3B3838"/>
<path d="M107.312 13.8501V3.60314H108.833V5.15085H108.94C109.127 4.64384 109.465 4.23245 109.954 3.91668C110.443 3.60092 110.995 3.44303 111.608 3.44303C111.724 3.44303 111.868 3.44526 112.042 3.4497C112.215 3.45415 112.347 3.46082 112.436 3.46972V5.0708C112.382 5.05746 112.26 5.03744 112.069 5.01076C111.882 4.97963 111.684 4.96406 111.475 4.96406C110.977 4.96406 110.532 5.06857 110.141 5.2776C109.754 5.48219 109.447 5.76682 109.22 6.13151C108.998 6.49176 108.886 6.90315 108.886 7.36568V13.8501H107.312Z" fill="#3B3838"/>
<path d="M118.153 14.0635C117.228 14.0635 116.416 13.8434 115.718 13.4031C115.024 12.9628 114.481 12.3468 114.09 11.5552C113.703 10.7635 113.51 9.83846 113.51 8.77997C113.51 7.71258 113.703 6.78084 114.09 5.98475C114.481 5.18865 115.024 4.57046 115.718 4.13016C116.416 3.68987 117.228 3.46972 118.153 3.46972C119.078 3.46972 119.887 3.68987 120.581 4.13016C121.279 4.57046 121.822 5.18865 122.209 5.98475C122.6 6.78084 122.796 7.71258 122.796 8.77997C122.796 9.83846 122.6 10.7635 122.209 11.5552C121.822 12.3468 121.279 12.9628 120.581 13.4031C119.887 13.8434 119.078 14.0635 118.153 14.0635ZM118.153 12.6492C118.855 12.6492 119.434 12.4691 119.887 12.1089C120.341 11.7486 120.677 11.275 120.895 10.6879C121.112 10.1009 121.221 9.46488 121.221 8.77997C121.221 8.09506 121.112 7.45685 120.895 6.86534C120.677 6.27383 120.341 5.79573 119.887 5.43104C119.434 5.06635 118.855 4.884 118.153 4.884C117.45 4.884 116.872 5.06635 116.418 5.43104C115.965 5.79573 115.629 6.27383 115.411 6.86534C115.193 7.45685 115.084 8.09506 115.084 8.77997C115.084 9.46488 115.193 10.1009 115.411 10.6879C115.629 11.275 115.965 11.7486 116.418 12.1089C116.872 12.4691 117.45 12.6492 118.153 12.6492Z" fill="#3B3838"/>
<path d="M125.199 17.6927V3.60314H126.72V5.23091H126.907C127.023 5.05301 127.183 4.82619 127.387 4.55045C127.596 4.27026 127.894 4.0212 128.281 3.80328C128.673 3.5809 129.202 3.46972 129.869 3.46972C130.732 3.46972 131.492 3.68542 132.15 4.11682C132.809 4.54822 133.322 5.15975 133.692 5.95139C134.061 6.74304 134.245 7.677 134.245 8.75328C134.245 9.83846 134.061 10.7791 133.692 11.5752C133.322 12.3668 132.811 12.9806 132.157 13.4164C131.503 13.8478 130.75 14.0635 129.896 14.0635C129.237 14.0635 128.71 13.9546 128.315 13.7367C127.919 13.5143 127.614 13.263 127.401 12.9828C127.187 12.6982 127.023 12.4625 126.907 12.2757H126.774V17.6927H125.199ZM126.747 8.7266C126.747 9.50045 126.86 10.1831 127.087 10.7746C127.314 11.3617 127.645 11.822 128.081 12.1556C128.517 12.4847 129.051 12.6492 129.682 12.6492C130.34 12.6492 130.89 12.4758 131.33 12.1289C131.775 11.7775 132.108 11.3061 132.331 10.7146C132.557 10.1187 132.671 9.45598 132.671 8.7266C132.671 8.00611 132.56 7.35679 132.337 6.77862C132.119 6.196 131.788 5.73569 131.343 5.39768C130.903 5.05523 130.349 4.884 129.682 4.884C129.042 4.884 128.504 5.04634 128.068 5.371C127.632 5.69122 127.303 6.14041 127.08 6.71858C126.858 7.2923 126.747 7.96164 126.747 8.7266Z" fill="#3B3838"/>
<path d="M140.943 14.0635C139.956 14.0635 139.104 13.8456 138.388 13.4098C137.676 12.9695 137.127 12.3557 136.74 11.5685C136.358 10.7769 136.167 9.85625 136.167 8.80665C136.167 7.75706 136.358 6.83199 136.74 6.03145C137.127 5.22646 137.665 4.59937 138.355 4.15018C139.048 3.69654 139.858 3.46972 140.783 3.46972C141.317 3.46972 141.844 3.55866 142.364 3.73656C142.884 3.91446 143.358 4.20355 143.785 4.60382C144.212 4.99964 144.552 5.52444 144.806 6.17821C145.059 6.83199 145.186 7.63697 145.186 8.59318V9.26029H137.287V7.89937H143.585C143.585 7.32121 143.469 6.8053 143.238 6.35166C143.011 5.89802 142.686 5.54 142.264 5.2776C141.846 5.0152 141.352 4.884 140.783 4.884C140.156 4.884 139.613 5.03967 139.155 5.35099C138.702 5.65786 138.352 6.05813 138.108 6.5518C137.863 7.04546 137.741 7.57471 137.741 8.13954V9.04682C137.741 9.82067 137.874 10.4767 138.141 11.0148C138.412 11.5485 138.788 11.9554 139.269 12.2356C139.749 12.5114 140.307 12.6492 140.943 12.6492C141.357 12.6492 141.73 12.5914 142.064 12.4758C142.402 12.3557 142.693 12.1778 142.938 11.9421C143.182 11.7019 143.371 11.404 143.505 11.0482L145.026 11.4751C144.866 11.991 144.597 12.4447 144.219 12.836C143.841 13.223 143.374 13.5254 142.818 13.7433C142.262 13.9568 141.637 14.0635 140.943 14.0635Z" fill="#3B3838"/>
<path d="M150.596 14.0902C149.947 14.0902 149.358 13.9679 148.828 13.7233C148.299 13.4742 147.879 13.1162 147.568 12.6492C147.256 12.1778 147.101 11.6085 147.101 10.9414C147.101 10.3544 147.216 9.87849 147.447 9.5138C147.679 9.14466 147.988 8.85558 148.375 8.64655C148.762 8.43752 149.189 8.28185 149.656 8.17956C150.127 8.07282 150.601 7.98832 151.077 7.92606C151.699 7.846 152.204 7.78596 152.591 7.74594C152.982 7.70146 153.267 7.62808 153.445 7.52579C153.627 7.4235 153.718 7.2456 153.718 6.99209V6.93872C153.718 6.2805 153.538 5.76905 153.178 5.40436C152.822 5.03966 152.282 4.85732 151.557 4.85732C150.805 4.85732 150.216 5.02188 149.789 5.35099C149.362 5.6801 149.062 6.03145 148.888 6.40503L147.394 5.87134C147.661 5.24869 148.017 4.76392 148.462 4.41702C148.911 4.06567 149.4 3.82106 149.929 3.68319C150.463 3.54088 150.988 3.46972 151.504 3.46972C151.833 3.46972 152.211 3.50974 152.638 3.5898C153.069 3.6654 153.485 3.82329 153.885 4.06345C154.29 4.30361 154.626 4.66608 154.893 5.15085C155.159 5.63562 155.293 6.28495 155.293 7.09883V13.8501H153.718V12.4625H153.638C153.532 12.6848 153.354 12.9228 153.105 13.1763C152.856 13.4298 152.524 13.6455 152.111 13.8234C151.697 14.0013 151.192 14.0902 150.596 14.0902ZM150.836 12.6759C151.459 12.6759 151.984 12.5536 152.411 12.309C152.842 12.0644 153.167 11.7486 153.385 11.3617C153.607 10.9748 153.718 10.5678 153.718 10.1409V8.69991C153.652 8.77997 153.505 8.85335 153.278 8.92006C153.056 8.98233 152.798 9.03792 152.504 9.08684C152.215 9.13132 151.933 9.17134 151.657 9.20692C151.386 9.23806 151.166 9.26474 150.997 9.28698C150.587 9.34035 150.205 9.42707 149.849 9.54715C149.498 9.66279 149.213 9.83846 148.995 10.0742C148.782 10.3054 148.675 10.6212 148.675 11.0215C148.675 11.5685 148.877 11.9821 149.282 12.2623C149.691 12.5381 150.209 12.6759 150.836 12.6759Z" fill="#3B3838"/>
<path d="M159.741 7.6859V13.8501H158.166V3.60314H159.687V5.20422H159.821C160.061 4.68387 160.426 4.26581 160.915 3.95004C161.404 3.62983 162.036 3.46972 162.81 3.46972C163.503 3.46972 164.11 3.61203 164.631 3.89667C165.151 4.17686 165.556 4.60382 165.845 5.17754C166.134 5.74681 166.279 6.4673 166.279 7.339V13.8501H164.704V7.44573C164.704 6.64075 164.495 6.01366 164.077 5.56446C163.659 5.11082 163.085 4.884 162.356 4.884C161.853 4.884 161.404 4.99297 161.008 5.21089C160.617 5.42882 160.308 5.74681 160.081 6.16487C159.854 6.58293 159.741 7.08994 159.741 7.6859Z" fill="#3B3838"/>
<path d="M83.8696 38.8501V25.1875H89.2599C90.2917 25.1875 91.1723 25.3721 91.9016 25.7412C92.6355 26.1059 93.1936 26.624 93.5761 27.2956C93.963 27.9627 94.1565 28.7477 94.1565 29.6505C94.1565 30.5578 93.9608 31.3383 93.5694 31.9921C93.1781 32.6414 92.611 33.1395 91.8683 33.4864C91.13 33.8333 90.2361 34.0068 89.1865 34.0068H85.5774V31.6852H88.7195C89.271 31.6852 89.7291 31.6096 90.0938 31.4584C90.4585 31.3072 90.7297 31.0804 90.9076 30.7779C91.09 30.4755 91.1812 30.0997 91.1812 29.6505C91.1812 29.1969 91.09 28.8144 90.9076 28.5031C90.7297 28.1918 90.4562 27.956 90.0871 27.7959C89.7224 27.6314 89.2621 27.5491 88.7062 27.5491H86.7582V38.8501H83.8696ZM91.2479 32.6325L94.6435 38.8501H91.4547L88.1324 32.6325H91.2479Z" fill="#3B3838"/>
<path d="M100.649 39.0502C99.5952 39.0502 98.6879 38.8367 97.9274 38.4098C97.1713 37.9784 96.5887 37.3691 96.1795 36.5819C95.7704 35.7902 95.5658 34.854 95.5658 33.7733C95.5658 32.7193 95.7704 31.7942 96.1795 30.9981C96.5887 30.202 97.1646 29.5816 97.9074 29.1368C98.6545 28.6921 99.5307 28.4697 100.536 28.4697C101.212 28.4697 101.841 28.5787 102.424 28.7966C103.011 29.0101 103.522 29.3325 103.958 29.7639C104.398 30.1953 104.741 30.7379 104.985 31.3917C105.23 32.041 105.352 32.8015 105.352 33.6732V34.4538H96.6999V32.6926H102.677C102.677 32.2834 102.588 31.9209 102.41 31.6052C102.233 31.2894 101.986 31.0426 101.67 30.8647C101.359 30.6823 100.996 30.5911 100.583 30.5911C100.151 30.5911 99.7686 30.6912 99.4351 30.8913C99.106 31.087 98.848 31.3517 98.6612 31.6852C98.4744 32.0143 98.3788 32.3812 98.3744 32.786V34.4604C98.3744 34.9674 98.4677 35.4055 98.6545 35.7747C98.8458 36.1438 99.1149 36.4284 99.4618 36.6286C99.8087 36.8287 100.22 36.9288 100.696 36.9288C101.012 36.9288 101.301 36.8843 101.563 36.7953C101.826 36.7064 102.05 36.573 102.237 36.3951C102.424 36.2172 102.566 35.9992 102.664 35.7413L105.292 35.9147C105.159 36.5463 104.885 37.0978 104.472 37.5692C104.063 38.0362 103.533 38.4009 102.884 38.6633C102.239 38.9212 101.494 39.0502 100.649 39.0502Z" fill="#3B3838"/>
<path d="M107.207 42.6927V28.6031H110.009V30.3243H110.136C110.26 30.0486 110.44 29.7684 110.676 29.4837C110.916 29.1947 111.227 28.9545 111.61 28.7632C111.997 28.5676 112.477 28.4697 113.051 28.4697C113.798 28.4697 114.487 28.6654 115.119 29.0568C115.751 29.4437 116.255 30.0285 116.633 30.8113C117.011 31.5896 117.2 32.5658 117.2 33.7399C117.2 34.8829 117.016 35.848 116.647 36.6352C116.282 37.418 115.784 38.0117 115.152 38.4164C114.525 38.8167 113.823 39.0168 113.044 39.0168C112.493 39.0168 112.024 38.9257 111.637 38.7433C111.254 38.561 110.941 38.3319 110.696 38.0562C110.451 37.776 110.265 37.4936 110.136 37.209H110.049V42.6927H107.207ZM109.989 33.7266C109.989 34.3359 110.073 34.8674 110.242 35.321C110.411 35.7747 110.656 36.1282 110.976 36.3817C111.296 36.6308 111.686 36.7553 112.144 36.7553C112.606 36.7553 112.998 36.6286 113.318 36.3751C113.638 36.1171 113.88 35.7613 114.045 35.3077C114.214 34.8496 114.298 34.3226 114.298 33.7266C114.298 33.1351 114.216 32.6147 114.052 32.1655C113.887 31.7164 113.645 31.365 113.324 31.1115C113.004 30.858 112.611 30.7312 112.144 30.7312C111.681 30.7312 111.29 30.8535 110.97 31.0982C110.654 31.3428 110.411 31.6897 110.242 32.1389C110.073 32.5881 109.989 33.1173 109.989 33.7266Z" fill="#3B3838"/>
<path d="M123.725 39.0502C122.689 39.0502 121.792 38.83 121.036 38.3897C120.285 37.945 119.704 37.3268 119.295 36.5352C118.886 35.7391 118.681 34.8162 118.681 33.7666C118.681 32.7081 118.886 31.7831 119.295 30.9914C119.704 30.1953 120.285 29.5771 121.036 29.1368C121.792 28.6921 122.689 28.4697 123.725 28.4697C124.761 28.4697 125.655 28.6921 126.407 29.1368C127.163 29.5771 127.745 30.1953 128.154 30.9914C128.564 31.7831 128.768 32.7081 128.768 33.7666C128.768 34.8162 128.564 35.7391 128.154 36.5352C127.745 37.3268 127.163 37.945 126.407 38.3897C125.655 38.83 124.761 39.0502 123.725 39.0502ZM123.738 36.8487C124.21 36.8487 124.603 36.7153 124.919 36.4484C125.235 36.1771 125.473 35.808 125.633 35.341C125.797 34.874 125.88 34.3426 125.88 33.7466C125.88 33.1507 125.797 32.6192 125.633 32.1522C125.473 31.6852 125.235 31.3161 124.919 31.0448C124.603 30.7735 124.21 30.6378 123.738 30.6378C123.262 30.6378 122.862 30.7735 122.537 31.0448C122.217 31.3161 121.975 31.6852 121.81 32.1522C121.65 32.6192 121.57 33.1507 121.57 33.7466C121.57 34.3426 121.65 34.874 121.81 35.341C121.975 35.808 122.217 36.1771 122.537 36.4484C122.862 36.7153 123.262 36.8487 123.738 36.8487Z" fill="#3B3838"/>
<path d="M138.181 30.898L136.767 31.2983C136.678 31.0626 136.547 30.8335 136.373 30.6112C136.204 30.3843 135.973 30.1976 135.68 30.0508C135.386 29.904 135.01 29.8306 134.552 29.8306C133.925 29.8306 133.402 29.9752 132.984 30.2643C132.571 30.5489 132.364 30.9114 132.364 31.3517C132.364 31.743 132.506 32.0521 132.791 32.279C133.076 32.5058 133.52 32.6948 134.125 32.846L135.646 33.2196C136.562 33.442 137.245 33.7822 137.694 34.2403C138.143 34.6939 138.368 35.2788 138.368 35.9948C138.368 36.5819 138.199 37.1067 137.861 37.5692C137.527 38.0317 137.06 38.3964 136.46 38.6633C135.86 38.9301 135.161 39.0635 134.365 39.0635C133.32 39.0635 132.455 38.8367 131.77 38.3831C131.085 37.9294 130.652 37.2668 130.469 36.3951L131.964 36.0215C132.106 36.573 132.375 36.9866 132.771 37.2623C133.171 37.5381 133.694 37.6759 134.339 37.6759C135.072 37.6759 135.655 37.5203 136.086 37.209C136.522 36.8932 136.74 36.5151 136.74 36.0749C136.74 35.7191 136.616 35.4211 136.367 35.1809C136.118 34.9363 135.735 34.754 135.219 34.6339L133.511 34.2336C132.573 34.0112 131.884 33.6666 131.443 33.1996C131.007 32.7281 130.79 32.1389 130.79 31.4317C130.79 30.8535 130.952 30.3421 131.277 29.8973C131.606 29.4526 132.053 29.1035 132.617 28.85C133.187 28.5965 133.832 28.4697 134.552 28.4697C135.566 28.4697 136.362 28.6921 136.94 29.1368C137.523 29.5816 137.937 30.1686 138.181 30.898Z" fill="#3B3838"/>
<path d="M140.738 38.8501V28.6031H142.312V38.8501H140.738ZM141.538 26.8953C141.232 26.8953 140.967 26.7908 140.745 26.5818C140.527 26.3727 140.418 26.1215 140.418 25.8279C140.418 25.5344 140.527 25.2831 140.745 25.0741C140.967 24.8651 141.232 24.7605 141.538 24.7605C141.845 24.7605 142.108 24.8651 142.326 25.0741C142.548 25.2831 142.659 25.5344 142.659 25.8279C142.659 26.1215 142.548 26.3727 142.326 26.5818C142.108 26.7908 141.845 26.8953 141.538 26.8953Z" fill="#3B3838"/>
<path d="M149.652 28.6031V29.9374H144.342V28.6031H149.652ZM145.89 26.1481H147.464V35.9147C147.464 36.3595 147.529 36.693 147.658 36.9154C147.791 37.1333 147.96 37.2801 148.165 37.3557C148.374 37.4269 148.594 37.4625 148.825 37.4625C148.999 37.4625 149.141 37.4536 149.252 37.4358C149.363 37.4135 149.452 37.3957 149.519 37.3824L149.839 38.7967C149.732 38.8367 149.583 38.8767 149.392 38.9168C149.201 38.9612 148.959 38.9835 148.665 38.9835C148.22 38.9835 147.784 38.8879 147.357 38.6966C146.935 38.5054 146.584 38.2141 146.303 37.8227C146.028 37.4313 145.89 36.9377 145.89 36.3417V26.1481Z" fill="#3B3838"/>
<path d="M156.073 39.0635C155.148 39.0635 154.337 38.8434 153.638 38.4031C152.945 37.9628 152.402 37.3468 152.011 36.5552C151.624 35.7635 151.43 34.8385 151.43 33.78C151.43 32.7126 151.624 31.7808 152.011 30.9847C152.402 30.1887 152.945 29.5705 153.638 29.1302C154.337 28.6899 155.148 28.4697 156.073 28.4697C156.998 28.4697 157.808 28.6899 158.502 29.1302C159.2 29.5705 159.742 30.1887 160.129 30.9847C160.521 31.7808 160.716 32.7126 160.716 33.78C160.716 34.8385 160.521 35.7635 160.129 36.5552C159.742 37.3468 159.2 37.9628 158.502 38.4031C157.808 38.8434 156.998 39.0635 156.073 39.0635ZM156.073 37.6493C156.776 37.6493 157.354 37.4691 157.808 37.1089C158.261 36.7486 158.597 36.275 158.815 35.6879C159.033 35.1009 159.142 34.4649 159.142 33.78C159.142 33.0951 159.033 32.4569 158.815 31.8653C158.597 31.2738 158.261 30.7957 157.808 30.431C157.354 30.0664 156.776 29.884 156.073 29.884C155.371 29.884 154.792 30.0664 154.339 30.431C153.885 30.7957 153.549 31.2738 153.331 31.8653C153.114 32.4569 153.005 33.0951 153.005 33.78C153.005 34.4649 153.114 35.1009 153.331 35.6879C153.549 36.275 153.885 36.7486 154.339 37.1089C154.792 37.4691 155.371 37.6493 156.073 37.6493Z" fill="#3B3838"/>
<path d="M163.12 38.8501V28.6031H164.641V30.1509H164.748C164.934 29.6438 165.272 29.2325 165.762 28.9167C166.251 28.6009 166.802 28.443 167.416 28.443C167.532 28.443 167.676 28.4453 167.85 28.4497C168.023 28.4542 168.154 28.4608 168.243 28.4697V30.0708C168.19 30.0575 168.068 30.0374 167.876 30.0108C167.689 29.9796 167.492 29.9641 167.283 29.9641C166.784 29.9641 166.34 30.0686 165.948 30.2776C165.561 30.4822 165.255 30.7668 165.028 31.1315C164.805 31.4918 164.694 31.9031 164.694 32.3657V38.8501H163.12Z" fill="#3B3838"/>
<path d="M171.435 42.6927C171.169 42.6927 170.931 42.6704 170.722 42.6259C170.513 42.5859 170.368 42.5459 170.288 42.5059L170.688 41.1183C171.071 41.2161 171.409 41.2517 171.702 41.225C171.996 41.1983 172.256 41.0671 172.483 40.8314C172.714 40.6001 172.925 40.2243 173.116 39.704L173.41 38.9034L169.621 28.6031H171.329L174.157 36.7687H174.264L177.093 28.6031H178.8L174.451 40.3444C174.255 40.8736 174.013 41.3117 173.724 41.6586C173.434 42.01 173.099 42.2701 172.716 42.4391C172.338 42.6082 171.911 42.6927 171.435 42.6927Z" fill="#3B3838"/>
<path d="M190.325 39.0635C189.4 39.0635 188.588 38.8434 187.89 38.4031C187.196 37.9628 186.653 37.3468 186.262 36.5552C185.875 35.7635 185.682 34.8385 185.682 33.78C185.682 32.7126 185.875 31.7808 186.262 30.9847C186.653 30.1887 187.196 29.5705 187.89 29.1302C188.588 28.6899 189.4 28.4697 190.325 28.4697C191.25 28.4697 192.059 28.6899 192.753 29.1302C193.451 29.5705 193.994 30.1887 194.381 30.9847C194.772 31.7808 194.968 32.7126 194.968 33.78C194.968 34.8385 194.772 35.7635 194.381 36.5552C193.994 37.3468 193.451 37.9628 192.753 38.4031C192.059 38.8434 191.25 39.0635 190.325 39.0635ZM190.325 37.6493C191.027 37.6493 191.606 37.4691 192.059 37.1089C192.513 36.7486 192.849 36.275 193.067 35.6879C193.285 35.1009 193.394 34.4649 193.394 33.78C193.394 33.0951 193.285 32.4569 193.067 31.8653C192.849 31.2738 192.513 30.7957 192.059 30.431C191.606 30.0664 191.027 29.884 190.325 29.884C189.622 29.884 189.044 30.0664 188.59 30.431C188.137 30.7957 187.801 31.2738 187.583 31.8653C187.365 32.4569 187.256 33.0951 187.256 33.78C187.256 34.4649 187.365 35.1009 187.583 35.6879C187.801 36.275 188.137 36.7486 188.59 37.1089C189.044 37.4691 189.622 37.6493 190.325 37.6493Z" fill="#3B3838"/>
<path d="M201.934 28.6031V29.9374H196.411V28.6031H201.934ZM198.065 38.8501V27.1889C198.065 26.6018 198.203 26.1126 198.479 25.7212C198.754 25.3298 199.112 25.0363 199.553 24.8406C199.993 24.6449 200.458 24.5471 200.947 24.5471C201.334 24.5471 201.65 24.5782 201.894 24.6405C202.139 24.7027 202.321 24.7605 202.441 24.8139L201.988 26.1748C201.908 26.1481 201.796 26.1148 201.654 26.0748C201.516 26.0347 201.334 26.0147 201.107 26.0147C200.587 26.0147 200.211 26.1459 199.98 26.4083C199.753 26.6707 199.639 27.0554 199.639 27.5624V38.8501H198.065Z" fill="#3B3838"/>
<path d="M95.9244 54.9707H93.0024C92.949 54.5927 92.8401 54.2569 92.6755 53.9634C92.5109 53.6654 92.2997 53.4119 92.0417 53.2029C91.7838 52.9938 91.4858 52.8337 91.1478 52.7225C90.8142 52.6114 90.4518 52.5558 90.0604 52.5558C89.3533 52.5558 88.7373 52.7314 88.2125 53.0828C87.6877 53.4297 87.2807 53.9367 86.9917 54.6038C86.7026 55.2665 86.558 56.0715 86.558 57.0188C86.558 57.9928 86.7026 58.8111 86.9917 59.4738C87.2852 60.1364 87.6944 60.6368 88.2192 60.9748C88.744 61.3128 89.351 61.4818 90.0404 61.4818C90.4273 61.4818 90.7853 61.4306 91.1144 61.3284C91.448 61.2261 91.7438 61.0771 92.0017 60.8814C92.2597 60.6813 92.4731 60.4389 92.6421 60.1542C92.8156 59.8696 92.9357 59.5449 93.0024 59.1802L95.9244 59.1936C95.8488 59.8207 95.6597 60.4255 95.3573 61.0081C95.0593 61.5863 94.6568 62.1044 94.1498 62.5625C93.6473 63.0162 93.0469 63.3764 92.3486 63.6432C91.6548 63.9056 90.8698 64.0368 89.9937 64.0368C88.7751 64.0368 87.6855 63.7611 86.7248 63.2096C85.7686 62.6581 85.0126 61.8598 84.4566 60.8147C83.9051 59.7695 83.6294 58.5042 83.6294 57.0188C83.6294 55.5289 83.9096 54.2614 84.47 53.2162C85.0303 52.1711 85.7909 51.375 86.7515 50.8279C87.7122 50.2765 88.7929 50.0007 89.9937 50.0007C90.7853 50.0007 91.5192 50.1119 92.1952 50.3343C92.8756 50.5566 93.4783 50.8813 94.0031 51.3083C94.5279 51.7308 94.9548 52.2489 95.2839 52.8626C95.6175 53.4764 95.831 54.1791 95.9244 54.9707Z" fill="#3B3838"/>
<path d="M99.2633 67.6927C98.9964 67.6927 98.7585 67.6704 98.5495 67.6259C98.3404 67.5859 98.1959 67.5459 98.1158 67.5059L98.5161 66.1183C98.8986 66.2161 99.2366 66.2517 99.5301 66.225C99.8237 66.1983 100.084 66.0671 100.311 65.8314C100.542 65.6001 100.753 65.2243 100.944 64.704L101.238 63.9034L97.4487 53.6031H99.1565L101.985 61.7687H102.092L104.92 53.6031H106.628L102.279 65.3444C102.083 65.8736 101.841 66.3117 101.551 66.6586C101.262 67.01 100.927 67.2701 100.544 67.4391C100.166 67.6082 99.7392 67.6927 99.2633 67.6927Z" fill="#3B3838"/>
<path d="M108.92 63.8501V50.1875H110.494V55.2309H110.628C110.743 55.053 110.903 54.8262 111.108 54.5504C111.317 54.2703 111.615 54.0212 112.002 53.8033C112.393 53.5809 112.923 53.4697 113.59 53.4697C114.452 53.4697 115.213 53.6854 115.871 54.1168C116.529 54.5482 117.043 55.1597 117.412 55.9514C117.781 56.743 117.966 57.677 117.966 58.7533C117.966 59.8385 117.781 60.7791 117.412 61.5752C117.043 62.3668 116.532 62.9806 115.878 63.4164C115.224 63.8478 114.47 64.0635 113.616 64.0635C112.958 64.0635 112.431 63.9546 112.035 63.7366C111.639 63.5143 111.335 63.263 111.121 62.9828C110.908 62.6982 110.743 62.4625 110.628 62.2757H110.441V63.8501H108.92ZM110.468 58.7266C110.468 59.5005 110.581 60.1831 110.808 60.7747C111.035 61.3617 111.366 61.822 111.802 62.1556C112.238 62.4847 112.771 62.6492 113.403 62.6492C114.061 62.6492 114.61 62.4758 115.051 62.1289C115.495 61.7775 115.829 61.3061 116.051 60.7146C116.278 60.1186 116.392 59.456 116.392 58.7266C116.392 58.0061 116.28 57.3568 116.058 56.7786C115.84 56.196 115.509 55.7357 115.064 55.3977C114.624 55.0552 114.07 54.884 113.403 54.884C112.762 54.884 112.224 55.0463 111.788 55.371C111.353 55.6912 111.023 56.1404 110.801 56.7186C110.579 57.2923 110.468 57.9616 110.468 58.7266Z" fill="#3B3838"/>
<path d="M124.67 64.0635C123.683 64.0635 122.831 63.8456 122.115 63.4098C121.404 62.9695 120.855 62.3557 120.468 61.5685C120.085 60.7769 119.894 59.8563 119.894 58.8067C119.894 57.7571 120.085 56.832 120.468 56.0314C120.855 55.2265 121.393 54.5994 122.082 54.1502C122.776 53.6965 123.585 53.4697 124.51 53.4697C125.044 53.4697 125.571 53.5587 126.091 53.7366C126.612 53.9145 127.085 54.2035 127.512 54.6038C127.939 54.9996 128.28 55.5244 128.533 56.1782C128.787 56.832 128.913 57.637 128.913 58.5932V59.2603H121.015V57.8994H127.312C127.312 57.3212 127.197 56.8053 126.965 56.3517C126.738 55.898 126.414 55.54 125.991 55.2776C125.573 55.0152 125.08 54.884 124.51 54.884C123.883 54.884 123.341 55.0397 122.883 55.351C122.429 55.6579 122.08 56.0581 121.835 56.5518C121.591 57.0455 121.468 57.5747 121.468 58.1395V59.0468C121.468 59.8207 121.602 60.4767 121.869 61.0148C122.14 61.5485 122.516 61.9554 122.996 62.2356C123.476 62.5114 124.034 62.6492 124.67 62.6492C125.084 62.6492 125.458 62.5914 125.791 62.4758C126.129 62.3557 126.421 62.1778 126.665 61.9421C126.91 61.7019 127.099 61.404 127.232 61.0482L128.753 61.4751C128.593 61.991 128.324 62.4447 127.946 62.836C127.568 63.223 127.101 63.5254 126.545 63.7433C125.989 63.9568 125.364 64.0635 124.67 64.0635Z" fill="#3B3838"/>
<path d="M131.308 63.8501V53.6031H132.829V55.1509H132.936C133.123 54.6438 133.461 54.2325 133.95 53.9167C134.439 53.6009 134.991 53.443 135.604 53.443C135.72 53.443 135.865 53.4453 136.038 53.4497C136.212 53.4542 136.343 53.4608 136.432 53.4697V55.0708C136.378 55.0575 136.256 55.0374 136.065 55.0108C135.878 54.9796 135.68 54.9641 135.471 54.9641C134.973 54.9641 134.528 55.0686 134.137 55.2776C133.75 55.4822 133.443 55.7668 133.216 56.1315C132.994 56.4918 132.883 56.9031 132.883 57.3657V63.8501H131.308Z" fill="#3B3838"/>
<path d="M145.449 50.1875V63.8501H143.795V50.1875H145.449Z" fill="#3B3838"/>
<path d="M150.128 57.6859V63.8501H148.553V53.6031H150.074V55.2042H150.208C150.448 54.6839 150.813 54.2658 151.302 53.95C151.791 53.6298 152.423 53.4697 153.196 53.4697C153.89 53.4697 154.497 53.612 155.018 53.8967C155.538 54.1769 155.943 54.6038 156.232 55.1775C156.521 55.7468 156.665 56.4673 156.665 57.339V63.8501H155.091V57.4457C155.091 56.6407 154.882 56.0137 154.464 55.5645C154.046 55.1108 153.472 54.884 152.743 54.884C152.24 54.884 151.791 54.993 151.395 55.2109C151.004 55.4288 150.695 55.7468 150.468 56.1649C150.241 56.5829 150.128 57.0899 150.128 57.6859Z" fill="#3B3838"/>
<path d="M163.705 64.0635C162.744 64.0635 161.917 63.8367 161.223 63.3831C160.53 62.9294 159.996 62.3046 159.622 61.5085C159.249 60.7124 159.062 59.8029 159.062 58.78C159.062 57.7393 159.253 56.8209 159.636 56.0248C160.023 55.2242 160.561 54.5994 161.25 54.1502C161.944 53.6965 162.753 53.4697 163.678 53.4697C164.399 53.4697 165.048 53.6031 165.626 53.87C166.205 54.1368 166.678 54.5104 167.047 54.9907C167.417 55.4711 167.646 56.0314 167.735 56.6719H166.16C166.04 56.2049 165.773 55.7913 165.36 55.431C164.95 55.0664 164.399 54.884 163.705 54.884C163.091 54.884 162.553 55.0441 162.091 55.3643C161.633 55.6801 161.275 56.1271 161.017 56.7052C160.763 57.279 160.636 57.9527 160.636 58.7266C160.636 59.5182 160.761 60.2076 161.01 60.7947C161.263 61.3817 161.619 61.8376 162.077 62.1623C162.54 62.4869 163.082 62.6492 163.705 62.6492C164.114 62.6492 164.486 62.5781 164.819 62.4358C165.153 62.2934 165.435 62.0889 165.666 61.822C165.898 61.5552 166.062 61.235 166.16 60.8614H167.735C167.646 61.4662 167.425 62.011 167.074 62.4958C166.727 62.9761 166.267 63.3586 165.693 63.6432C165.124 63.9234 164.461 64.0635 163.705 64.0635Z" fill="#3B3838"/>
<path d="M170.036 63.8501V53.6031H171.61V63.8501H170.036ZM170.837 51.8953C170.53 51.8953 170.265 51.7908 170.043 51.5818C169.825 51.3727 169.716 51.1215 169.716 50.8279C169.716 50.5344 169.825 50.2831 170.043 50.0741C170.265 49.8651 170.53 49.7605 170.837 49.7605C171.143 49.7605 171.406 49.8651 171.624 50.0741C171.846 50.2831 171.957 50.5344 171.957 50.8279C171.957 51.1215 171.846 51.3727 171.624 51.5818C171.406 51.7908 171.143 51.8953 170.837 51.8953Z" fill="#3B3838"/>
<path d="M178.363 64.0635C177.509 64.0635 176.756 63.8478 176.102 63.4164C175.448 62.9806 174.937 62.3668 174.567 61.5752C174.198 60.7791 174.014 59.8385 174.014 58.7533C174.014 57.677 174.198 56.743 174.567 55.9514C174.937 55.1597 175.45 54.5482 176.109 54.1168C176.767 53.6854 177.527 53.4697 178.39 53.4697C179.057 53.4697 179.584 53.5809 179.971 53.8033C180.362 54.0212 180.66 54.2703 180.865 54.5504C181.074 54.8262 181.236 55.053 181.352 55.2309H181.485V50.1875H183.06V63.8501H181.539V62.2757H181.352C181.236 62.4625 181.072 62.6982 180.858 62.9828C180.645 63.263 180.34 63.5143 179.944 63.7366C179.549 63.9546 179.022 64.0635 178.363 64.0635ZM178.577 62.6492C179.208 62.6492 179.742 62.4847 180.178 62.1556C180.614 61.822 180.945 61.3617 181.172 60.7747C181.399 60.1831 181.512 59.5005 181.512 58.7266C181.512 57.9616 181.401 57.2923 181.179 56.7186C180.956 56.1404 180.627 55.6912 180.191 55.371C179.755 55.0463 179.217 54.884 178.577 54.884C177.91 54.884 177.354 55.0552 176.909 55.3977C176.469 55.7357 176.137 56.196 175.915 56.7786C175.697 57.3568 175.588 58.0061 175.588 58.7266C175.588 59.456 175.699 60.1186 175.922 60.7146C176.149 61.3061 176.482 61.7775 176.922 62.1289C177.367 62.4758 177.919 62.6492 178.577 62.6492Z" fill="#3B3838"/>
<path d="M190.458 64.0635C189.471 64.0635 188.619 63.8456 187.903 63.4098C187.192 62.9695 186.642 62.3557 186.255 61.5685C185.873 60.7769 185.682 59.8563 185.682 58.8067C185.682 57.7571 185.873 56.832 186.255 56.0314C186.642 55.2265 187.18 54.5994 187.87 54.1502C188.564 53.6965 189.373 53.4697 190.298 53.4697C190.832 53.4697 191.359 53.5587 191.879 53.7366C192.4 53.9145 192.873 54.2035 193.3 54.6038C193.727 54.9996 194.067 55.5244 194.321 56.1782C194.574 56.832 194.701 57.637 194.701 58.5932V59.2603H186.802V57.8994H193.1C193.1 57.3212 192.984 56.8053 192.753 56.3517C192.526 55.898 192.202 55.54 191.779 55.2776C191.361 55.0152 190.867 54.884 190.298 54.884C189.671 54.884 189.128 55.0397 188.67 55.351C188.217 55.6579 187.868 56.0581 187.623 56.5518C187.378 57.0455 187.256 57.5747 187.256 58.1395V59.0468C187.256 59.8207 187.389 60.4767 187.656 61.0148C187.928 61.5485 188.303 61.9554 188.784 62.2356C189.264 62.5114 189.822 62.6492 190.458 62.6492C190.872 62.6492 191.245 62.5914 191.579 62.4758C191.917 62.3557 192.208 62.1778 192.453 61.9421C192.697 61.7019 192.887 61.404 193.02 61.0482L194.541 61.4751C194.381 61.991 194.112 62.4447 193.734 62.836C193.356 63.223 192.889 63.5254 192.333 63.7433C191.777 63.9568 191.152 64.0635 190.458 64.0635Z" fill="#3B3838"/>
<path d="M198.67 57.6859V63.8501H197.096V53.6031H198.617V55.2042H198.75C198.991 54.6839 199.355 54.2658 199.845 53.95C200.334 53.6298 200.965 53.4697 201.739 53.4697C202.433 53.4697 203.04 53.612 203.56 53.8967C204.081 54.1769 204.485 54.6038 204.775 55.1775C205.064 55.7468 205.208 56.4673 205.208 57.339V63.8501H203.634V57.4457C203.634 56.6407 203.425 56.0137 203.007 55.5645C202.589 55.1108 202.015 54.884 201.286 54.884C200.783 54.884 200.334 54.993 199.938 55.2109C199.547 55.4288 199.237 55.7468 199.011 56.1649C198.784 56.5829 198.67 57.0899 198.67 57.6859Z" fill="#3B3838"/>
<path d="M212.541 53.6031V54.9374H207.231V53.6031H212.541ZM208.779 51.1481H210.353V60.9147C210.353 61.3595 210.418 61.693 210.547 61.9154C210.68 62.1333 210.849 62.2801 211.054 62.3557C211.263 62.4269 211.483 62.4625 211.714 62.4625C211.888 62.4625 212.03 62.4536 212.141 62.4358C212.252 62.4135 212.341 62.3957 212.408 62.3824L212.728 63.7967C212.621 63.8367 212.473 63.8767 212.281 63.9168C212.09 63.9612 211.848 63.9835 211.554 63.9835C211.109 63.9835 210.674 63.8879 210.247 63.6966C209.824 63.5054 209.473 63.2141 209.193 62.8227C208.917 62.4313 208.779 61.9377 208.779 61.3417V51.1481Z" fill="#3B3838"/>
<path d="M221.984 55.898L220.57 56.2983C220.481 56.0626 220.35 55.8335 220.177 55.6112C220.008 55.3843 219.776 55.1976 219.483 55.0508C219.189 54.904 218.813 54.8306 218.355 54.8306C217.728 54.8306 217.206 54.9752 216.788 55.2643C216.374 55.5489 216.167 55.9114 216.167 56.3517C216.167 56.743 216.31 57.0521 216.594 57.279C216.879 57.5058 217.324 57.6948 217.928 57.846L219.449 58.2196C220.366 58.442 221.048 58.7822 221.497 59.2403C221.947 59.6939 222.171 60.2788 222.171 60.9948C222.171 61.5819 222.002 62.1067 221.664 62.5692C221.331 63.0317 220.864 63.3964 220.263 63.6633C219.663 63.9301 218.965 64.0635 218.169 64.0635C217.123 64.0635 216.258 63.8367 215.573 63.3831C214.889 62.9294 214.455 62.2668 214.273 61.3951L215.767 61.0215C215.909 61.573 216.178 61.9866 216.574 62.2623C216.974 62.5381 217.497 62.6759 218.142 62.6759C218.876 62.6759 219.458 62.5203 219.89 62.209C220.326 61.8932 220.544 61.5151 220.544 61.0749C220.544 60.7191 220.419 60.4211 220.17 60.1809C219.921 59.9363 219.538 59.754 219.022 59.6339L217.315 59.2336C216.376 59.0112 215.687 58.6666 215.247 58.1996C214.811 57.7281 214.593 57.1389 214.593 56.4317C214.593 55.8535 214.755 55.3421 215.08 54.8973C215.409 54.4526 215.856 54.1035 216.421 53.85C216.99 53.5965 217.635 53.4697 218.355 53.4697C219.369 53.4697 220.165 53.6921 220.744 54.1368C221.326 54.5816 221.74 55.1686 221.984 55.898Z" fill="#3B3838"/>
</svg>