<svg xmlns="http://www.w3.org/2000/svg" xmlns:xlink="http://www.w3.org/1999/xlink" width="300" zoomAndPan="magnify" viewBox="0 0 224.87999 74.999997" height="100" preserveAspectRatio="xMidYMid meet" version="1.0"><defs><clipPath id="8ab6080a66"><path d="M 4 4.375 L 67 4.375 L 67 68 L 4 68 Z M 4 4.375 " clip-rule="nonzero"/></clipPath><clipPath id="586eebc8c7"><path d="M 85 4.375 L 95 4.375 L 95 18 L 85 18 Z M 85 4.375 " clip-rule="nonzero"/></clipPath></defs><g clip-path="url(#8ab6080a66)"><path fill="#ffffff" d="M 56.75 21.960938 L 59.25 23.414062 C 59.714844 23.683594 60.328125 23.820312 60.945312 23.820312 C 61.558594 23.820312 62.175781 23.683594 62.640625 23.414062 L 65.140625 21.960938 C 66.070312 21.417969 66.835938 20.09375 66.835938 19.015625 L 66.835938 16.078125 C 66.835938 15.003906 66.070312 13.679688 65.140625 13.136719 L 62.640625 11.683594 C 62.175781 11.410156 61.558594 11.277344 60.945312 11.277344 C 60.328125 11.277344 59.714844 11.410156 59.25 11.683594 L 56.75 13.136719 C 55.816406 13.679688 55.054688 15.003906 55.054688 16.078125 L 55.054688 19.015625 C 55.054688 19.335938 55.128906 19.675781 55.246094 20.011719 L 38.867188 29.40625 C 38.644531 29.15625 38.402344 28.9375 38.144531 28.785156 L 30.726562 24.417969 C 30.566406 24.324219 30.386719 24.25 30.203125 24.191406 L 30.203125 17.332031 C 30.460938 17.265625 30.703125 17.175781 30.914062 17.050781 L 33.414062 15.597656 C 34.347656 15.054688 35.109375 13.730469 35.109375 12.65625 L 35.109375 9.71875 C 35.109375 8.640625 34.347656 7.316406 33.414062 6.773438 L 30.914062 5.320312 C 30.449219 5.050781 29.835938 4.914062 29.21875 4.914062 C 28.605469 4.914062 27.988281 5.050781 27.523438 5.320312 L 25.023438 6.773438 C 24.09375 7.316406 23.328125 8.640625 23.328125 9.71875 L 23.328125 12.65625 C 23.328125 13.730469 24.09375 15.054688 25.023438 15.597656 L 27.523438 17.050781 C 27.734375 17.175781 27.980469 17.265625 28.238281 17.332031 L 28.238281 24.089844 C 27.910156 24.15625 27.605469 24.261719 27.34375 24.417969 L 19.925781 28.785156 C 18.996094 29.335938 18.234375 30.664062 18.234375 31.738281 L 18.234375 40.550781 C 18.234375 40.753906 18.269531 40.96875 18.320312 41.1875 L 14.660156 43.285156 C 14.480469 43.101562 14.289062 42.941406 14.085938 42.824219 L 11.585938 41.371094 C 11.121094 41.101562 10.503906 40.964844 9.890625 40.964844 C 9.273438 40.964844 8.660156 41.101562 8.195312 41.371094 L 5.695312 42.824219 C 4.761719 43.367188 4 44.691406 4 45.769531 L 4 48.707031 C 4 49.78125 4.761719 51.105469 5.695312 51.648438 L 8.195312 53.101562 C 8.660156 53.375 9.273438 53.507812 9.890625 53.507812 C 10.503906 53.507812 11.121094 53.375 11.585938 53.101562 L 14.085938 51.648438 C 15.019531 51.105469 15.78125 49.78125 15.78125 48.707031 L 15.78125 45.769531 C 15.78125 45.511719 15.734375 45.242188 15.65625 44.972656 L 19.234375 42.921875 C 19.449219 43.15625 19.679688 43.359375 19.925781 43.503906 L 27.34375 47.871094 C 27.605469 48.023438 27.910156 48.128906 28.238281 48.199219 L 28.238281 54.957031 C 27.980469 55.023438 27.734375 55.113281 27.523438 55.238281 L 25.023438 56.691406 C 24.09375 57.234375 23.328125 58.558594 23.328125 59.632812 L 23.328125 62.570312 C 23.328125 63.648438 24.09375 64.972656 25.023438 65.515625 L 27.523438 66.96875 C 27.988281 67.238281 28.605469 67.375 29.21875 67.375 C 29.835938 67.375 30.449219 67.238281 30.914062 66.96875 L 33.414062 65.515625 C 34.347656 64.972656 35.109375 63.648438 35.109375 62.570312 L 35.109375 59.632812 C 35.109375 58.558594 34.347656 57.234375 33.414062 56.691406 L 30.914062 55.238281 C 30.703125 55.113281 30.460938 55.023438 30.203125 54.957031 L 30.203125 48.097656 C 30.386719 48.039062 30.566406 47.964844 30.726562 47.871094 L 38.144531 43.503906 C 38.347656 43.382812 38.539062 43.222656 38.71875 43.042969 L 54.640625 49.742188 C 54.59375 49.941406 54.5625 50.144531 54.5625 50.335938 L 54.5625 53.273438 C 54.5625 54.347656 55.324219 55.675781 56.257812 56.214844 L 58.757812 57.667969 C 59.222656 57.941406 59.839844 58.078125 60.453125 58.078125 C 61.066406 58.078125 61.683594 57.941406 62.148438 57.667969 L 64.648438 56.214844 C 65.582031 55.675781 66.34375 54.347656 66.34375 53.273438 L 66.34375 50.335938 C 66.34375 49.257812 65.582031 47.933594 64.648438 47.390625 L 62.148438 45.941406 C 61.683594 45.667969 61.066406 45.53125 60.453125 45.53125 C 59.839844 45.53125 59.222656 45.667969 58.757812 45.941406 L 56.257812 47.390625 C 56.003906 47.542969 55.761719 47.75 55.542969 47.996094 L 39.714844 41.335938 C 39.789062 41.070312 39.835938 40.800781 39.835938 40.550781 L 39.835938 31.738281 C 39.835938 31.550781 39.804688 31.351562 39.761719 31.152344 L 56.332031 21.648438 C 56.464844 21.765625 56.605469 21.875 56.75 21.960938 Z M 13.816406 48.707031 C 13.816406 49.085938 13.425781 49.765625 13.09375 49.957031 L 10.597656 51.410156 C 10.507812 51.464844 10.257812 51.550781 9.890625 51.550781 C 9.523438 51.550781 9.273438 51.464844 9.183594 51.410156 L 6.683594 49.957031 C 6.355469 49.765625 5.960938 49.085938 5.960938 48.707031 L 5.960938 45.769531 C 5.960938 45.386719 6.355469 44.707031 6.683594 44.515625 L 9.183594 43.0625 C 9.273438 43.011719 9.523438 42.921875 9.890625 42.921875 C 10.257812 42.921875 10.507812 43.011719 10.597656 43.0625 L 13.09375 44.515625 C 13.425781 44.707031 13.816406 45.386719 13.816406 45.769531 Z M 56.527344 50.335938 C 56.527344 49.953125 56.917969 49.277344 57.25 49.082031 L 59.746094 47.628906 C 59.835938 47.578125 60.085938 47.488281 60.453125 47.488281 C 60.820312 47.488281 61.070312 47.578125 61.160156 47.628906 L 63.660156 49.082031 C 63.988281 49.277344 64.378906 49.953125 64.378906 50.335938 L 64.378906 53.273438 C 64.378906 53.65625 63.988281 54.332031 63.660156 54.527344 L 61.160156 55.976562 C 61.070312 56.03125 60.820312 56.117188 60.453125 56.117188 C 60.085938 56.117188 59.835938 56.03125 59.746094 55.976562 L 57.25 54.527344 C 56.917969 54.332031 56.527344 53.65625 56.527344 53.273438 Z M 26.015625 13.90625 C 25.683594 13.714844 25.292969 13.035156 25.292969 12.65625 L 25.292969 9.71875 C 25.292969 9.335938 25.683594 8.65625 26.015625 8.464844 L 28.511719 7.011719 C 28.601562 6.960938 28.851562 6.871094 29.21875 6.871094 C 29.585938 6.871094 29.835938 6.960938 29.925781 7.011719 L 32.425781 8.464844 C 32.753906 8.65625 33.148438 9.335938 33.148438 9.71875 L 33.148438 12.65625 C 33.148438 13.035156 32.753906 13.714844 32.425781 13.90625 L 29.925781 15.359375 C 29.835938 15.414062 29.585938 15.5 29.21875 15.5 C 28.851562 15.5 28.601562 15.414062 28.511719 15.359375 Z M 32.425781 58.382812 C 32.753906 58.574219 33.148438 59.253906 33.148438 59.632812 L 33.148438 62.570312 C 33.148438 62.953125 32.753906 63.632812 32.425781 63.824219 L 29.925781 65.277344 C 29.835938 65.328125 29.585938 65.417969 29.21875 65.417969 C 28.851562 65.417969 28.601562 65.328125 28.511719 65.277344 L 26.015625 63.824219 C 25.683594 63.632812 25.292969 62.953125 25.292969 62.570312 L 25.292969 59.632812 C 25.292969 59.253906 25.683594 58.574219 26.015625 58.382812 L 28.511719 56.929688 C 28.601562 56.875 28.851562 56.789062 29.21875 56.789062 C 29.585938 56.789062 29.835938 56.875 29.925781 56.929688 Z M 37.871094 40.550781 C 37.871094 40.933594 37.476562 41.621094 37.144531 41.816406 L 29.726562 46.1875 C 29.640625 46.238281 29.394531 46.324219 29.035156 46.324219 C 28.675781 46.324219 28.429688 46.238281 28.34375 46.1875 L 20.925781 41.816406 C 20.59375 41.621094 20.199219 40.933594 20.199219 40.550781 L 20.199219 31.738281 C 20.199219 31.355469 20.59375 30.667969 20.925781 30.472656 L 28.34375 26.101562 C 28.429688 26.050781 28.675781 25.964844 29.035156 25.964844 C 29.394531 25.964844 29.640625 26.050781 29.726562 26.101562 L 37.144531 30.472656 C 37.476562 30.667969 37.871094 31.355469 37.871094 31.738281 Z M 57.015625 16.078125 C 57.015625 15.699219 57.40625 15.019531 57.738281 14.828125 L 60.238281 13.375 C 60.328125 13.320312 60.578125 13.234375 60.945312 13.234375 C 61.3125 13.234375 61.5625 13.320312 61.652344 13.375 L 64.148438 14.828125 C 64.480469 15.019531 64.871094 15.699219 64.871094 16.078125 L 64.871094 19.015625 C 64.871094 19.398438 64.480469 20.078125 64.148438 20.269531 L 61.652344 21.722656 C 61.5625 21.773438 61.3125 21.863281 60.945312 21.863281 C 60.578125 21.863281 60.328125 21.773438 60.238281 21.722656 L 57.738281 20.269531 C 57.40625 20.078125 57.015625 19.398438 57.015625 19.015625 Z M 57.015625 16.078125 " fill-opacity="1" fill-rule="nonzero"/></g><g clip-path="url(#586eebc8c7)"><path fill="#ffffff" d="M 85.476562 17.84375 L 85.476562 4.613281 L 94.417969 4.613281 L 94.417969 6.921875 L 88.28125 6.921875 L 88.28125 10.074219 L 93.957031 10.074219 L 93.957031 12.378906 L 88.28125 12.378906 L 88.28125 15.539062 L 94.445312 15.539062 L 94.445312 17.84375 Z M 85.476562 17.84375 " fill-opacity="1" fill-rule="nonzero"/></g><path fill="#ffffff" d="M 102.980469 13.621094 L 102.980469 7.921875 L 105.742188 7.921875 L 105.742188 17.84375 L 103.089844 17.84375 L 103.089844 16.042969 L 102.988281 16.042969 C 102.761719 16.625 102.390625 17.089844 101.867188 17.445312 C 101.347656 17.796875 100.714844 17.972656 99.96875 17.972656 C 99.300781 17.972656 98.714844 17.824219 98.210938 17.523438 C 97.707031 17.21875 97.308594 16.792969 97.023438 16.234375 C 96.746094 15.679688 96.601562 15.015625 96.597656 14.238281 L 96.597656 7.921875 L 99.359375 7.921875 L 99.359375 13.75 C 99.363281 14.335938 99.519531 14.796875 99.832031 15.136719 C 100.140625 15.476562 100.558594 15.648438 101.082031 15.648438 C 101.414062 15.648438 101.726562 15.574219 102.015625 15.421875 C 102.304688 15.265625 102.539062 15.039062 102.714844 14.738281 C 102.894531 14.4375 102.984375 14.0625 102.980469 13.621094 Z M 102.980469 13.621094 " fill-opacity="1" fill-rule="nonzero"/><path fill="#ffffff" d="M 108.246094 17.84375 L 108.246094 7.921875 L 109.726562 7.921875 L 109.726562 9.421875 L 109.828125 9.421875 C 110.011719 8.929688 110.339844 8.53125 110.816406 8.226562 C 111.289062 7.917969 111.824219 7.765625 112.421875 7.765625 C 112.535156 7.765625 112.675781 7.769531 112.84375 7.773438 C 113.011719 7.777344 113.140625 7.785156 113.226562 7.792969 L 113.226562 9.34375 C 113.171875 9.328125 113.054688 9.308594 112.871094 9.285156 C 112.6875 9.253906 112.496094 9.238281 112.292969 9.238281 C 111.808594 9.238281 111.375 9.339844 110.996094 9.542969 C 110.621094 9.742188 110.320312 10.015625 110.101562 10.371094 C 109.886719 10.71875 109.777344 11.117188 109.777344 11.566406 L 109.777344 17.84375 Z M 108.246094 17.84375 " fill-opacity="1" fill-rule="nonzero"/><path fill="#ffffff" d="M 118.78125 18.050781 C 117.882812 18.050781 117.09375 17.839844 116.414062 17.410156 C 115.738281 16.984375 115.210938 16.390625 114.832031 15.621094 C 114.457031 14.855469 114.269531 13.960938 114.269531 12.933594 C 114.269531 11.902344 114.457031 11 114.832031 10.226562 C 115.210938 9.457031 115.738281 8.859375 116.414062 8.433594 C 117.09375 8.003906 117.882812 7.792969 118.78125 7.792969 C 119.679688 7.792969 120.464844 8.003906 121.136719 8.433594 C 121.816406 8.859375 122.34375 9.457031 122.71875 10.226562 C 123.097656 11 123.289062 11.902344 123.289062 12.933594 C 123.289062 13.960938 123.097656 14.855469 122.71875 15.621094 C 122.34375 16.390625 121.816406 16.984375 121.136719 17.410156 C 120.464844 17.839844 119.679688 18.050781 118.78125 18.050781 Z M 118.78125 16.683594 C 119.460938 16.683594 120.023438 16.507812 120.464844 16.160156 C 120.90625 15.808594 121.230469 15.351562 121.441406 14.78125 C 121.652344 14.214844 121.761719 13.597656 121.761719 12.933594 C 121.761719 12.273438 121.652344 11.652344 121.441406 11.082031 C 121.230469 10.507812 120.90625 10.042969 120.464844 9.691406 C 120.023438 9.339844 119.460938 9.160156 118.78125 9.160156 C 118.097656 9.160156 117.535156 9.339844 117.09375 9.691406 C 116.652344 10.042969 116.328125 10.507812 116.117188 11.082031 C 115.902344 11.652344 115.796875 12.273438 115.796875 12.933594 C 115.796875 13.597656 115.902344 14.214844 116.117188 14.78125 C 116.328125 15.351562 116.652344 15.808594 117.09375 16.160156 C 117.535156 16.507812 118.097656 16.683594 118.78125 16.683594 Z M 118.78125 16.683594 " fill-opacity="1" fill-rule="nonzero"/><path fill="#ffffff" d="M 125.625 21.566406 L 125.625 7.921875 L 127.101562 7.921875 L 127.101562 9.496094 L 127.285156 9.496094 C 127.394531 9.324219 127.550781 9.105469 127.75 8.839844 C 127.953125 8.566406 128.242188 8.328125 128.617188 8.117188 C 129 7.898438 129.511719 7.792969 130.160156 7.792969 C 131 7.792969 131.738281 8 132.378906 8.417969 C 133.015625 8.835938 133.515625 9.429688 133.875 10.195312 C 134.234375 10.960938 134.414062 11.867188 134.414062 12.910156 C 134.414062 13.960938 134.234375 14.871094 133.875 15.640625 C 133.515625 16.410156 133.019531 17.003906 132.382812 17.425781 C 131.75 17.84375 131.015625 18.050781 130.1875 18.050781 C 129.546875 18.050781 129.035156 17.945312 128.652344 17.734375 C 128.265625 17.519531 127.96875 17.277344 127.761719 17.003906 C 127.554688 16.730469 127.394531 16.5 127.285156 16.320312 L 127.15625 16.320312 L 127.15625 21.566406 Z M 127.128906 12.882812 C 127.128906 13.632812 127.238281 14.292969 127.457031 14.867188 C 127.679688 15.433594 128 15.878906 128.425781 16.203125 C 128.847656 16.523438 129.367188 16.683594 129.980469 16.683594 C 130.617188 16.683594 131.152344 16.515625 131.582031 16.179688 C 132.011719 15.835938 132.335938 15.382812 132.554688 14.808594 C 132.773438 14.230469 132.882812 13.589844 132.882812 12.882812 C 132.882812 12.183594 132.773438 11.554688 132.558594 10.996094 C 132.347656 10.433594 132.023438 9.988281 131.59375 9.660156 C 131.164062 9.328125 130.628906 9.160156 129.980469 9.160156 C 129.359375 9.160156 128.835938 9.320312 128.410156 9.632812 C 127.988281 9.945312 127.667969 10.378906 127.453125 10.9375 C 127.234375 11.492188 127.128906 12.140625 127.128906 12.882812 Z M 127.128906 12.882812 " fill-opacity="1" fill-rule="nonzero"/><path fill="#ffffff" d="M 140.917969 18.050781 C 139.960938 18.050781 139.132812 17.839844 138.4375 17.417969 C 137.746094 16.992188 137.210938 16.398438 136.835938 15.636719 C 136.464844 14.867188 136.28125 13.976562 136.28125 12.960938 C 136.28125 11.945312 136.464844 11.046875 136.835938 10.273438 C 137.210938 9.492188 137.734375 8.886719 138.40625 8.453125 C 139.078125 8.011719 139.863281 7.792969 140.761719 7.792969 C 141.28125 7.792969 141.792969 7.878906 142.300781 8.050781 C 142.804688 8.222656 143.265625 8.503906 143.679688 8.890625 C 144.09375 9.273438 144.425781 9.78125 144.671875 10.414062 C 144.917969 11.046875 145.039062 11.828125 145.039062 12.753906 L 145.039062 13.398438 L 137.367188 13.398438 L 137.367188 12.082031 L 143.484375 12.082031 C 143.484375 11.523438 143.371094 11.023438 143.148438 10.582031 C 142.929688 10.144531 142.613281 9.796875 142.203125 9.542969 C 141.796875 9.289062 141.316406 9.160156 140.761719 9.160156 C 140.15625 9.160156 139.625 9.3125 139.183594 9.613281 C 138.742188 9.910156 138.402344 10.300781 138.164062 10.777344 C 137.925781 11.253906 137.808594 11.769531 137.808594 12.316406 L 137.808594 13.191406 C 137.808594 13.941406 137.9375 14.578125 138.195312 15.097656 C 138.460938 15.617188 138.824219 16.011719 139.292969 16.28125 C 139.757812 16.546875 140.300781 16.683594 140.917969 16.683594 C 141.320312 16.683594 141.683594 16.625 142.007812 16.515625 C 142.335938 16.398438 142.617188 16.226562 142.855469 15.996094 C 143.09375 15.765625 143.277344 15.476562 143.40625 15.132812 L 144.886719 15.542969 C 144.730469 16.042969 144.46875 16.484375 144.101562 16.863281 C 143.734375 17.238281 143.28125 17.53125 142.742188 17.742188 C 142.199219 17.949219 141.59375 18.050781 140.917969 18.050781 Z M 140.917969 18.050781 " fill-opacity="1" fill-rule="nonzero"/><path fill="#ffffff" d="M 150.296875 18.078125 C 149.664062 18.078125 149.09375 17.957031 148.578125 17.722656 C 148.066406 17.480469 147.65625 17.132812 147.355469 16.683594 C 147.050781 16.226562 146.902344 15.675781 146.902344 15.027344 C 146.902344 14.460938 147.011719 14 147.238281 13.644531 C 147.460938 13.289062 147.761719 13.007812 148.140625 12.804688 C 148.515625 12.601562 148.929688 12.453125 149.382812 12.351562 C 149.839844 12.25 150.300781 12.167969 150.765625 12.109375 C 151.367188 12.03125 151.859375 11.972656 152.234375 11.933594 C 152.613281 11.890625 152.890625 11.820312 153.0625 11.71875 C 153.242188 11.621094 153.328125 11.449219 153.328125 11.203125 L 153.328125 11.152344 C 153.328125 10.515625 153.15625 10.019531 152.804688 9.664062 C 152.457031 9.3125 151.933594 9.136719 151.230469 9.136719 C 150.5 9.136719 149.925781 9.296875 149.511719 9.613281 C 149.097656 9.933594 148.804688 10.273438 148.636719 10.636719 L 147.1875 10.117188 C 147.445312 9.515625 147.792969 9.046875 148.222656 8.710938 C 148.660156 8.371094 149.132812 8.132812 149.648438 8 C 150.167969 7.859375 150.675781 7.792969 151.179688 7.792969 C 151.5 7.792969 151.867188 7.832031 152.28125 7.910156 C 152.699219 7.980469 153.101562 8.132812 153.492188 8.367188 C 153.886719 8.601562 154.210938 8.949219 154.472656 9.421875 C 154.730469 9.890625 154.859375 10.519531 154.859375 11.308594 L 154.859375 17.84375 L 153.328125 17.84375 L 153.328125 16.5 L 153.25 16.5 C 153.148438 16.714844 152.976562 16.945312 152.734375 17.191406 C 152.492188 17.4375 152.167969 17.648438 151.769531 17.820312 C 151.367188 17.992188 150.875 18.078125 150.296875 18.078125 Z M 150.53125 16.707031 C 151.136719 16.707031 151.644531 16.589844 152.058594 16.351562 C 152.476562 16.117188 152.792969 15.808594 153.003906 15.433594 C 153.222656 15.058594 153.328125 14.667969 153.328125 14.253906 L 153.328125 12.855469 C 153.265625 12.933594 153.121094 13.007812 152.902344 13.070312 C 152.6875 13.128906 152.4375 13.183594 152.148438 13.230469 C 151.871094 13.273438 151.59375 13.3125 151.328125 13.347656 C 151.0625 13.378906 150.851562 13.402344 150.6875 13.425781 C 150.289062 13.476562 149.917969 13.5625 149.570312 13.679688 C 149.230469 13.789062 148.953125 13.960938 148.742188 14.1875 C 148.535156 14.410156 148.429688 14.71875 148.429688 15.105469 C 148.429688 15.636719 148.625 16.035156 149.019531 16.308594 C 149.417969 16.574219 149.921875 16.707031 150.53125 16.707031 Z M 150.53125 16.707031 " fill-opacity="1" fill-rule="nonzero"/><path fill="#ffffff" d="M 159.179688 11.875 L 159.179688 17.84375 L 157.648438 17.84375 L 157.648438 7.921875 L 159.128906 7.921875 L 159.128906 9.472656 L 159.257812 9.472656 C 159.492188 8.96875 159.847656 8.5625 160.320312 8.257812 C 160.796875 7.949219 161.410156 7.792969 162.160156 7.792969 C 162.835938 7.792969 163.425781 7.929688 163.929688 8.207031 C 164.4375 8.476562 164.828125 8.890625 165.109375 9.445312 C 165.390625 9.996094 165.53125 10.695312 165.53125 11.539062 L 165.53125 17.84375 L 164 17.84375 L 164 11.644531 C 164 10.863281 163.796875 10.253906 163.394531 9.820312 C 162.988281 9.382812 162.429688 9.160156 161.722656 9.160156 C 161.230469 9.160156 160.796875 9.265625 160.410156 9.476562 C 160.03125 9.691406 159.730469 9.996094 159.511719 10.402344 C 159.289062 10.808594 159.179688 11.296875 159.179688 11.875 Z M 159.179688 11.875 " fill-opacity="1" fill-rule="nonzero"/><path fill="#ffffff" d="M 85.476562 42.054688 L 85.476562 28.824219 L 90.710938 28.824219 C 91.714844 28.824219 92.570312 29.003906 93.277344 29.359375 C 93.992188 29.714844 94.53125 30.214844 94.902344 30.867188 C 95.28125 31.511719 95.46875 32.273438 95.46875 33.148438 C 95.46875 34.023438 95.277344 34.78125 94.898438 35.414062 C 94.515625 36.042969 93.964844 36.523438 93.246094 36.859375 C 92.527344 37.195312 91.660156 37.367188 90.640625 37.367188 L 87.132812 37.367188 L 87.132812 35.117188 L 90.1875 35.117188 C 90.722656 35.117188 91.167969 35.042969 91.519531 34.898438 C 91.875 34.75 92.140625 34.53125 92.3125 34.238281 C 92.488281 33.945312 92.578125 33.582031 92.578125 33.148438 C 92.578125 32.707031 92.488281 32.335938 92.3125 32.035156 C 92.140625 31.734375 91.875 31.503906 91.515625 31.351562 C 91.160156 31.191406 90.714844 31.113281 90.171875 31.113281 L 88.28125 31.113281 L 88.28125 42.054688 Z M 92.640625 36.035156 L 95.941406 42.054688 L 92.84375 42.054688 L 89.617188 36.035156 Z M 92.640625 36.035156 " fill-opacity="1" fill-rule="nonzero"/><path fill="#ffffff" d="M 101.773438 42.25 C 100.75 42.25 99.871094 42.042969 99.132812 41.628906 C 98.398438 41.210938 97.832031 40.621094 97.433594 39.859375 C 97.035156 39.09375 96.835938 38.1875 96.835938 37.140625 C 96.835938 36.117188 97.035156 35.222656 97.433594 34.453125 C 97.832031 33.679688 98.390625 33.078125 99.113281 32.648438 C 99.835938 32.21875 100.6875 32.003906 101.664062 32.003906 C 102.320312 32.003906 102.933594 32.109375 103.5 32.320312 C 104.070312 32.527344 104.566406 32.839844 104.988281 33.257812 C 105.417969 33.675781 105.75 34.199219 105.988281 34.832031 C 106.226562 35.460938 106.34375 36.199219 106.34375 37.042969 L 106.34375 37.796875 L 97.9375 37.796875 L 97.9375 36.09375 L 103.746094 36.09375 C 103.746094 35.695312 103.660156 35.34375 103.484375 35.039062 C 103.3125 34.734375 103.074219 34.496094 102.765625 34.324219 C 102.464844 34.144531 102.113281 34.058594 101.710938 34.058594 C 101.292969 34.058594 100.917969 34.15625 100.597656 34.347656 C 100.277344 34.539062 100.027344 34.792969 99.84375 35.117188 C 99.664062 35.4375 99.570312 35.789062 99.566406 36.183594 L 99.566406 37.804688 C 99.566406 38.296875 99.65625 38.71875 99.835938 39.078125 C 100.023438 39.433594 100.285156 39.710938 100.621094 39.90625 C 100.957031 40.097656 101.359375 40.195312 101.820312 40.195312 C 102.128906 40.195312 102.410156 40.152344 102.664062 40.066406 C 102.917969 39.980469 103.136719 39.851562 103.316406 39.679688 C 103.5 39.507812 103.636719 39.292969 103.734375 39.046875 L 106.285156 39.214844 C 106.15625 39.824219 105.890625 40.359375 105.488281 40.816406 C 105.089844 41.265625 104.578125 41.621094 103.945312 41.875 C 103.320312 42.125 102.597656 42.25 101.773438 42.25 Z M 101.773438 42.25 " fill-opacity="1" fill-rule="nonzero"/><path fill="#ffffff" d="M 108.144531 45.777344 L 108.144531 32.132812 L 110.867188 32.132812 L 110.867188 33.800781 L 110.992188 33.800781 C 111.113281 33.53125 111.285156 33.261719 111.515625 32.984375 C 111.75 32.703125 112.050781 32.472656 112.421875 32.289062 C 112.800781 32.097656 113.265625 32.003906 113.824219 32.003906 C 114.550781 32.003906 115.21875 32.191406 115.832031 32.570312 C 116.445312 32.945312 116.9375 33.511719 117.304688 34.269531 C 117.671875 35.023438 117.855469 35.96875 117.855469 37.105469 C 117.855469 38.214844 117.675781 39.148438 117.316406 39.910156 C 116.960938 40.667969 116.476562 41.242188 115.863281 41.636719 C 115.253906 42.023438 114.574219 42.21875 113.816406 42.21875 C 113.28125 42.21875 112.824219 42.128906 112.449219 41.953125 C 112.078125 41.777344 111.773438 41.554688 111.535156 41.285156 C 111.296875 41.015625 111.117188 40.742188 110.992188 40.464844 L 110.90625 40.464844 L 110.90625 45.777344 Z M 110.847656 37.09375 C 110.847656 37.683594 110.929688 38.199219 111.09375 38.636719 C 111.257812 39.078125 111.496094 39.417969 111.808594 39.664062 C 112.117188 39.90625 112.496094 40.027344 112.941406 40.027344 C 113.390625 40.027344 113.773438 39.90625 114.082031 39.660156 C 114.394531 39.410156 114.628906 39.0625 114.789062 38.625 C 114.953125 38.179688 115.035156 37.671875 115.035156 37.09375 C 115.035156 36.519531 114.953125 36.015625 114.796875 35.582031 C 114.636719 35.148438 114.398438 34.808594 114.089844 34.5625 C 113.777344 34.316406 113.394531 34.191406 112.941406 34.191406 C 112.492188 34.191406 112.113281 34.3125 111.800781 34.546875 C 111.496094 34.785156 111.257812 35.121094 111.09375 35.554688 C 110.929688 35.992188 110.847656 36.503906 110.847656 37.09375 Z M 110.847656 37.09375 " fill-opacity="1" fill-rule="nonzero"/><path fill="#ffffff" d="M 124.191406 42.25 C 123.1875 42.25 122.316406 42.035156 121.582031 41.609375 C 120.851562 41.179688 120.285156 40.582031 119.890625 39.8125 C 119.492188 39.042969 119.292969 38.148438 119.292969 37.132812 C 119.292969 36.109375 119.492188 35.210938 119.890625 34.445312 C 120.285156 33.675781 120.851562 33.074219 121.582031 32.648438 C 122.316406 32.21875 123.1875 32.003906 124.191406 32.003906 C 125.199219 32.003906 126.066406 32.21875 126.796875 32.648438 C 127.53125 33.074219 128.097656 33.675781 128.496094 34.445312 C 128.894531 35.210938 129.089844 36.109375 129.089844 37.132812 C 129.089844 38.148438 128.894531 39.042969 128.496094 39.8125 C 128.097656 40.582031 127.53125 41.179688 126.796875 41.609375 C 126.066406 42.035156 125.199219 42.25 124.191406 42.25 Z M 124.207031 40.117188 C 124.664062 40.117188 125.046875 39.988281 125.351562 39.730469 C 125.660156 39.46875 125.890625 39.109375 126.046875 38.65625 C 126.207031 38.207031 126.285156 37.691406 126.285156 37.113281 C 126.285156 36.535156 126.207031 36.019531 126.046875 35.570312 C 125.890625 35.117188 125.660156 34.757812 125.351562 34.496094 C 125.046875 34.234375 124.664062 34.101562 124.207031 34.101562 C 123.742188 34.101562 123.355469 34.234375 123.039062 34.496094 C 122.726562 34.757812 122.492188 35.117188 122.332031 35.570312 C 122.175781 36.019531 122.097656 36.535156 122.097656 37.113281 C 122.097656 37.691406 122.175781 38.207031 122.332031 38.65625 C 122.492188 39.109375 122.726562 39.46875 123.039062 39.730469 C 123.355469 39.988281 123.742188 40.117188 124.207031 40.117188 Z M 124.207031 40.117188 " fill-opacity="1" fill-rule="nonzero"/><path fill="#ffffff" d="M 138.234375 34.355469 L 136.863281 34.742188 C 136.777344 34.515625 136.648438 34.292969 136.480469 34.078125 C 136.316406 33.855469 136.089844 33.675781 135.804688 33.535156 C 135.519531 33.390625 135.15625 33.320312 134.710938 33.320312 C 134.101562 33.320312 133.59375 33.460938 133.1875 33.742188 C 132.785156 34.015625 132.585938 34.367188 132.585938 34.792969 C 132.585938 35.171875 132.722656 35.472656 133 35.691406 C 133.277344 35.910156 133.707031 36.09375 134.296875 36.242188 L 135.773438 36.601562 C 136.664062 36.816406 137.328125 37.148438 137.761719 37.589844 C 138.199219 38.03125 138.417969 38.597656 138.417969 39.289062 C 138.417969 39.859375 138.253906 40.367188 137.925781 40.816406 C 137.601562 41.261719 137.148438 41.617188 136.5625 41.875 C 135.980469 42.132812 135.300781 42.261719 134.527344 42.261719 C 133.511719 42.261719 132.671875 42.042969 132.007812 41.601562 C 131.34375 41.164062 130.921875 40.523438 130.742188 39.679688 L 132.195312 39.316406 C 132.335938 39.851562 132.59375 40.25 132.980469 40.519531 C 133.367188 40.785156 133.875 40.917969 134.503906 40.917969 C 135.214844 40.917969 135.78125 40.769531 136.199219 40.464844 C 136.625 40.160156 136.835938 39.792969 136.835938 39.367188 C 136.835938 39.023438 136.714844 38.734375 136.472656 38.503906 C 136.230469 38.265625 135.859375 38.089844 135.359375 37.972656 L 133.699219 37.585938 C 132.789062 37.371094 132.117188 37.035156 131.691406 36.582031 C 131.265625 36.125 131.054688 35.554688 131.054688 34.871094 C 131.054688 34.3125 131.214844 33.816406 131.527344 33.386719 C 131.847656 32.953125 132.28125 32.617188 132.832031 32.371094 C 133.382812 32.125 134.011719 32.003906 134.710938 32.003906 C 135.695312 32.003906 136.46875 32.21875 137.03125 32.648438 C 137.597656 33.078125 138 33.648438 138.234375 34.355469 Z M 138.234375 34.355469 " fill-opacity="1" fill-rule="nonzero"/><path fill="#ffffff" d="M 140.71875 42.054688 L 140.71875 32.132812 L 142.25 32.132812 L 142.25 42.054688 Z M 141.496094 30.476562 C 141.199219 30.476562 140.941406 30.378906 140.726562 30.175781 C 140.515625 29.972656 140.410156 29.730469 140.410156 29.445312 C 140.410156 29.160156 140.515625 28.917969 140.726562 28.714844 C 140.941406 28.511719 141.199219 28.410156 141.496094 28.410156 C 141.796875 28.410156 142.050781 28.511719 142.261719 28.714844 C 142.476562 28.917969 142.585938 29.160156 142.585938 29.445312 C 142.585938 29.730469 142.476562 29.972656 142.261719 30.175781 C 142.050781 30.378906 141.796875 30.476562 141.496094 30.476562 Z M 141.496094 30.476562 " fill-opacity="1" fill-rule="nonzero"/><path fill="#ffffff" d="M 149.378906 32.132812 L 149.378906 33.425781 L 144.222656 33.425781 L 144.222656 32.132812 Z M 145.726562 29.753906 L 147.253906 29.753906 L 147.253906 39.214844 C 147.253906 39.644531 147.316406 39.964844 147.441406 40.183594 C 147.570312 40.394531 147.734375 40.535156 147.933594 40.609375 C 148.136719 40.675781 148.351562 40.710938 148.574219 40.710938 C 148.746094 40.710938 148.882812 40.703125 148.992188 40.6875 C 149.097656 40.664062 149.183594 40.648438 149.25 40.632812 L 149.5625 42.003906 C 149.457031 42.042969 149.3125 42.082031 149.125 42.121094 C 148.941406 42.164062 148.707031 42.183594 148.421875 42.183594 C 147.988281 42.183594 147.566406 42.09375 147.148438 41.90625 C 146.738281 41.722656 146.398438 41.441406 146.125 41.0625 C 145.859375 40.683594 145.726562 40.203125 145.726562 39.625 Z M 145.726562 29.753906 " fill-opacity="1" fill-rule="nonzero"/><path fill="#ffffff" d="M 155.617188 42.261719 C 154.71875 42.261719 153.929688 42.050781 153.25 41.621094 C 152.578125 41.195312 152.050781 40.601562 151.671875 39.832031 C 151.296875 39.066406 151.105469 38.171875 151.105469 37.144531 C 151.105469 36.113281 151.296875 35.210938 151.671875 34.4375 C 152.050781 33.667969 152.578125 33.070312 153.25 32.644531 C 153.929688 32.214844 154.71875 32.003906 155.617188 32.003906 C 156.515625 32.003906 157.300781 32.214844 157.976562 32.644531 C 158.65625 33.070312 159.179688 33.667969 159.558594 34.4375 C 159.9375 35.210938 160.128906 36.113281 160.128906 37.144531 C 160.128906 38.171875 159.9375 39.066406 159.558594 39.832031 C 159.179688 40.601562 158.65625 41.195312 157.976562 41.621094 C 157.300781 42.050781 156.515625 42.261719 155.617188 42.261719 Z M 155.617188 40.894531 C 156.300781 40.894531 156.863281 40.71875 157.300781 40.371094 C 157.742188 40.019531 158.070312 39.5625 158.28125 38.992188 C 158.492188 38.425781 158.597656 37.808594 158.597656 37.144531 C 158.597656 36.480469 158.492188 35.863281 158.28125 35.292969 C 158.070312 34.71875 157.742188 34.253906 157.300781 33.902344 C 156.863281 33.550781 156.300781 33.371094 155.617188 33.371094 C 154.933594 33.371094 154.371094 33.550781 153.933594 33.902344 C 153.492188 34.253906 153.164062 34.71875 152.953125 35.292969 C 152.742188 35.863281 152.636719 36.480469 152.636719 37.144531 C 152.636719 37.808594 152.742188 38.425781 152.953125 38.992188 C 153.164062 39.5625 153.492188 40.019531 153.933594 40.371094 C 154.371094 40.71875 154.933594 40.894531 155.617188 40.894531 Z M 155.617188 40.894531 " fill-opacity="1" fill-rule="nonzero"/><path fill="#ffffff" d="M 162.464844 42.054688 L 162.464844 32.132812 L 163.941406 32.132812 L 163.941406 33.632812 L 164.042969 33.632812 C 164.226562 33.140625 164.554688 32.742188 165.03125 32.4375 C 165.503906 32.128906 166.039062 31.976562 166.636719 31.976562 C 166.75 31.976562 166.890625 31.980469 167.058594 31.984375 C 167.226562 31.988281 167.351562 31.996094 167.441406 32.003906 L 167.441406 33.554688 C 167.386719 33.539062 167.269531 33.519531 167.082031 33.496094 C 166.902344 33.464844 166.710938 33.449219 166.507812 33.449219 C 166.023438 33.449219 165.589844 33.550781 165.210938 33.753906 C 164.835938 33.953125 164.535156 34.226562 164.316406 34.582031 C 164.101562 34.929688 163.992188 35.328125 163.992188 35.777344 L 163.992188 42.054688 Z M 162.464844 42.054688 " fill-opacity="1" fill-rule="nonzero"/><path fill="#ffffff" d="M 170.539062 45.777344 C 170.28125 45.777344 170.050781 45.753906 169.847656 45.710938 C 169.644531 45.671875 169.503906 45.636719 169.425781 45.597656 L 169.816406 44.253906 C 170.1875 44.347656 170.515625 44.382812 170.800781 44.355469 C 171.085938 44.328125 171.339844 44.203125 171.558594 43.972656 C 171.78125 43.75 171.988281 43.386719 172.171875 42.882812 L 172.460938 42.105469 L 168.777344 32.132812 L 170.4375 32.132812 L 173.183594 40.039062 L 173.289062 40.039062 L 176.035156 32.132812 L 177.695312 32.132812 L 173.46875 43.503906 C 173.28125 44.015625 173.046875 44.441406 172.765625 44.777344 C 172.484375 45.117188 172.15625 45.367188 171.785156 45.53125 C 171.417969 45.695312 171.003906 45.777344 170.539062 45.777344 Z M 170.539062 45.777344 " fill-opacity="1" fill-rule="nonzero"/><path fill="#ffffff" d="M 188.890625 42.261719 C 187.992188 42.261719 187.203125 42.050781 186.527344 41.621094 C 185.851562 41.195312 185.324219 40.601562 184.945312 39.832031 C 184.570312 39.066406 184.382812 38.171875 184.382812 37.144531 C 184.382812 36.113281 184.570312 35.210938 184.945312 34.4375 C 185.324219 33.667969 185.851562 33.070312 186.527344 32.644531 C 187.203125 32.214844 187.992188 32.003906 188.890625 32.003906 C 189.789062 32.003906 190.574219 32.214844 191.25 32.644531 C 191.929688 33.070312 192.457031 33.667969 192.832031 34.4375 C 193.210938 35.210938 193.402344 36.113281 193.402344 37.144531 C 193.402344 38.171875 193.210938 39.066406 192.832031 39.832031 C 192.457031 40.601562 191.929688 41.195312 191.25 41.621094 C 190.574219 42.050781 189.789062 42.261719 188.890625 42.261719 Z M 188.890625 40.894531 C 189.574219 40.894531 190.136719 40.71875 190.574219 40.371094 C 191.015625 40.019531 191.34375 39.5625 191.554688 38.992188 C 191.765625 38.425781 191.871094 37.808594 191.871094 37.144531 C 191.871094 36.480469 191.765625 35.863281 191.554688 35.292969 C 191.34375 34.71875 191.015625 34.253906 190.574219 33.902344 C 190.136719 33.550781 189.574219 33.371094 188.890625 33.371094 C 188.207031 33.371094 187.648438 33.550781 187.207031 33.902344 C 186.765625 34.253906 186.4375 34.71875 186.226562 35.292969 C 186.015625 35.863281 185.910156 36.480469 185.910156 37.144531 C 185.910156 37.808594 186.015625 38.425781 186.226562 38.992188 C 186.4375 39.5625 186.765625 40.019531 187.207031 40.371094 C 187.648438 40.71875 188.207031 40.894531 188.890625 40.894531 Z M 188.890625 40.894531 " fill-opacity="1" fill-rule="nonzero"/><path fill="#ffffff" d="M 200.167969 32.132812 L 200.167969 33.425781 L 194.804688 33.425781 L 194.804688 32.132812 Z M 196.410156 42.054688 L 196.410156 30.761719 C 196.410156 30.195312 196.542969 29.71875 196.8125 29.339844 C 197.078125 28.960938 197.425781 28.679688 197.855469 28.488281 C 198.285156 28.300781 198.734375 28.203125 199.210938 28.203125 C 199.585938 28.203125 199.894531 28.234375 200.128906 28.292969 C 200.367188 28.355469 200.542969 28.410156 200.660156 28.460938 L 200.222656 29.78125 C 200.144531 29.753906 200.035156 29.722656 199.898438 29.683594 C 199.761719 29.644531 199.585938 29.625 199.367188 29.625 C 198.859375 29.625 198.496094 29.753906 198.269531 30.007812 C 198.050781 30.261719 197.941406 30.632812 197.941406 31.125 L 197.941406 42.054688 Z M 196.410156 42.054688 " fill-opacity="1" fill-rule="nonzero"/><path fill="#ffffff" d="M 97.183594 57.667969 L 94.347656 57.667969 C 94.296875 57.300781 94.1875 56.976562 94.027344 56.691406 C 93.871094 56.402344 93.664062 56.15625 93.414062 55.957031 C 93.164062 55.753906 92.875 55.597656 92.546875 55.488281 C 92.222656 55.382812 91.867188 55.328125 91.488281 55.328125 C 90.800781 55.328125 90.203125 55.5 89.695312 55.839844 C 89.183594 56.175781 88.789062 56.664062 88.507812 57.3125 C 88.226562 57.953125 88.085938 58.734375 88.085938 59.652344 C 88.085938 60.59375 88.226562 61.386719 88.507812 62.027344 C 88.792969 62.671875 89.191406 63.15625 89.699219 63.480469 C 90.210938 63.808594 90.800781 63.972656 91.46875 63.972656 C 91.84375 63.972656 92.191406 63.921875 92.511719 63.824219 C 92.835938 63.726562 93.125 63.582031 93.375 63.390625 C 93.625 63.199219 93.832031 62.964844 93.996094 62.6875 C 94.164062 62.410156 94.28125 62.097656 94.347656 61.742188 L 97.183594 61.757812 C 97.113281 62.363281 96.929688 62.949219 96.632812 63.515625 C 96.34375 64.074219 95.953125 64.574219 95.460938 65.019531 C 94.972656 65.457031 94.390625 65.808594 93.710938 66.066406 C 93.039062 66.320312 92.273438 66.445312 91.425781 66.445312 C 90.238281 66.445312 89.183594 66.179688 88.25 65.644531 C 87.320312 65.113281 86.585938 64.339844 86.046875 63.328125 C 85.507812 62.316406 85.242188 61.089844 85.242188 59.652344 C 85.242188 58.207031 85.511719 56.980469 86.058594 55.96875 C 86.601562 54.957031 87.339844 54.183594 88.273438 53.65625 C 89.207031 53.121094 90.257812 52.855469 91.425781 52.855469 C 92.191406 52.855469 92.90625 52.960938 93.5625 53.175781 C 94.222656 53.394531 94.808594 53.707031 95.320312 54.121094 C 95.828125 54.53125 96.242188 55.03125 96.5625 55.625 C 96.886719 56.21875 97.09375 56.902344 97.183594 57.667969 Z M 97.183594 57.667969 " fill-opacity="1" fill-rule="nonzero"/><path fill="#ffffff" d="M 100.429688 69.988281 C 100.167969 69.988281 99.9375 69.964844 99.734375 69.921875 C 99.53125 69.882812 99.390625 69.84375 99.3125 69.808594 L 99.703125 68.464844 C 100.074219 68.558594 100.402344 68.59375 100.6875 68.566406 C 100.972656 68.539062 101.226562 68.414062 101.445312 68.183594 C 101.671875 67.960938 101.875 67.597656 102.0625 67.09375 L 102.347656 66.316406 L 98.667969 56.34375 L 100.324219 56.34375 L 103.074219 64.25 L 103.175781 64.25 L 105.925781 56.34375 L 107.582031 56.34375 L 103.359375 67.714844 C 103.167969 68.226562 102.933594 68.648438 102.652344 68.984375 C 102.371094 69.328125 102.046875 69.578125 101.671875 69.742188 C 101.304688 69.90625 100.890625 69.988281 100.429688 69.988281 Z M 100.429688 69.988281 " fill-opacity="1" fill-rule="nonzero"/><path fill="#ffffff" d="M 109.808594 66.265625 L 109.808594 53.035156 L 111.339844 53.035156 L 111.339844 57.917969 L 111.46875 57.917969 C 111.582031 57.746094 111.738281 57.527344 111.9375 57.261719 C 112.136719 56.988281 112.429688 56.746094 112.804688 56.535156 C 113.183594 56.320312 113.699219 56.214844 114.347656 56.214844 C 115.183594 56.214844 115.921875 56.421875 116.5625 56.839844 C 117.203125 57.257812 117.703125 57.851562 118.058594 58.617188 C 118.417969 59.382812 118.597656 60.289062 118.597656 61.332031 C 118.597656 62.382812 118.417969 63.292969 118.058594 64.0625 C 117.703125 64.828125 117.203125 65.425781 116.570312 65.847656 C 115.933594 66.265625 115.203125 66.472656 114.371094 66.472656 C 113.734375 66.472656 113.222656 66.367188 112.835938 66.15625 C 112.453125 65.941406 112.15625 65.699219 111.949219 65.425781 C 111.742188 65.152344 111.582031 64.921875 111.46875 64.742188 L 111.289062 64.742188 L 111.289062 66.265625 Z M 111.3125 61.304688 C 111.3125 62.054688 111.421875 62.714844 111.644531 63.289062 C 111.863281 63.855469 112.1875 64.300781 112.609375 64.625 C 113.035156 64.945312 113.550781 65.101562 114.164062 65.101562 C 114.804688 65.101562 115.335938 64.933594 115.765625 64.597656 C 116.199219 64.257812 116.523438 63.804688 116.738281 63.230469 C 116.957031 62.652344 117.070312 62.011719 117.070312 61.304688 C 117.070312 60.605469 116.960938 59.976562 116.746094 59.417969 C 116.53125 58.855469 116.210938 58.40625 115.777344 58.082031 C 115.351562 57.75 114.8125 57.582031 114.164062 57.582031 C 113.542969 57.582031 113.019531 57.742188 112.597656 58.054688 C 112.171875 58.363281 111.851562 58.800781 111.636719 59.359375 C 111.421875 59.914062 111.3125 60.5625 111.3125 61.304688 Z M 111.3125 61.304688 " fill-opacity="1" fill-rule="nonzero"/><path fill="#ffffff" d="M 125.109375 66.472656 C 124.152344 66.472656 123.324219 66.261719 122.628906 65.839844 C 121.9375 65.414062 121.40625 64.820312 121.027344 64.058594 C 120.65625 63.289062 120.472656 62.398438 120.472656 61.382812 C 120.472656 60.367188 120.65625 59.46875 121.027344 58.695312 C 121.40625 57.914062 121.925781 57.308594 122.597656 56.871094 C 123.269531 56.433594 124.054688 56.214844 124.953125 56.214844 C 125.472656 56.214844 125.984375 56.300781 126.492188 56.472656 C 126.996094 56.644531 127.457031 56.925781 127.871094 57.3125 C 128.285156 57.695312 128.617188 58.203125 128.863281 58.835938 C 129.109375 59.46875 129.230469 60.25 129.230469 61.175781 L 129.230469 61.820312 L 121.558594 61.820312 L 121.558594 60.503906 L 127.675781 60.503906 C 127.675781 59.945312 127.566406 59.445312 127.339844 59.003906 C 127.121094 58.566406 126.804688 58.21875 126.394531 57.964844 C 125.988281 57.710938 125.507812 57.582031 124.953125 57.582031 C 124.347656 57.582031 123.820312 57.734375 123.375 58.035156 C 122.933594 58.332031 122.59375 58.71875 122.355469 59.199219 C 122.121094 59.675781 122 60.1875 122 60.734375 L 122 61.613281 C 122 62.363281 122.128906 63 122.390625 63.519531 C 122.652344 64.039062 123.019531 64.429688 123.484375 64.703125 C 123.949219 64.96875 124.492188 65.101562 125.109375 65.101562 C 125.511719 65.101562 125.875 65.046875 126.199219 64.933594 C 126.527344 64.820312 126.8125 64.648438 127.046875 64.417969 C 127.285156 64.1875 127.46875 63.898438 127.597656 63.554688 L 129.078125 63.964844 C 128.921875 64.464844 128.660156 64.90625 128.292969 65.285156 C 127.925781 65.660156 127.472656 65.953125 126.933594 66.164062 C 126.390625 66.371094 125.785156 66.472656 125.109375 66.472656 Z M 125.109375 66.472656 " fill-opacity="1" fill-rule="nonzero"/><path fill="#ffffff" d="M 131.558594 66.265625 L 131.558594 56.34375 L 133.035156 56.34375 L 133.035156 57.84375 L 133.140625 57.84375 C 133.320312 57.351562 133.652344 56.953125 134.125 56.648438 C 134.601562 56.339844 135.136719 56.1875 135.730469 56.1875 C 135.84375 56.1875 135.984375 56.191406 136.152344 56.195312 C 136.324219 56.199219 136.449219 56.207031 136.535156 56.214844 L 136.535156 57.765625 C 136.484375 57.75 136.367188 57.730469 136.179688 57.707031 C 136 57.675781 135.804688 57.660156 135.601562 57.660156 C 135.121094 57.660156 134.6875 57.761719 134.308594 57.964844 C 133.929688 58.164062 133.632812 58.4375 133.414062 58.792969 C 133.195312 59.140625 133.089844 59.539062 133.089844 59.988281 L 133.089844 66.265625 Z M 131.558594 66.265625 " fill-opacity="1" fill-rule="nonzero"/><path fill="#ffffff" d="M 143.691406 53.035156 L 145.296875 53.035156 L 145.296875 66.265625 L 143.691406 66.265625 Z M 143.691406 53.035156 " fill-opacity="1" fill-rule="nonzero"/><path fill="#ffffff" d="M 149.839844 60.296875 L 149.839844 66.265625 L 148.3125 66.265625 L 148.3125 56.34375 L 149.789062 56.34375 L 149.789062 57.894531 L 149.917969 57.894531 C 150.152344 57.390625 150.507812 56.984375 150.980469 56.679688 C 151.457031 56.367188 152.070312 56.214844 152.820312 56.214844 C 153.496094 56.214844 154.085938 56.351562 154.59375 56.628906 C 155.097656 56.898438 155.492188 57.3125 155.773438 57.867188 C 156.050781 58.417969 156.191406 59.117188 156.191406 59.960938 L 156.191406 66.265625 L 154.664062 66.265625 L 154.664062 60.0625 C 154.664062 59.285156 154.460938 58.675781 154.054688 58.242188 C 153.648438 57.804688 153.089844 57.582031 152.382812 57.582031 C 151.894531 57.582031 151.457031 57.6875 151.074219 57.898438 C 150.691406 58.109375 150.394531 58.417969 150.171875 58.824219 C 149.953125 59.230469 149.839844 59.71875 149.839844 60.296875 Z M 149.839844 60.296875 " fill-opacity="1" fill-rule="nonzero"/><path fill="#ffffff" d="M 163.03125 66.472656 C 162.097656 66.472656 161.292969 66.253906 160.621094 65.8125 C 159.945312 65.375 159.429688 64.769531 159.066406 64 C 158.703125 63.226562 158.519531 62.347656 158.519531 61.355469 C 158.519531 60.347656 158.707031 59.460938 159.078125 58.6875 C 159.453125 57.914062 159.976562 57.308594 160.644531 56.871094 C 161.320312 56.433594 162.105469 56.214844 163.003906 56.214844 C 163.707031 56.214844 164.335938 56.34375 164.898438 56.601562 C 165.460938 56.859375 165.917969 57.222656 166.277344 57.6875 C 166.636719 58.152344 166.859375 58.695312 166.945312 59.316406 L 165.417969 59.316406 C 165.300781 58.863281 165.039062 58.460938 164.640625 58.113281 C 164.242188 57.761719 163.707031 57.582031 163.03125 57.582031 C 162.433594 57.582031 161.910156 57.738281 161.464844 58.046875 C 161.019531 58.355469 160.671875 58.789062 160.421875 59.347656 C 160.171875 59.902344 160.050781 60.554688 160.050781 61.304688 C 160.050781 62.070312 160.171875 62.738281 160.414062 63.308594 C 160.660156 63.875 161.003906 64.316406 161.449219 64.632812 C 161.898438 64.945312 162.425781 65.101562 163.03125 65.101562 C 163.429688 65.101562 163.789062 65.035156 164.113281 64.898438 C 164.4375 64.757812 164.710938 64.5625 164.9375 64.300781 C 165.160156 64.042969 165.320312 63.734375 165.417969 63.371094 L 166.945312 63.371094 C 166.859375 63.957031 166.644531 64.484375 166.304688 64.953125 C 165.96875 65.421875 165.519531 65.789062 164.960938 66.066406 C 164.410156 66.335938 163.765625 66.472656 163.03125 66.472656 Z M 163.03125 66.472656 " fill-opacity="1" fill-rule="nonzero"/><path fill="#ffffff" d="M 169.179688 66.265625 L 169.179688 56.34375 L 170.710938 56.34375 L 170.710938 66.265625 Z M 169.960938 54.6875 C 169.660156 54.6875 169.402344 54.585938 169.1875 54.386719 C 168.976562 54.183594 168.871094 53.941406 168.871094 53.65625 C 168.871094 53.371094 168.976562 53.128906 169.1875 52.925781 C 169.402344 52.722656 169.660156 52.621094 169.960938 52.621094 C 170.257812 52.621094 170.511719 52.722656 170.722656 52.925781 C 170.941406 53.128906 171.046875 53.371094 171.046875 53.65625 C 171.046875 53.941406 170.941406 54.183594 170.722656 54.386719 C 170.511719 54.585938 170.257812 54.6875 169.960938 54.6875 Z M 169.960938 54.6875 " fill-opacity="1" fill-rule="nonzero"/><path fill="#ffffff" d="M 177.269531 66.472656 C 176.441406 66.472656 175.710938 66.265625 175.074219 65.847656 C 174.4375 65.425781 173.941406 64.828125 173.582031 64.0625 C 173.226562 63.292969 173.046875 62.382812 173.046875 61.332031 C 173.046875 60.289062 173.226562 59.382812 173.582031 58.617188 C 173.941406 57.851562 174.441406 57.257812 175.082031 56.839844 C 175.71875 56.421875 176.457031 56.214844 177.296875 56.214844 C 177.945312 56.214844 178.457031 56.320312 178.832031 56.535156 C 179.210938 56.746094 179.503906 56.988281 179.703125 57.261719 C 179.90625 57.527344 180.0625 57.746094 180.175781 57.917969 L 180.304688 57.917969 L 180.304688 53.035156 L 181.832031 53.035156 L 181.832031 66.265625 L 180.355469 66.265625 L 180.355469 64.742188 L 180.175781 64.742188 C 180.0625 64.921875 179.902344 65.152344 179.695312 65.425781 C 179.488281 65.699219 179.191406 65.941406 178.808594 66.15625 C 178.421875 66.367188 177.910156 66.472656 177.269531 66.472656 Z M 177.480469 65.101562 C 178.089844 65.101562 178.609375 64.945312 179.035156 64.625 C 179.457031 64.300781 179.777344 63.855469 180 63.289062 C 180.21875 62.714844 180.328125 62.054688 180.328125 61.304688 C 180.328125 60.5625 180.222656 59.914062 180.007812 59.359375 C 179.789062 58.800781 179.46875 58.363281 179.046875 58.054688 C 178.625 57.742188 178.101562 57.582031 177.480469 57.582031 C 176.832031 57.582031 176.289062 57.75 175.859375 58.082031 C 175.429688 58.40625 175.109375 58.855469 174.894531 59.417969 C 174.679688 59.976562 174.574219 60.605469 174.574219 61.304688 C 174.574219 62.011719 174.683594 62.652344 174.898438 63.230469 C 175.121094 63.804688 175.445312 64.257812 175.871094 64.597656 C 176.304688 64.933594 176.839844 65.101562 177.480469 65.101562 Z M 177.480469 65.101562 " fill-opacity="1" fill-rule="nonzero"/><path fill="#ffffff" d="M 189.019531 66.472656 C 188.0625 66.472656 187.234375 66.261719 186.539062 65.839844 C 185.847656 65.414062 185.3125 64.820312 184.9375 64.058594 C 184.566406 63.289062 184.382812 62.398438 184.382812 61.382812 C 184.382812 60.367188 184.566406 59.46875 184.9375 58.695312 C 185.3125 57.914062 185.835938 57.308594 186.507812 56.871094 C 187.179688 56.433594 187.964844 56.214844 188.863281 56.214844 C 189.382812 56.214844 189.894531 56.300781 190.402344 56.472656 C 190.90625 56.644531 191.367188 56.925781 191.78125 57.3125 C 192.195312 57.695312 192.527344 58.203125 192.773438 58.835938 C 193.019531 59.46875 193.140625 60.25 193.140625 61.175781 L 193.140625 61.820312 L 185.46875 61.820312 L 185.46875 60.503906 L 191.585938 60.503906 C 191.585938 59.945312 191.472656 59.445312 191.25 59.003906 C 191.03125 58.566406 190.714844 58.21875 190.304688 57.964844 C 189.898438 57.710938 189.417969 57.582031 188.863281 57.582031 C 188.257812 57.582031 187.730469 57.734375 187.285156 58.035156 C 186.84375 58.332031 186.503906 58.71875 186.265625 59.199219 C 186.027344 59.675781 185.910156 60.1875 185.910156 60.734375 L 185.910156 61.613281 C 185.910156 62.363281 186.039062 63 186.296875 63.519531 C 186.5625 64.039062 186.925781 64.429688 187.394531 64.703125 C 187.859375 64.96875 188.402344 65.101562 189.019531 65.101562 C 189.421875 65.101562 189.785156 65.046875 190.109375 64.933594 C 190.4375 64.820312 190.71875 64.648438 190.957031 64.417969 C 191.195312 64.1875 191.378906 63.898438 191.507812 63.554688 L 192.988281 63.964844 C 192.832031 64.464844 192.570312 64.90625 192.203125 65.285156 C 191.835938 65.660156 191.382812 65.953125 190.84375 66.164062 C 190.300781 66.371094 189.695312 66.472656 189.019531 66.472656 Z M 189.019531 66.472656 " fill-opacity="1" fill-rule="nonzero"/><path fill="#ffffff" d="M 197 60.296875 L 197 66.265625 L 195.46875 66.265625 L 195.46875 56.34375 L 196.945312 56.34375 L 196.945312 57.894531 L 197.074219 57.894531 C 197.308594 57.390625 197.664062 56.984375 198.140625 56.679688 C 198.613281 56.367188 199.226562 56.214844 199.980469 56.214844 C 200.652344 56.214844 201.242188 56.351562 201.75 56.628906 C 202.253906 56.898438 202.648438 57.3125 202.929688 57.867188 C 203.210938 58.417969 203.347656 59.117188 203.347656 59.960938 L 203.347656 66.265625 L 201.820312 66.265625 L 201.820312 60.0625 C 201.820312 59.285156 201.617188 58.675781 201.210938 58.242188 C 200.804688 57.804688 200.246094 57.582031 199.539062 57.582031 C 199.050781 57.582031 198.613281 57.6875 198.230469 57.898438 C 197.851562 58.109375 197.550781 58.417969 197.328125 58.824219 C 197.109375 59.230469 197 59.71875 197 60.296875 Z M 197 60.296875 " fill-opacity="1" fill-rule="nonzero"/><path fill="#ffffff" d="M 210.472656 56.34375 L 210.472656 57.636719 L 205.316406 57.636719 L 205.316406 56.34375 Z M 206.820312 53.964844 L 208.347656 53.964844 L 208.347656 63.421875 C 208.347656 63.855469 208.410156 64.175781 208.535156 64.394531 C 208.664062 64.605469 208.828125 64.746094 209.027344 64.820312 C 209.230469 64.886719 209.445312 64.921875 209.667969 64.921875 C 209.839844 64.921875 209.976562 64.914062 210.085938 64.898438 C 210.191406 64.875 210.277344 64.859375 210.34375 64.84375 L 210.65625 66.214844 C 210.550781 66.253906 210.40625 66.292969 210.21875 66.332031 C 210.035156 66.375 209.800781 66.394531 209.515625 66.394531 C 209.082031 66.394531 208.660156 66.304688 208.246094 66.117188 C 207.832031 65.933594 207.492188 65.652344 207.222656 65.269531 C 206.953125 64.890625 206.820312 64.414062 206.820312 63.835938 Z M 206.820312 53.964844 " fill-opacity="1" fill-rule="nonzero"/><path fill="#ffffff" d="M 219.648438 58.566406 L 218.273438 58.953125 C 218.1875 58.726562 218.058594 58.503906 217.890625 58.289062 C 217.726562 58.066406 217.5 57.886719 217.21875 57.746094 C 216.929688 57.601562 216.566406 57.53125 216.121094 57.53125 C 215.511719 57.53125 215.003906 57.671875 214.597656 57.953125 C 214.195312 58.226562 213.996094 58.578125 213.996094 59.003906 C 213.996094 59.382812 214.132812 59.683594 214.410156 59.902344 C 214.6875 60.121094 215.121094 60.304688 215.707031 60.453125 L 217.183594 60.8125 C 218.074219 61.027344 218.738281 61.359375 219.171875 61.800781 C 219.609375 62.242188 219.828125 62.808594 219.828125 63.5 C 219.828125 64.070312 219.664062 64.578125 219.335938 65.027344 C 219.011719 65.472656 218.558594 65.828125 217.976562 66.085938 C 217.390625 66.34375 216.714844 66.472656 215.941406 66.472656 C 214.925781 66.472656 214.085938 66.253906 213.417969 65.8125 C 212.753906 65.375 212.332031 64.734375 212.15625 63.890625 L 213.605469 63.527344 C 213.746094 64.0625 214.007812 64.460938 214.390625 64.730469 C 214.78125 64.996094 215.289062 65.128906 215.914062 65.128906 C 216.628906 65.128906 217.191406 64.980469 217.613281 64.675781 C 218.035156 64.371094 218.246094 64.003906 218.246094 63.578125 C 218.246094 63.234375 218.125 62.945312 217.882812 62.714844 C 217.640625 62.476562 217.269531 62.300781 216.769531 62.183594 L 215.109375 61.796875 C 214.199219 61.582031 213.53125 61.246094 213.101562 60.792969 C 212.679688 60.335938 212.464844 59.765625 212.464844 59.082031 C 212.464844 58.523438 212.625 58.027344 212.941406 57.597656 C 213.257812 57.164062 213.695312 56.828125 214.242188 56.582031 C 214.796875 56.335938 215.421875 56.214844 216.121094 56.214844 C 217.105469 56.214844 217.878906 56.429688 218.441406 56.859375 C 219.007812 57.289062 219.410156 57.859375 219.648438 58.566406 Z M 219.648438 58.566406 " fill-opacity="1" fill-rule="nonzero"/></svg>